SplineFontDB: 3.0
FontName: KAN-KaveriBold
FullName: KAN Kaveri Bold
FamilyName: KAN Kaveri
Weight: Bold
Copyright: Copyright (c) 2009-2015, NLCI (http://www.nlci.in/fonts/)
Version: 1.0 Wed May 17 15:35:12 1995
ItalicAngle: 0
UnderlinePosition: -593.92
UnderlineWidth: 40.96
Ascent: 1638
Descent: 410
InvalidEm: 0
LayerCount: 2
Layer: 0 1 "Back" 1
Layer: 1 1 "Fore" 0
XUID: [1021 983 496268599 8370529]
FSType: 0
OS2Version: 0
OS2_WeightWidthSlopeOnly: 0
OS2_UseTypoMetrics: 1
CreationTime: 1250825684
ModificationTime: 1522367374
PfmFamily: 81
TTFWeight: 700
TTFWidth: 5
LineGap: 0
VLineGap: 0
Panose: 5 0 0 0 0 0 0 0 0 0
OS2TypoAscent: -147
OS2TypoAOffset: 1
OS2TypoDescent: -401
OS2TypoDOffset: 1
OS2TypoLinegap: 0
OS2WinAscent: -469
OS2WinAOffset: 1
OS2WinDescent: -211
OS2WinDOffset: 1
HheadAscent: -469
HheadAOffset: 1
HheadDescent: 211
HheadDOffset: 1
OS2SubXSize: 1434
OS2SubYSize: 1331
OS2SubXOff: 0
OS2SubYOff: 293
OS2SupXSize: 1434
OS2SupYSize: 1331
OS2SupXOff: 0
OS2SupYOff: 928
OS2StrikeYSize: 102
OS2StrikeYPos: 530
OS2Vendor: 'Alts'
OS2UnicodeRanges: 00000000.00000000.00000000.00000000
Lookup: 262 0 0 "blwm" { "blwm-2sub"  } []
MarkAttachClasses: 1
DEI: 91125
TtTable: prep
NPUSHB
 1
 1
SCANTYPE
PUSHW_1
 511
SCANCTRL
EndTTInstrs
ShortTable: maxp 16
  1
  0
  319
  188
  5
  167
  6
  2
  8
  64
  10
  0
  3
  417
  4
  2
EndShort
LangName: 1033 "" "" "Bold" "NLCI:KAN Kaveri Bold" "" "1.0 Wed May 17 15:35:12 1995"
Encoding: Original
UnicodeInterp: none
NameList: Adobe Glyph List
DisplaySize: -48
AntiAlias: 1
FitToEm: 1
BeginPrivate: 0
EndPrivate
AnchorClass2: "Sub" "blwm-2sub" "Nukta"""  "s"""  "V""" 
BeginChars: 608 608

StartChar: .notdef
Encoding: 0 -1 0
Width: 1024
Flags: W
LayerCount: 2
Fore
SplineSet
63 0 m 1,0,-1
 63 1237 l 1,1,-1
 961 1237 l 1,2,-1
 961 0 l 1,3,-1
 63 0 l 1,0,-1
897 63 m 1,4,-1
 897 1174 l 1,5,-1
 127 1174 l 1,6,-1
 127 63 l 1,7,-1
 897 63 l 1,4,-1
EndSplineSet
EndChar

StartChar: exclam
Encoding: 4 33 4
Width: 557
VWidth: 1024
Flags: W
LayerCount: 2
Fore
SplineSet
143 39 m 0,0,-1
 143 248 l 0,1,2
 143 291 143 291 184 291 c 0,3,-1
 360 291 l 0,4,5
 405 291 405 291 406 248 c 0,6,-1
 406 39 l 0,7,8
 406 -2 406 -2 360 -2 c 0,9,-1
 184 -2 l 0,10,11
 166 -2 166 -2 154.5 8 c 0,12,13
 143 18 143 18 143 39 c 0,0,-1
125 1513 m 0,14,-1
 428 1513 l 0,15,-1
 387 416 l 0,16,-1
 162 416 l 0,17,-1
 125 1513 l 0,14,-1
EndSplineSet
EndChar

StartChar: quotedbl
Encoding: 5 34 5
Width: 819
VWidth: 1024
Flags: W
LayerCount: 2
Fore
SplineSet
577 874 m 0,0,-1
 495 1365 l 0,1,2
 495 1423 495 1423 523 1460 c 0,3,4
 551 1497 551 1497 614 1497 c 0,5,6
 679 1497 679 1497 709 1460 c 0,7,8
 739 1423 739 1423 738 1365 c 0,9,-1
 654 874 l 0,10,-1
 577 874 l 0,0,-1
166 874 m 0,11,-1
 84 1365 l 0,12,13
 84 1423 84 1423 112 1460 c 0,14,15
 140 1497 140 1497 204 1497 c 0,16,17
 267 1497 267 1497 296 1460 c 0,18,19
 325 1423 325 1423 325 1365 c 0,20,-1
 244 874 l 0,21,-1
 166 874 l 0,11,-1
EndSplineSet
Refer: 10 39 N 1 0 0 1 373 0 2
Refer: 10 39 N 1 0 0 1 0 0 2
EndChar

StartChar: numbersign
Encoding: 6 35 6
Width: 1480
VWidth: 1024
Flags: W
LayerCount: 2
Fore
SplineSet
827 627 m 0,0,-1
 870 870 l 0,1,-1
 627 870 l 0,2,-1
 586 627 l 0,3,-1
 827 627 l 0,0,-1
342 424 m 0,4,-1
 33 424 l 0,5,-1
 63 627 l 0,6,-1
 381 627 l 0,7,-1
 422 870 l 0,8,-1
 100 870 l 0,9,-1
 133 1073 l 0,10,-1
 463 1073 l 0,11,-1
 541 1499 l 0,12,-1
 745 1499 l 0,13,-1
 668 1073 l 0,14,-1
 901 1073 l 0,15,-1
 977 1499 l 0,16,-1
 1182 1499 l 0,17,-1
 1106 1073 l 0,18,-1
 1454 1073 l 0,19,-1
 1423 870 l 0,20,-1
 1073 870 l 0,21,-1
 1032 627 l 0,22,-1
 1382 627 l 0,23,-1
 1354 424 l 0,24,-1
 987 424 l 0,25,-1
 909 0 l 0,26,-1
 705 0 l 0,27,-1
 782 424 l 0,28,-1
 547 424 l 0,29,-1
 469 0 l 0,30,-1
 264 0 l 0,31,-1
 342 424 l 0,4,-1
EndSplineSet
EndChar

StartChar: dollar
Encoding: 7 36 7
Width: 1247
VWidth: 1024
Flags: W
LayerCount: 2
Fore
SplineSet
1114 508 m 0,0,-1
 1114 422 l 0,1,2
 1114 195 1114 195 1002.5 99.5 c 0,3,4
 891 4 891 4 676 -10 c 0,5,-1
 676 -182 l 0,6,-1
 504 -182 l 0,7,-1
 504 -10 l 0,8,9
 275 0 275 0 113 39 c 0,10,-1
 113 279 l 0,11,12
 295 261 295 261 573 260 c 0,13,14
 698 260 698 260 761.5 294 c 0,15,16
 825 328 825 328 825 414 c 0,17,-1
 825 469 l 0,18,19
 825 537 825 537 785 572.5 c 0,20,21
 745 608 745 608 672 608 c 0,22,-1
 543 608 l 0,23,24
 318 608 318 608 206 706.5 c 0,25,26
 94 805 94 805 94 1028 c 0,27,-1
 94 1102 l 0,28,29
 94 1303 94 1303 199.5 1406 c 0,30,31
 305 1509 305 1509 512 1526 c 0,32,-1
 504 1638 l 0,33,-1
 666 1688 l 0,34,-1
 676 1528 l 0,35,-1
 670 1526 l 0,36,37
 848 1518 848 1518 1042 1477 c 0,38,-1
 1042 1237 l 0,39,40
 761 1255 761 1255 618 1255 c 0,41,42
 501 1255 501 1255 442 1219.5 c 0,43,44
 383 1184 383 1184 383 1087 c 0,45,-1
 383 1047 l 0,46,47
 383 969 383 969 427 933 c 0,48,49
 471 897 471 897 561 897 c 0,50,-1
 711 897 l 0,51,52
 907 897 907 897 1010.5 789.5 c 0,53,54
 1114 682 1114 682 1114 508 c 0,0,-1
EndSplineSet
EndChar

StartChar: percent
Encoding: 8 37 8
Width: 1974
VWidth: 1024
Flags: W
LayerCount: 2
Fore
SplineSet
1591 203 m 0,0,1
 1661 203 1661 203 1687.5 230.5 c 0,2,3
 1714 258 1714 258 1714 322 c 0,4,-1
 1714 475 l 0,5,6
 1714 543 1714 543 1687.5 568.5 c 0,7,8
 1661 594 1661 594 1595 594 c 0,9,-1
 1464 594 l 0,10,11
 1401 594 1401 594 1372 569.5 c 0,12,13
 1343 545 1343 545 1343 475 c 0,14,-1
 1343 322 l 0,15,16
 1343 259 1343 259 1369 231 c 0,17,18
 1395 203 1395 203 1460 203 c 0,19,-1
 1591 203 l 0,0,1
1149 276 m 0,20,-1
 1149 520 l 0,21,22
 1149 655 1149 655 1212.5 723 c 0,23,24
 1276 791 1276 791 1425 791 c 0,25,-1
 1634 791 l 0,26,27
 1779 791 1779 791 1844 723 c 0,28,29
 1909 655 1909 655 1909 520 c 0,30,-1
 1909 276 l 0,31,32
 1909 141 1909 141 1844.5 73.5 c 0,33,34
 1780 6 1780 6 1630 6 c 0,35,-1
 1421 6 l 0,36,37
 1276 6 1276 6 1212.5 73.5 c 0,38,39
 1149 141 1149 141 1149 276 c 0,20,-1
512 911 m 0,40,41
 580 911 580 911 606.5 939 c 0,42,43
 633 967 633 967 633 1030 c 0,44,-1
 633 1184 l 0,45,46
 633 1252 633 1252 606.5 1277.5 c 0,47,48
 580 1303 580 1303 516 1303 c 0,49,-1
 383 1303 l 0,50,51
 322 1303 322 1303 293 1279 c 0,52,53
 264 1255 264 1255 264 1184 c 0,54,-1
 264 1030 l 0,55,56
 264 967 264 967 288.5 939 c 0,57,58
 313 911 313 911 379 911 c 0,59,-1
 512 911 l 0,40,41
1341 1499 m 0,60,-1
 1538 1499 l 0,61,-1
 629 0 l 0,62,-1
 420 0 l 0,63,-1
 1341 1499 l 0,60,-1
68 985 m 0,64,-1
 68 1229 l 0,65,66
 68 1364 68 1364 132.5 1431.5 c 0,67,68
 197 1499 197 1499 346 1499 c 0,69,-1
 553 1499 l 0,70,71
 698 1499 698 1499 762.5 1431.5 c 0,72,73
 827 1364 827 1364 827 1229 c 0,74,-1
 827 985 l 0,75,76
 827 850 827 850 762.5 782.5 c 0,77,78
 698 715 698 715 549 715 c 0,79,-1
 342 715 l 0,80,81
 197 715 197 715 132.5 782.5 c 0,82,83
 68 850 68 850 68 985 c 0,64,-1
EndSplineSet
EndChar

StartChar: ampersand
Encoding: 9 38 9
Width: 1429
VWidth: 1024
Flags: W
LayerCount: 2
Fore
SplineSet
688 340 m 0,0,-1
 739 391 l 0,1,-1
 524 676 l 0,2,-1
 449 606 l 0,3,4
 400 561 400 561 380 520 c 0,5,6
 360 479 360 479 360 430 c 0,7,8
 360 356 360 356 404.5 311 c 0,9,10
 449 266 449 266 522 266 c 0,11,12
 567 266 567 266 607 282.5 c 0,13,14
 647 299 647 299 688 340 c 0,0,-1
72 395 m 0,15,16
 72 506 72 506 119 604 c 0,17,18
 166 702 166 702 256 778 c 0,19,-1
 379 883 l 0,20,-1
 352 924 l 0,21,22
 295 1012 295 1012 276.5 1076.5 c 0,23,24
 258 1141 258 1141 258 1208 c 0,25,26
 258 1364 258 1364 364.5 1436.5 c 0,27,28
 471 1509 471 1509 643 1509 c 0,29,30
 756 1509 756 1509 863.5 1496 c 0,31,32
 971 1483 971 1483 1040 1462 c 0,33,-1
 1040 1241 l 0,34,-1
 700 1241 l 0,35,36
 563 1241 563 1241 563 1139 c 0,37,38
 563 1102 563 1102 585.5 1057 c 0,39,40
 608 1012 608 1012 659 944 c 0,41,-1
 942 555 l 0,42,-1
 1235 819 l 0,43,-1
 1346 682 l 0,44,-1
 1208 473 l 0,45,-1
 1092 360 l 0,46,-1
 1362 0 l 0,47,-1
 1049 0 l 0,48,-1
 899 188 l 0,49,-1
 823 123 l 0,50,51
 741 51 741 51 658 20.5 c 0,52,53
 575 -10 575 -10 469 -10 c 0,54,55
 354 -10 354 -10 264 41 c 0,56,57
 174 92 174 92 123 184 c 0,58,59
 72 276 72 276 72 395 c 0,15,16
EndSplineSet
EndChar

StartChar: quotesingle
Encoding: 10 39 10
Width: 446
VWidth: 1024
Flags: W
LayerCount: 2
Fore
SplineSet
70 1407 m 0,0,-1
 70 1544 l 0,1,-1
 360 1544 l 0,2,-1
 360 1407 l 0,3,-1
 344 1018 l 0,4,-1
 90 1018 l 0,5,-1
 70 1407 l 0,0,-1
EndSplineSet
EndChar

StartChar: parenleft
Encoding: 11 40 11
Width: 792
VWidth: 1024
Flags: W
LayerCount: 2
Fore
SplineSet
119 668 m 0,0,1
 119 1010 119 1010 221.5 1276 c 0,2,3
 324 1542 324 1542 489 1761 c 0,4,-1
 760 1761 l 0,5,6
 604 1505 604 1505 513 1241 c 0,7,8
 422 977 422 977 422 668 c 0,9,10
 422 355 422 355 506 105 c 0,11,12
 590 -145 590 -145 760 -430 c 0,13,-1
 489 -430 l 0,14,15
 317 -215 317 -215 218 46 c 0,16,17
 119 307 119 307 119 668 c 0,0,1
EndSplineSet
EndChar

StartChar: parenright
Encoding: 12 41 12
Width: 790
VWidth: 1024
Flags: W
LayerCount: 2
Fore
SplineSet
369 666 m 0,0,1
 369 979 369 979 286 1229 c 0,2,3
 203 1479 203 1479 31 1761 c 0,4,-1
 303 1761 l 0,5,6
 477 1544 477 1544 575.5 1285 c 0,7,8
 674 1026 674 1026 674 666 c 0,9,10
 674 322 674 322 573.5 56.5 c 0,11,12
 473 -209 473 -209 303 -430 c 0,13,-1
 31 -430 l 0,14,15
 188 -170 188 -170 278.5 92 c 0,16,17
 369 354 369 354 369 666 c 0,0,1
EndSplineSet
EndChar

StartChar: asterisk
Encoding: 13 42 13
Width: 884
VWidth: 1024
Flags: W
LayerCount: 2
Fore
SplineSet
395 961 m 0,0,-1
 477 1092 l 0,1,-1
 715 911 l 0,2,-1
 647 821 l 0,3,-1
 395 961 l 0,0,-1
195 852 m 0,4,-1
 252 1133 l 0,5,-1
 401 1094 l 0,6,-1
 303 817 l 0,7,-1
 195 852 l 0,4,-1
80 1174 m 0,8,-1
 80 1286 l 0,9,-1
 367 1317 l 0,10,-1
 373 1163 l 0,11,-1
 80 1174 l 0,8,-1
500 1159 m 0,12,-1
 739 1325 l 0,13,-1
 805 1235 l 0,14,-1
 598 1038 l 0,15,-1
 500 1159 l 0,12,-1
348 1479 m 0,16,-1
 457 1513 l 0,17,-1
 584 1257 l 0,18,-1
 438 1200 l 0,19,-1
 348 1479 l 0,16,-1
EndSplineSet
EndChar

StartChar: plus
Encoding: 14 43 14
Width: 1247
VWidth: 1024
Flags: W
LayerCount: 2
Fore
SplineSet
1081 606 m 0,0,-1
 745 606 l 0,1,-1
 745 270 l 0,2,-1
 500 270 l 0,3,-1
 500 606 l 0,4,-1
 164 606 l 0,5,-1
 164 852 l 0,6,-1
 500 852 l 0,7,-1
 500 1188 l 0,8,-1
 745 1188 l 0,9,-1
 745 852 l 0,10,-1
 1081 852 l 0,11,-1
 1081 606 l 0,0,-1
EndSplineSet
EndChar

StartChar: comma
Encoding: 15 44 15
Width: 479
VWidth: 1024
Flags: W
LayerCount: 2
Fore
SplineSet
119 -170 m 0,0,-1
 119 -74 l 0,1,2
 148 -74 148 -74 161 -64.5 c 0,3,4
 174 -55 174 -55 174 -33 c 0,5,-1
 174 20 l 0,6,-1
 154 20 l 0,7,8
 136 20 136 20 123.5 31.5 c 0,9,10
 111 43 111 43 111 66 c 0,11,-1
 111 244 l 0,12,13
 111 291 111 291 154 291 c 0,14,-1
 326 291 l 0,15,16
 369 291 369 291 369 244 c 0,17,-1
 369 -37 l 0,18,19
 369 -119 369 -119 325 -150.5 c 0,20,21
 281 -182 281 -182 215 -182 c 0,22,23
 182 -182 182 -182 154.5 -177 c 0,24,25
 127 -172 127 -172 119 -170 c 0,0,-1
EndSplineSet
EndChar

StartChar: hyphen
Encoding: 16 45 16
Width: 716
VWidth: 1024
Flags: W
LayerCount: 2
Fore
SplineSet
45 717 m 0,0,-1
 672 717 l 0,1,-1
 672 471 l 0,2,-1
 45 471 l 0,3,-1
 45 717 l 0,0,-1
EndSplineSet
EndChar

StartChar: period
Encoding: 17 46 17
Width: 479
VWidth: 1024
Flags: W
LayerCount: 2
Fore
SplineSet
111 39 m 0,0,-1
 111 248 l 0,1,2
 111 291 111 291 152 291 c 0,3,-1
 328 291 l 0,4,5
 373 291 373 291 373 248 c 0,6,-1
 373 39 l 0,7,8
 373 -2 373 -2 328 -2 c 0,9,-1
 152 -2 l 0,10,11
 133 -2 133 -2 122 8 c 0,12,13
 111 18 111 18 111 39 c 0,0,-1
EndSplineSet
EndChar

StartChar: slash
Encoding: 18 47 18
Width: 946
VWidth: 1024
Flags: W
LayerCount: 2
Fore
SplineSet
606 1577 m 0,0,-1
 915 1577 l 0,1,-1
 340 -147 l 0,2,-1
 31 -147 l 0,3,-1
 606 1577 l 0,0,-1
EndSplineSet
EndChar

StartChar: zero
Encoding: 19 48 19
Width: 1325
VWidth: 1024
Flags: W
LayerCount: 2
Fore
SplineSet
745 264 m 0,0,1
 909 264 909 264 909 428 c 0,2,-1
 909 1092 l 0,3,4
 909 1256 909 1256 758 1255 c 0,5,-1
 571 1255 l 0,6,7
 495 1255 495 1255 455.5 1213 c 0,8,9
 416 1171 416 1171 416 1092 c 0,10,-1
 416 430 l 0,11,12
 416 264 416 264 582 264 c 0,13,-1
 745 264 l 0,0,1
113 383 m 0,14,-1
 113 1120 l 0,15,16
 113 1317 113 1317 218.5 1422.5 c 0,17,18
 324 1528 324 1528 512 1528 c 0,19,-1
 827 1528 l 0,20,21
 1015 1528 1015 1528 1113.5 1421.5 c 0,22,23
 1212 1315 1212 1315 1212 1120 c 0,24,-1
 1212 383 l 0,25,26
 1212 195 1212 195 1111 93.5 c 0,27,28
 1010 -8 1010 -8 827 -8 c 0,29,-1
 510 -8 l 0,30,31
 317 -8 317 -8 215 92.5 c 0,32,33
 113 193 113 193 113 383 c 0,14,-1
EndSplineSet
EndChar

StartChar: one
Encoding: 20 49 20
Width: 761
VWidth: 1024
Flags: W
LayerCount: 2
Fore
SplineSet
332 1239 m 0,0,-1
 63 1204 l 0,1,-1
 63 1399 l 0,2,-1
 365 1530 l 0,3,-1
 635 1530 l 0,4,-1
 635 0 l 0,5,-1
 332 0 l 0,6,-1
 332 1239 l 0,0,-1
EndSplineSet
EndChar

StartChar: two
Encoding: 21 50 21
Width: 1200
VWidth: 1024
Flags: W
LayerCount: 2
Fore
SplineSet
94 244 m 0,0,-1
 600 745 l 0,1,2
 694 835 694 835 736 909 c 0,3,4
 778 983 778 983 778 1065 c 0,5,6
 778 1151 778 1151 726 1196 c 0,7,8
 674 1241 674 1241 555 1241 c 0,9,-1
 129 1241 l 0,10,-1
 129 1479 l 0,11,12
 260 1502 260 1502 371.5 1515 c 0,13,14
 483 1528 483 1528 614 1528 c 0,15,16
 868 1528 868 1528 974.5 1424.5 c 0,17,18
 1081 1321 1081 1321 1081 1114 c 0,19,20
 1081 967 1081 967 1023 851 c 0,21,22
 965 735 965 735 838 612 c 0,23,-1
 498 274 l 0,24,-1
 1128 274 l 0,25,-1
 1128 0 l 0,26,-1
 94 0 l 0,27,-1
 94 244 l 0,0,-1
EndSplineSet
EndChar

StartChar: three
Encoding: 22 51 22
Width: 1185
VWidth: 1024
Flags: W
LayerCount: 2
Fore
SplineSet
78 31 m 0,0,-1
 78 274 l 0,1,-1
 543 274 l 0,2,3
 672 274 672 274 728 305 c 0,4,5
 784 336 784 336 784 416 c 0,6,-1
 784 479 l 0,7,8
 784 622 784 622 586 631 c 0,9,-1
 213 645 l 0,10,-1
 213 879 l 0,11,-1
 573 899 l 0,12,13
 669 903 669 903 718.5 934 c 0,14,15
 768 965 768 965 768 1030 c 0,16,-1
 768 1081 l 0,17,18
 768 1163 768 1163 712.5 1202 c 0,19,20
 657 1241 657 1241 532 1241 c 0,21,-1
 111 1241 l 0,22,-1
 111 1483 l 0,23,24
 422 1532 422 1532 653 1528 c 0,25,26
 854 1526 854 1526 960.5 1430.5 c 0,27,28
 1067 1335 1067 1335 1067 1153 c 0,29,-1
 1067 1040 l 0,30,31
 1067 927 1067 927 1016 859 c 0,32,33
 965 791 965 791 879 762 c 0,34,35
 969 735 969 735 1029.5 649 c 0,36,37
 1090 563 1090 563 1090 438 c 0,38,-1
 1090 360 l 0,39,40
 1090 180 1090 180 976 84 c 0,41,42
 862 -12 862 -12 657 -12 c 0,43,44
 336 -12 336 -12 78 31 c 0,0,-1
EndSplineSet
EndChar

StartChar: four
Encoding: 23 52 23
Width: 1267
VWidth: 1024
Flags: W
LayerCount: 2
Fore
SplineSet
768 322 m 0,0,-1
 104 322 l 0,1,-1
 47 465 l 0,2,-1
 539 1516 l 0,3,-1
 848 1516 l 0,4,-1
 408 580 l 0,5,-1
 768 580 l 0,6,-1
 768 874 l 0,7,-1
 827 1049 l 0,8,-1
 1071 1049 l 0,9,-1
 1071 580 l 0,10,-1
 1227 580 l 0,11,-1
 1227 371 l 0,12,-1
 1071 322 l 0,13,-1
 1071 2 l 0,14,-1
 768 2 l 0,15,-1
 768 322 l 0,0,-1
EndSplineSet
EndChar

StartChar: five
Encoding: 24 53 24
Width: 1243
VWidth: 1024
Flags: W
LayerCount: 2
Fore
SplineSet
121 23 m 0,0,-1
 121 262 l 0,1,-1
 655 262 l 0,2,3
 757 262 757 262 802.5 311 c 0,4,5
 848 360 848 360 848 434 c 0,6,-1
 848 539 l 0,7,8
 848 695 848 695 692 694 c 0,9,-1
 573 694 l 0,10,11
 505 694 505 694 471.5 666.5 c 0,12,13
 438 639 438 639 428 582 c 0,14,-1
 141 582 l 0,15,-1
 184 1516 l 0,16,-1
 1094 1516 l 0,17,-1
 1094 1243 l 0,18,-1
 444 1243 l 0,19,-1
 428 883 l 0,20,21
 459 916 459 916 513 933 c 0,22,23
 567 950 567 950 635 950 c 0,24,-1
 801 950 l 0,25,26
 971 950 971 950 1062 851 c 0,27,28
 1153 752 1153 752 1153 594 c 0,29,-1
 1153 371 l 0,30,31
 1153 174 1153 174 1024 82 c 0,32,33
 895 -10 895 -10 643 -10 c 0,34,35
 445 -10 445 -10 121 23 c 0,0,-1
EndSplineSet
EndChar

StartChar: six
Encoding: 25 54 25
Width: 1243
VWidth: 1024
Flags: W
LayerCount: 2
Fore
SplineSet
709 262 m 0,0,1
 779 262 779 262 814.5 296 c 0,2,3
 850 330 850 330 850 408 c 0,4,-1
 850 508 l 0,5,6
 850 594 850 594 808 624.5 c 0,7,8
 766 655 766 655 666 655 c 0,9,-1
 408 655 l 0,10,11
 408 501 408 501 430.5 416.5 c 0,12,13
 453 332 453 332 498 297 c 0,14,15
 543 262 543 262 618 262 c 0,16,-1
 709 262 l 0,0,1
104 737 m 0,17,18
 104 1165 104 1165 247.5 1346.5 c 0,19,20
 391 1528 391 1528 676 1528 c 0,21,22
 901 1528 901 1528 1063 1495 c 0,23,-1
 1063 1255 l 0,24,-1
 705 1255 l 0,25,26
 553 1255 553 1255 480.5 1161 c 0,27,28
 408 1067 408 1067 408 879 c 0,29,30
 531 914 531 914 750 913 c 0,31,32
 967 913 967 913 1060 824 c 0,33,34
 1153 735 1153 735 1153 565 c 0,35,-1
 1153 348 l 0,36,37
 1153 164 1153 164 1052.5 77 c 0,38,39
 952 -10 952 -10 778 -10 c 0,40,-1
 557 -10 l 0,41,42
 401 -10 401 -10 303 55.5 c 0,43,44
 205 121 205 121 154.5 283.5 c 0,45,46
 104 446 104 446 104 737 c 0,17,18
EndSplineSet
EndChar

StartChar: seven
Encoding: 26 55 26
Width: 1134
VWidth: 1024
Flags: W
LayerCount: 2
Fore
SplineSet
692 1212 m 0,0,-1
 47 1212 l 0,1,-1
 47 1516 l 0,2,-1
 1004 1516 l 0,3,-1
 1083 1386 l 0,4,-1
 582 0 l 0,5,-1
 242 0 l 0,6,-1
 692 1212 l 0,0,-1
EndSplineSet
EndChar

StartChar: eight
Encoding: 27 56 27
Width: 1286
VWidth: 1024
Flags: W
LayerCount: 2
Fore
SplineSet
723 248 m 0,0,1
 803 248 803 248 833.5 279.5 c 0,2,3
 864 311 864 311 864 377 c 0,4,-1
 864 512 l 0,5,6
 864 645 864 645 723 645 c 0,7,-1
 569 645 l 0,8,9
 510 645 510 645 466 610 c 0,10,11
 422 575 422 575 422 512 c 0,12,-1
 422 377 l 0,13,14
 422 309 422 309 460 278.5 c 0,15,16
 498 248 498 248 571 248 c 0,17,-1
 723 248 l 0,0,1
719 903 m 0,18,19
 789 903 789 903 815.5 939 c 0,20,21
 842 975 842 975 842 1042 c 0,22,-1
 842 1139 l 0,23,24
 842 1215 842 1215 812 1242.5 c 0,25,26
 782 1270 782 1270 723 1270 c 0,27,-1
 571 1270 l 0,28,29
 501 1270 501 1270 472.5 1242 c 0,30,31
 444 1214 444 1214 444 1139 c 0,32,-1
 444 1042 l 0,33,34
 444 966 444 966 473 934.5 c 0,35,36
 502 903 502 903 569 903 c 0,37,-1
 719 903 l 0,18,19
119 322 m 0,38,-1
 119 528 l 0,39,40
 119 618 119 618 164 686 c 0,41,42
 209 754 209 754 287 772 c 0,43,44
 201 813 201 813 175.5 876.5 c 0,45,46
 150 940 150 940 150 1038 c 0,47,-1
 150 1210 l 0,48,49
 150 1374 150 1374 248 1451 c 0,50,51
 346 1528 346 1528 504 1528 c 0,52,-1
 791 1528 l 0,53,54
 947 1528 947 1528 1043 1451 c 0,55,56
 1139 1374 1139 1374 1139 1210 c 0,57,-1
 1139 1038 l 0,58,59
 1139 966 1139 966 1106 888.5 c 0,60,61
 1073 811 1073 811 1004 797 c 0,62,63
 1096 777 1096 777 1131.5 700 c 0,64,65
 1167 623 1167 623 1167 535 c 0,66,-1
 1167 322 l 0,67,68
 1167 138 1167 138 1068 65 c 0,69,70
 969 -8 969 -8 795 -8 c 0,71,-1
 518 -8 l 0,72,73
 336 -8 336 -8 227.5 64.5 c 0,74,75
 119 137 119 137 119 322 c 0,38,-1
EndSplineSet
EndChar

StartChar: nine
Encoding: 28 57 28
Width: 1243
VWidth: 1024
Flags: W
LayerCount: 2
Fore
SplineSet
840 862 m 0,0,1
 840 1016 840 1016 818.5 1101 c 0,2,3
 797 1186 797 1186 752 1219.5 c 0,4,5
 707 1253 707 1253 631 1253 c 0,6,-1
 539 1253 l 0,7,8
 469 1253 469 1253 434 1219.5 c 0,9,10
 399 1186 399 1186 399 1108 c 0,11,-1
 399 1010 l 0,12,13
 399 924 399 924 441 893 c 0,14,15
 483 862 483 862 584 862 c 0,16,-1
 840 862 l 0,0,1
186 23 m 0,17,-1
 186 262 l 0,18,-1
 543 262 l 0,19,20
 695 262 695 262 767.5 356.5 c 0,21,22
 840 451 840 451 840 639 c 0,23,24
 774 619 774 619 692 611.5 c 0,25,26
 610 604 610 604 498 604 c 0,27,28
 281 604 281 604 188.5 693 c 0,29,30
 96 782 96 782 96 952 c 0,31,-1
 96 1169 l 0,32,33
 96 1353 96 1353 195.5 1439.5 c 0,34,35
 295 1526 295 1526 471 1526 c 0,36,-1
 690 1526 l 0,37,38
 846 1526 846 1526 944 1461.5 c 0,39,40
 1042 1397 1042 1397 1093.5 1233 c 0,41,42
 1145 1069 1145 1069 1145 778 c 0,43,44
 1145 350 1145 350 1000.5 170 c 0,45,46
 856 -10 856 -10 571 -10 c 0,47,48
 344 -10 344 -10 186 23 c 0,17,-1
EndSplineSet
EndChar

StartChar: colon
Encoding: 29 58 29
Width: 479
VWidth: 1024
Flags: W
LayerCount: 2
Fore
SplineSet
482 148 m 0,0,1
 482 112 482 112 469 81 c 0,2,3
 456 49 456 49 432 26 c 0,4,5
 408 2 408 2 377 -12 c 0,6,7
 345 -26 345 -26 308 -26 c 0,8,9
 272 -26 272 -26 240 -12 c 0,10,11
 208 2 208 2 184 26 c 0,12,13
 160 50 160 50 146 81 c 0,14,15
 132 113 132 113 132 148 c 0,16,17
 132 185 132 185 146 217 c 0,18,19
 160 249 160 249 184 273 c 0,20,21
 208 297 208 297 240 311 c 0,22,23
 272 325 272 325 308 325 c 0,24,25
 345 325 345 325 377 311 c 0,26,27
 409 297 409 297 432 273 c 0,28,29
 456 249 456 249 469 217 c 0,30,31
 482 185 482 185 482 148 c 0,0,1
482 872 m 0,32,33
 482 835 482 835 469 804 c 0,34,35
 456 772 456 772 432 749 c 0,36,37
 408 725 408 725 377 712 c 0,38,39
 345 699 345 699 308 698 c 0,40,41
 272 698 272 698 240 712 c 0,42,43
 208 725 208 725 184 749 c 0,44,45
 160 773 160 773 146 804 c 0,46,47
 132 836 132 836 132 872 c 0,48,49
 132 908 132 908 146 941 c 0,50,51
 160 973 160 973 184 997 c 0,52,53
 208 1021 208 1021 240 1035 c 0,54,55
 272 1049 272 1049 308 1049 c 0,56,57
 345 1049 345 1049 377 1035 c 0,58,59
 409 1021 409 1021 432 997 c 0,60,61
 456 973 456 973 469 941 c 0,62,63
 482 908 482 908 482 872 c 0,32,33
EndSplineSet
Refer: 17 46 N 1 0 0 1 0 811 2
Refer: 17 46 N 1 0 0 1 0 0 2
EndChar

StartChar: semicolon
Encoding: 30 59 30
Width: 479
VWidth: 1024
Flags: W
LayerCount: 2
Fore
SplineSet
508 124 m 0,0,1
 508 58 508 58 489 -2 c 0,2,3
 471 -62 471 -62 440 -116 c 0,4,5
 409 -170 409 -170 366 -215 c 0,6,7
 324 -260 324 -260 275 -292 c 0,8,9
 227 -325 227 -325 176 -346 c 0,10,11
 124 -366 124 -366 74 -369 c 0,12,-1
 74 -266 l 0,13,14
 114 -260 114 -260 159 -243 c 0,15,16
 205 -226 205 -226 243 -194 c 0,17,18
 281 -161 281 -161 304 -110 c 0,19,20
 328 -59 328 -59 325 14 c 0,21,-1
 198 14 l 0,22,23
 179 29 179 29 166 47 c 0,24,25
 154 64 154 64 146 81 c 0,26,27
 138 98 138 98 135 116 c 0,28,29
 132 133 132 133 132 148 c 0,30,31
 132 188 132 188 147 221 c 0,32,33
 162 253 162 253 186 276 c 0,34,35
 211 299 211 299 243 312 c 0,36,37
 275 325 275 325 308 325 c 0,38,39
 403 325 403 325 456 270 c 0,40,41
 508 216 508 216 508 124 c 0,0,1
482 872 m 0,42,43
 482 835 482 835 469 804 c 0,44,45
 456 772 456 772 432 749 c 0,46,47
 408 725 408 725 377 712 c 0,48,49
 345 699 345 699 308 698 c 0,50,51
 272 698 272 698 240 712 c 0,52,53
 208 725 208 725 184 749 c 0,54,55
 160 773 160 773 146 804 c 0,56,57
 132 836 132 836 132 872 c 0,58,59
 132 908 132 908 146 941 c 0,60,61
 160 973 160 973 184 997 c 0,62,63
 208 1021 208 1021 240 1035 c 0,64,65
 272 1049 272 1049 308 1049 c 0,66,67
 345 1049 345 1049 377 1035 c 0,68,69
 409 1021 409 1021 432 997 c 0,70,71
 456 973 456 973 469 941 c 0,72,73
 482 908 482 908 482 872 c 0,42,43
EndSplineSet
Refer: 15 44 N 1 0 0 1 0 0 2
Refer: 17 46 N 1 0 0 1 0 811 2
EndChar

StartChar: less
Encoding: 31 60 31
Width: 1247
VWidth: 1024
Flags: W
LayerCount: 2
Fore
SplineSet
197 584 m 0,0,-1
 197 852 l 0,1,-1
 1047 1120 l 0,2,-1
 1047 856 l 0,3,-1
 492 721 l 0,4,-1
 1047 571 l 0,5,-1
 1047 305 l 0,6,-1
 197 584 l 0,0,-1
EndSplineSet
EndChar

StartChar: equal
Encoding: 32 61 32
Width: 1247
VWidth: 1024
Flags: W
LayerCount: 2
Fore
SplineSet
420 755 m 0,0,-1
 420 885 l 0,1,-1
 1677 885 l 0,2,-1
 1677 755 l 0,3,-1
 420 755 l 0,0,-1
420 374 m 0,4,-1
 420 504 l 0,5,-1
 1677 504 l 0,6,-1
 1677 374 l 0,7,-1
 420 374 l 0,4,-1
EndSplineSet
Refer: 387 8722 N 1 0 0 1 0 246 2
Refer: 387 8722 N 1 0 0 1 0 -246 2
EndChar

StartChar: greater
Encoding: 33 62 33
Width: 1247
VWidth: 1024
Flags: W
LayerCount: 2
Fore
SplineSet
201 571 m 0,0,-1
 756 719 l 0,1,-1
 201 856 l 0,2,-1
 201 1120 l 0,3,-1
 1051 852 l 0,4,-1
 1051 584 l 0,5,-1
 201 305 l 0,6,-1
 201 571 l 0,0,-1
EndSplineSet
EndChar

StartChar: question
Encoding: 34 63 34
Width: 1083
VWidth: 1024
Flags: W
LayerCount: 2
Fore
SplineSet
287 39 m 0,0,-1
 287 248 l 0,1,2
 287 291 287 291 328 291 c 0,3,-1
 504 291 l 0,4,5
 549 291 549 291 549 248 c 0,6,-1
 549 39 l 0,7,8
 549 -2 549 -2 504 -2 c 0,9,-1
 328 -2 l 0,10,11
 309 -2 309 -2 298 8 c 0,12,13
 287 18 287 18 287 39 c 0,0,-1
303 821 m 0,14,-1
 446 821 l 0,15,16
 557 821 557 821 609.5 857 c 0,17,18
 662 893 662 893 662 985 c 0,19,-1
 662 1051 l 0,20,21
 662 1151 662 1151 604.5 1196 c 0,22,23
 547 1241 547 1241 430 1241 c 0,24,25
 346 1241 346 1241 264 1223.5 c 0,26,27
 182 1206 182 1206 88 1174 c 0,28,-1
 88 1397 l 0,29,30
 272 1514 272 1514 528 1513 c 0,31,32
 739 1513 739 1513 852 1400.5 c 0,33,34
 965 1288 965 1288 965 1100 c 0,35,-1
 965 979 l 0,36,37
 965 592 965 592 530 592 c 0,38,-1
 530 416 l 0,39,-1
 303 416 l 0,40,-1
 303 821 l 0,14,-1
EndSplineSet
EndChar

StartChar: at
Encoding: 35 64 35
Width: 1806
VWidth: 1024
Flags: W
LayerCount: 2
Fore
SplineSet
1067 342 m 0,0,-1
 1067 508 l 0,1,-1
 840 494 l 0,2,3
 783 490 783 490 754 472.5 c 0,4,5
 725 455 725 455 725 399 c 0,6,-1
 725 356 l 0,7,8
 725 256 725 256 838 256 c 0,9,10
 897 256 897 256 964.5 279.5 c 0,11,12
 1032 303 1032 303 1067 342 c 0,0,-1
104 76 m 0,13,-1
 104 670 l 0,14,15
 104 852 104 852 206.5 974 c 0,16,17
 309 1096 309 1096 553 1096 c 0,18,-1
 922 1096 l 0,19,20
 1031 1096 1031 1096 1110.5 1072.5 c 0,21,22
 1190 1049 1190 1049 1242 976 c 0,23,24
 1294 903 1294 903 1294 764 c 0,25,-1
 1294 47 l 0,26,-1
 1110 47 l 0,27,-1
 1069 162 l 0,28,29
 1067 160 1067 160 985 94.5 c 0,30,31
 903 29 903 29 741 29 c 0,32,33
 614 29 614 29 546.5 114 c 0,34,35
 479 199 479 199 479 313 c 0,36,-1
 479 391 l 0,37,38
 479 528 479 528 560 598 c 0,39,40
 641 668 641 668 788 668 c 0,41,-1
 1067 668 l 0,42,-1
 1067 743 l 0,43,44
 1067 813 1067 813 1033 839.5 c 0,45,46
 999 866 999 866 928 866 c 0,47,-1
 553 866 l 0,48,49
 451 866 451 866 391.5 821 c 0,50,51
 332 776 332 776 332 655 c 0,52,-1
 332 106 l 0,53,54
 332 -31 332 -31 397.5 -89 c 0,55,56
 463 -147 463 -147 553 -147 c 0,57,-1
 1206 -147 l 0,58,59
 1335 -147 1335 -147 1389.5 -82.5 c 0,60,61
 1444 -18 1444 -18 1444 106 c 0,62,-1
 1444 1006 l 0,63,64
 1444 1131 1444 1131 1380.5 1202.5 c 0,65,66
 1317 1274 1317 1274 1206 1274 c 0,67,-1
 387 1274 l 0,68,-1
 387 1456 l 0,69,70
 469 1472 469 1472 655.5 1487.5 c 0,71,72
 842 1503 842 1503 1022 1503 c 0,73,-1
 1206 1503 l 0,74,75
 1403 1503 1403 1503 1538 1384.5 c 0,76,77
 1673 1266 1673 1266 1673 1006 c 0,78,-1
 1673 106 l 0,79,80
 1673 -142 1673 -142 1559.5 -260.5 c 0,81,82
 1446 -379 1446 -379 1221 -379 c 0,83,-1
 553 -379 l 0,84,85
 356 -379 356 -379 230 -269.5 c 0,86,87
 104 -160 104 -160 104 76 c 0,13,-1
EndSplineSet
EndChar

StartChar: A
Encoding: 36 65 36
Width: 1402
VWidth: 1024
Flags: W
LayerCount: 2
Fore
SplineSet
885 590 m 0,0,-1
 698 1255 l 0,1,-1
 512 590 l 0,2,-1
 885 590 l 0,0,-1
510 1516 m 0,3,-1
 893 1516 l 0,4,-1
 1368 0 l 0,5,-1
 1053 0 l 0,6,-1
 956 317 l 0,7,-1
 440 317 l 0,8,-1
 346 0 l 0,9,-1
 35 0 l 0,10,-1
 510 1516 l 0,3,-1
EndSplineSet
EndChar

StartChar: B
Encoding: 37 66 37
Width: 1284
VWidth: 1024
Flags: W
LayerCount: 2
Fore
SplineSet
745 272 m 0,0,1
 919 272 919 272 920 471 c 0,2,3
 920 557 920 557 871.5 607 c 0,4,5
 823 657 823 657 745 657 c 0,6,-1
 434 657 l 0,7,-1
 434 272 l 0,8,-1
 745 272 l 0,0,1
729 891 m 0,9,10
 795 891 795 891 832.5 940 c 0,11,12
 870 989 870 989 870 1071 c 0,13,14
 870 1161 870 1161 830.5 1202 c 0,15,16
 791 1243 791 1243 725 1243 c 0,17,-1
 434 1243 l 0,18,-1
 434 891 l 0,19,-1
 729 891 l 0,9,10
131 1516 m 0,20,-1
 727 1516 l 0,21,22
 1159 1516 1159 1516 1159 1118 c 0,23,24
 1159 983 1159 983 1104 898 c 0,25,26
 1049 813 1049 813 948 786 c 0,27,28
 1059 759 1059 759 1133.5 667 c 0,29,30
 1208 575 1208 575 1208 418 c 0,31,32
 1208 193 1208 193 1094.5 96.5 c 0,33,34
 981 0 981 0 754 0 c 0,35,-1
 131 0 l 0,36,-1
 131 1516 l 0,20,-1
EndSplineSet
EndChar

StartChar: C
Encoding: 38 67 38
Width: 1200
VWidth: 1024
Flags: W
LayerCount: 2
Fore
SplineSet
92 762 m 0,0,1
 92 1065 92 1065 156.5 1233 c 0,2,3
 221 1401 221 1401 340 1465.5 c 0,4,5
 459 1530 459 1530 645 1530 c 0,6,7
 784 1530 784 1530 907 1508.5 c 0,8,9
 1030 1487 1030 1487 1118 1458 c 0,10,-1
 1118 1223 l 0,11,12
 1057 1237 1057 1237 944 1247 c 0,13,14
 831 1257 831 1257 709 1257 c 0,15,16
 586 1257 586 1257 520.5 1219.5 c 0,17,18
 455 1182 455 1182 425 1076.5 c 0,19,20
 395 971 395 971 395 760 c 0,21,22
 395 551 395 551 422 446.5 c 0,23,24
 449 342 449 342 514.5 301 c 0,25,26
 580 260 580 260 709 260 c 0,27,28
 959 260 959 260 1118 281 c 0,29,-1
 1118 47 l 0,30,31
 936 -12 936 -12 641 -12 c 0,32,33
 451 -12 451 -12 334 48.5 c 0,34,35
 217 109 217 109 154.5 277.5 c 0,36,37
 92 446 92 446 92 762 c 0,0,1
EndSplineSet
EndChar

StartChar: D
Encoding: 39 68 39
Width: 1392
VWidth: 1024
Flags: W
LayerCount: 2
Fore
SplineSet
741 272 m 0,0,1
 878 272 878 272 937.5 392 c 0,2,3
 997 512 997 512 997 758 c 0,4,5
 997 951 997 951 969.5 1056 c 0,6,7
 942 1161 942 1161 886.5 1202 c 0,8,9
 831 1243 831 1243 741 1243 c 0,10,-1
 434 1243 l 0,11,-1
 434 272 l 0,12,-1
 741 272 l 0,0,1
131 1516 m 0,13,-1
 772 1516 l 0,14,15
 1063 1516 1063 1516 1181.5 1319 c 0,16,17
 1300 1122 1300 1122 1300 758 c 0,18,19
 1300 375 1300 375 1169 187.5 c 0,20,21
 1038 0 1038 0 772 0 c 0,22,-1
 131 0 l 0,23,-1
 131 1516 l 0,13,-1
EndSplineSet
EndChar

StartChar: E
Encoding: 40 69 40
Width: 1222
VWidth: 1024
Flags: W
LayerCount: 2
Fore
SplineSet
131 324 m 0,0,-1
 131 1169 l 0,1,2
 131 1353 131 1353 232.5 1434.5 c 0,3,4
 334 1516 334 1516 477 1516 c 0,5,6
 790 1516 790 1516 1133 1489 c 0,7,-1
 1133 1235 l 0,8,-1
 567 1235 l 0,9,10
 434 1235 434 1235 434 1110 c 0,11,-1
 434 891 l 0,12,-1
 1034 874 l 0,13,-1
 1034 635 l 0,14,-1
 434 618 l 0,15,-1
 434 410 l 0,16,17
 434 275 434 275 561 274 c 0,18,-1
 1133 274 l 0,19,-1
 1133 20 l 0,20,21
 861 -11 861 -11 500 -10 c 0,22,23
 352 -10 352 -10 241.5 55.5 c 0,24,25
 131 121 131 121 131 324 c 0,0,-1
EndSplineSet
EndChar

StartChar: F
Encoding: 41 70 41
Width: 1193
VWidth: 1024
Flags: W
LayerCount: 2
Fore
SplineSet
131 1169 m 0,0,1
 131 1353 131 1353 232.5 1434.5 c 0,2,3
 334 1516 334 1516 477 1516 c 0,4,5
 885 1516 885 1516 1133 1489 c 0,6,-1
 1133 1235 l 0,7,-1
 561 1235 l 0,8,9
 500 1235 500 1235 467 1201 c 0,10,11
 434 1167 434 1167 434 1114 c 0,12,-1
 434 854 l 0,13,-1
 1034 838 l 0,14,-1
 1034 598 l 0,15,-1
 434 582 l 0,16,-1
 434 0 l 0,17,-1
 131 0 l 0,18,-1
 131 1169 l 0,0,1
EndSplineSet
EndChar

StartChar: G
Encoding: 42 71 42
Width: 1363
VWidth: 1024
Flags: W
LayerCount: 2
Fore
SplineSet
92 758 m 0,0,1
 92 1020 92 1020 138 1186 c 0,2,3
 184 1352 184 1352 306 1441 c 0,4,5
 428 1530 428 1530 651 1530 c 0,6,7
 796 1530 796 1530 913 1512.5 c 0,8,9
 1030 1495 1030 1495 1163 1462 c 0,10,-1
 1163 1229 l 0,11,12
 1083 1239 1083 1239 959.5 1248 c 0,13,14
 836 1257 836 1257 707 1257 c 0,15,16
 576 1257 576 1257 510 1211 c 0,17,18
 444 1165 444 1165 419.5 1059.5 c 0,19,20
 395 954 395 954 395 756 c 0,21,22
 395 557 395 557 419.5 453.5 c 0,23,24
 444 350 444 350 499.5 309 c 0,25,26
 555 268 555 268 657 268 c 0,27,28
 735 268 735 268 811 280.5 c 0,29,30
 887 293 887 293 942 311 c 0,31,-1
 942 606 l 0,32,-1
 670 606 l 0,33,-1
 670 846 l 0,34,35
 731 854 731 854 830.5 860 c 0,36,37
 930 866 930 866 1020 866 c 0,38,39
 1147 866 1147 866 1233 860 c 0,40,-1
 1233 0 l 0,41,-1
 1006 0 l 0,42,-1
 965 102 l 0,43,44
 889 57 889 57 781.5 23.5 c 0,45,46
 674 -10 674 -10 557 -10 c 0,47,48
 377 -10 377 -10 274.5 82 c 0,49,50
 172 174 172 174 132 341 c 0,51,52
 92 508 92 508 92 758 c 0,0,1
EndSplineSet
EndChar

StartChar: H
Encoding: 43 72 43
Width: 1439
VWidth: 1024
Flags: W
LayerCount: 2
Fore
SplineSet
131 1516 m 0,0,-1
 434 1516 l 0,1,-1
 434 885 l 0,2,-1
 1006 885 l 0,3,-1
 1006 1516 l 0,4,-1
 1311 1516 l 0,5,-1
 1311 0 l 0,6,-1
 1006 0 l 0,7,-1
 1006 612 l 0,8,-1
 434 612 l 0,9,-1
 434 0 l 0,10,-1
 131 0 l 0,11,-1
 131 1516 l 0,0,-1
EndSplineSet
EndChar

StartChar: I
Encoding: 44 73 44
Width: 565
VWidth: 1024
Flags: W
LayerCount: 2
Fore
SplineSet
131 1516 m 0,0,-1
 434 1516 l 0,1,-1
 434 0 l 0,2,-1
 131 0 l 0,3,-1
 131 1516 l 0,0,-1
EndSplineSet
EndChar

StartChar: J
Encoding: 45 74 45
Width: 827
VWidth: 1024
Flags: W
LayerCount: 2
Fore
SplineSet
53 29 m 0,0,-1
 53 270 l 0,1,2
 196 260 196 260 233 260 c 0,3,4
 313 260 313 260 353 297 c 0,5,6
 393 334 393 334 393 418 c 0,7,-1
 393 1516 l 0,8,-1
 696 1516 l 0,9,-1
 696 373 l 0,10,11
 696 176 696 176 603 82 c 0,12,13
 510 -12 510 -12 303 -12 c 0,14,15
 240 -12 240 -12 172 0 c 0,16,17
 104 12 104 12 53 29 c 0,0,-1
EndSplineSet
EndChar

StartChar: K
Encoding: 46 75 46
Width: 1320
VWidth: 1024
Flags: W
LayerCount: 2
Fore
SplineSet
131 1516 m 0,0,-1
 434 1516 l 0,1,-1
 434 889 l 0,2,-1
 635 889 l 0,3,-1
 946 1516 l 0,4,-1
 1270 1516 l 0,5,-1
 877 754 l 0,6,-1
 1282 0 l 0,7,-1
 958 0 l 0,8,-1
 635 614 l 0,9,-1
 434 614 l 0,10,-1
 434 0 l 0,11,-1
 131 0 l 0,12,-1
 131 1516 l 0,0,-1
EndSplineSet
EndChar

StartChar: L
Encoding: 47 76 47
Width: 1095
VWidth: 1024
Flags: W
LayerCount: 2
Fore
SplineSet
131 358 m 0,0,-1
 131 1516 l 0,1,-1
 434 1516 l 0,2,-1
 434 408 l 0,3,4
 434 275 434 275 569 274 c 0,5,-1
 1049 274 l 0,6,-1
 1049 0 l 0,7,-1
 489 0 l 0,8,9
 307 0 307 0 219 84 c 0,10,11
 131 168 131 168 131 358 c 0,0,-1
EndSplineSet
EndChar

StartChar: M
Encoding: 48 77 48
Width: 1808
VWidth: 1024
Flags: W
LayerCount: 2
Fore
SplineSet
1425 0 m 0,0,-1
 1309 991 l 0,1,-1
 1044 0 l 0,2,-1
 760 0 l 0,3,-1
 496 979 l 0,4,-1
 383 0 l 0,5,-1
 90 0 l 0,6,-1
 266 1516 l 0,7,-1
 557 1516 l 0,8,-1
 905 354 l 0,9,-1
 1251 1516 l 0,10,-1
 1540 1516 l 0,11,-1
 1718 0 l 0,12,-1
 1425 0 l 0,0,-1
EndSplineSet
EndChar

StartChar: N
Encoding: 49 78 49
Width: 1441
VWidth: 1024
Flags: W
LayerCount: 2
Fore
SplineSet
141 1516 m 0,0,-1
 385 1516 l 0,1,-1
 1020 516 l 0,2,-1
 1020 1516 l 0,3,-1
 1323 1516 l 0,4,-1
 1323 0 l 0,5,-1
 1079 0 l 0,6,-1
 446 999 l 0,7,-1
 446 0 l 0,8,-1
 141 0 l 0,9,-1
 141 1516 l 0,0,-1
EndSplineSet
EndChar

StartChar: O
Encoding: 50 79 50
Width: 1431
VWidth: 1024
Flags: W
LayerCount: 2
Fore
SplineSet
1036 756 m 0,0,1
 1036 973 1036 973 1007.5 1078.5 c 0,2,3
 979 1184 979 1184 912.5 1220.5 c 0,4,5
 846 1257 846 1257 717 1257 c 0,6,7
 590 1257 590 1257 523.5 1220.5 c 0,8,9
 457 1184 457 1184 426 1077.5 c 0,10,11
 395 971 395 971 395 756 c 0,12,13
 395 545 395 545 424 440.5 c 0,14,15
 453 336 453 336 519.5 298 c 0,16,17
 586 260 586 260 717 260 c 0,18,19
 846 260 846 260 912.5 298 c 0,20,21
 979 336 979 336 1007.5 441.5 c 0,22,23
 1036 547 1036 547 1036 756 c 0,0,1
92 756 m 0,24,25
 92 1073 92 1073 160.5 1240 c 0,26,27
 229 1407 229 1407 362.5 1468.5 c 0,28,29
 496 1530 496 1530 717 1530 c 0,30,31
 940 1530 940 1530 1072 1468.5 c 0,32,33
 1204 1407 1204 1407 1271.5 1240 c 0,34,35
 1339 1073 1339 1073 1339 756 c 0,36,37
 1339 439 1339 439 1271.5 272.5 c 0,38,39
 1204 106 1204 106 1072 47 c 0,40,41
 940 -12 940 -12 717 -12 c 0,42,43
 494 -12 494 -12 360.5 47 c 0,44,45
 227 106 227 106 159.5 272 c 0,46,47
 92 438 92 438 92 756 c 0,24,25
EndSplineSet
EndChar

StartChar: P
Encoding: 51 80 51
Width: 1271
VWidth: 1024
Flags: W
LayerCount: 2
Fore
SplineSet
735 735 m 0,0,1
 817 735 817 735 859 796.5 c 0,2,3
 901 858 901 858 901 993 c 0,4,5
 901 1243 901 1243 741 1243 c 0,6,-1
 434 1243 l 0,7,-1
 434 735 l 0,8,-1
 735 735 l 0,0,1
131 1516 m 0,9,-1
 770 1516 l 0,10,11
 960 1516 960 1516 1083 1409.5 c 0,12,13
 1206 1303 1206 1303 1206 995 c 0,14,15
 1206 463 1206 463 782 463 c 0,16,17
 716 463 716 463 612 474 c 0,18,19
 508 485 508 485 434 496 c 0,20,-1
 434 0 l 0,21,-1
 131 0 l 0,22,-1
 131 1516 l 0,9,-1
EndSplineSet
EndChar

StartChar: Q
Encoding: 52 81 52
Width: 1431
VWidth: 1024
Flags: W
LayerCount: 2
Fore
SplineSet
651 -76 m 0,0,-1
 860 -76 l 0,1,2
 872 -131 872 -131 922.5 -158.5 c 0,3,4
 973 -186 973 -186 1038 -186 c 0,5,6
 1075 -186 1075 -186 1114 -177 c 0,7,8
 1153 -168 1153 -168 1163 -166 c 0,9,-1
 1163 -389 l 0,10,11
 1153 -391 1153 -391 1117 -397 c 0,12,13
 1081 -403 1081 -403 1053 -403 c 0,14,15
 950 -403 950 -403 861 -367.5 c 0,16,17
 772 -332 772 -332 713.5 -257 c 0,18,19
 655 -182 655 -182 651 -76 c 0,0,-1
1036 756 m 0,20,21
 1036 973 1036 973 1007.5 1078.5 c 0,22,23
 979 1184 979 1184 912.5 1220.5 c 0,24,25
 846 1257 846 1257 717 1257 c 0,26,27
 590 1257 590 1257 523.5 1220.5 c 0,28,29
 457 1184 457 1184 426 1077.5 c 0,30,31
 395 971 395 971 395 756 c 0,32,33
 395 545 395 545 424 440.5 c 0,34,35
 453 336 453 336 519.5 298 c 0,36,37
 586 260 586 260 717 260 c 0,38,39
 846 260 846 260 912.5 298 c 0,40,41
 979 336 979 336 1007.5 441.5 c 0,42,43
 1036 547 1036 547 1036 756 c 0,20,21
92 756 m 0,44,45
 92 1073 92 1073 160.5 1240 c 0,46,47
 229 1407 229 1407 362.5 1468.5 c 0,48,49
 496 1530 496 1530 717 1530 c 0,50,51
 940 1530 940 1530 1072 1468.5 c 0,52,53
 1204 1407 1204 1407 1271.5 1240 c 0,54,55
 1339 1073 1339 1073 1339 756 c 0,56,57
 1339 439 1339 439 1271.5 272.5 c 0,58,59
 1204 106 1204 106 1072 47 c 0,60,61
 940 -12 940 -12 717 -12 c 0,62,63
 494 -12 494 -12 360.5 47 c 0,64,65
 227 106 227 106 159.5 272 c 0,66,67
 92 438 92 438 92 756 c 0,44,45
EndSplineSet
EndChar

StartChar: R
Encoding: 53 82 53
Width: 1284
VWidth: 1024
Flags: W
LayerCount: 2
Fore
SplineSet
705 805 m 0,0,1
 793 805 793 805 840 855 c 0,2,3
 887 905 887 905 887 1030 c 0,4,5
 887 1151 887 1151 840 1197 c 0,6,7
 793 1243 793 1243 705 1243 c 0,8,-1
 434 1243 l 0,9,-1
 434 805 l 0,10,-1
 705 805 l 0,0,1
131 1516 m 0,11,-1
 758 1516 l 0,12,13
 959 1516 959 1516 1074.5 1408 c 0,14,15
 1190 1300 1190 1300 1190 1030 c 0,16,17
 1190 840 1190 840 1125.5 747.5 c 0,18,19
 1061 655 1061 655 950 608 c 0,20,-1
 1233 0 l 0,21,-1
 924 0 l 0,22,-1
 680 561 l 0,23,24
 582 561 582 561 434 565 c 0,25,-1
 434 0 l 0,26,-1
 131 0 l 0,27,-1
 131 1516 l 0,11,-1
EndSplineSet
EndChar

StartChar: S
Encoding: 54 83 54
Width: 1206
VWidth: 1024
Flags: W
LayerCount: 2
Fore
SplineSet
113 39 m 0,0,-1
 113 279 l 0,1,2
 295 261 295 261 573 260 c 0,3,4
 698 260 698 260 761.5 294 c 0,5,6
 825 328 825 328 825 414 c 0,7,-1
 825 469 l 0,8,9
 825 537 825 537 785 572.5 c 0,10,11
 745 608 745 608 672 608 c 0,12,-1
 543 608 l 0,13,14
 318 608 318 608 206 706.5 c 0,15,16
 94 805 94 805 94 1028 c 0,17,-1
 94 1102 l 0,18,19
 94 1528 94 1528 584 1528 c 0,20,21
 699 1528 699 1528 821.5 1512.5 c 0,22,23
 944 1497 944 1497 1042 1477 c 0,24,-1
 1042 1237 l 0,25,26
 761 1255 761 1255 618 1255 c 0,27,28
 501 1255 501 1255 442 1219.5 c 0,29,30
 383 1184 383 1184 383 1087 c 0,31,-1
 383 1047 l 0,32,33
 383 969 383 969 427 933 c 0,34,35
 471 897 471 897 561 897 c 0,36,-1
 711 897 l 0,37,38
 908 897 908 897 1011 789.5 c 0,39,40
 1114 682 1114 682 1114 508 c 0,41,-1
 1114 422 l 0,42,43
 1114 250 1114 250 1050.5 154.5 c 0,44,45
 987 59 987 59 872.5 23.5 c 0,46,47
 758 -12 758 -12 588 -12 c 0,48,49
 471 -12 471 -12 338 2 c 0,50,51
 205 16 205 16 113 39 c 0,0,-1
EndSplineSet
EndChar

StartChar: T
Encoding: 55 84 55
Width: 1202
VWidth: 1024
Flags: W
LayerCount: 2
Fore
SplineSet
449 1243 m 0,0,-1
 33 1243 l 0,1,-1
 33 1516 l 0,2,-1
 1169 1516 l 0,3,-1
 1169 1243 l 0,4,-1
 752 1243 l 0,5,-1
 752 0 l 0,6,-1
 449 0 l 0,7,-1
 449 1243 l 0,0,-1
EndSplineSet
EndChar

StartChar: U
Encoding: 56 85 56
Width: 1404
VWidth: 1024
Flags: W
LayerCount: 2
Fore
SplineSet
111 487 m 0,0,-1
 111 1516 l 0,1,-1
 414 1516 l 0,2,-1
 414 489 l 0,3,4
 414 368 414 368 486.5 315 c 0,5,6
 559 262 559 262 702 262 c 0,7,8
 845 262 845 262 917 315.5 c 0,9,10
 989 369 989 369 989 489 c 0,11,-1
 989 1516 l 0,12,-1
 1294 1516 l 0,13,-1
 1294 487 l 0,14,15
 1294 204 1294 204 1139.5 97 c 0,16,17
 985 -10 985 -10 702 -10 c 0,18,19
 418 -10 418 -10 264.5 97.5 c 0,20,21
 111 205 111 205 111 487 c 0,0,-1
EndSplineSet
EndChar

StartChar: V
Encoding: 57 86 57
Width: 1402
VWidth: 1024
Flags: W
LayerCount: 2
Fore
SplineSet
35 1516 m 0,0,-1
 348 1516 l 0,1,-1
 702 328 l 0,2,-1
 1057 1516 l 0,3,-1
 1368 1516 l 0,4,-1
 893 0 l 0,5,-1
 510 0 l 0,6,-1
 35 1516 l 0,0,-1
EndSplineSet
EndChar

StartChar: W
Encoding: 58 87 58
Width: 2029
VWidth: 1024
Flags: W
LayerCount: 2
Fore
SplineSet
35 1516 m 0,0,-1
 348 1516 l 0,1,-1
 592 446 l 0,2,-1
 877 1516 l 0,3,-1
 1155 1516 l 0,4,-1
 1438 446 l 0,5,-1
 1681 1516 l 0,6,-1
 1995 1516 l 0,7,-1
 1632 0 l 0,8,-1
 1323 0 l 0,9,-1
 1016 1069 l 0,10,-1
 707 0 l 0,11,-1
 397 0 l 0,12,-1
 35 1516 l 0,0,-1
EndSplineSet
EndChar

StartChar: X
Encoding: 59 88 59
Width: 1357
VWidth: 1024
Flags: W
LayerCount: 2
Fore
SplineSet
852 743 m 0,0,-1
 1317 0 l 0,1,-1
 981 0 l 0,2,-1
 666 504 l 0,3,-1
 377 0 l 0,4,-1
 41 0 l 0,5,-1
 508 760 l 0,6,-1
 35 1516 l 0,7,-1
 371 1516 l 0,8,-1
 694 997 l 0,9,-1
 989 1516 l 0,10,-1
 1323 1516 l 0,11,-1
 852 743 l 0,0,-1
EndSplineSet
EndChar

StartChar: Y
Encoding: 60 89 60
Width: 1286
VWidth: 1024
Flags: W
LayerCount: 2
Fore
SplineSet
492 459 m 0,0,-1
 35 1516 l 0,1,-1
 350 1516 l 0,2,-1
 649 768 l 0,3,-1
 946 1516 l 0,4,-1
 1249 1516 l 0,5,-1
 795 459 l 0,6,-1
 795 0 l 0,7,-1
 492 0 l 0,8,-1
 492 459 l 0,0,-1
EndSplineSet
EndChar

StartChar: Z
Encoding: 61 90 61
Width: 1175
VWidth: 1024
Flags: W
LayerCount: 2
Fore
SplineSet
78 244 m 0,0,-1
 731 1243 l 0,1,-1
 78 1243 l 0,2,-1
 78 1516 l 0,3,-1
 1102 1516 l 0,4,-1
 1102 1274 l 0,5,-1
 449 272 l 0,6,-1
 1102 272 l 0,7,-1
 1102 0 l 0,8,-1
 78 0 l 0,9,-1
 78 244 l 0,0,-1
EndSplineSet
EndChar

StartChar: bracketleft
Encoding: 62 91 62
Width: 694
VWidth: 1024
Flags: W
LayerCount: 2
Fore
SplineSet
135 -2 m 0,0,-1
 135 1327 l 0,1,2
 135 1724 135 1724 504 1724 c 0,3,-1
 666 1724 l 0,4,-1
 666 1481 l 0,5,-1
 594 1481 l 0,6,7
 518 1481 518 1481 478 1435 c 0,8,9
 438 1389 438 1389 438 1282 c 0,10,-1
 438 12 l 0,11,12
 438 -187 438 -187 594 -186 c 0,13,-1
 666 -186 l 0,14,-1
 666 -430 l 0,15,-1
 504 -430 l 0,16,17
 291 -430 291 -430 213 -305 c 0,18,19
 135 -180 135 -180 135 -2 c 0,0,-1
EndSplineSet
EndChar

StartChar: backslash
Encoding: 63 92 63
Width: 946
VWidth: 1024
Flags: W
LayerCount: 2
Fore
SplineSet
31 1577 m 0,0,-1
 340 1577 l 0,1,-1
 915 -147 l 0,2,-1
 606 -147 l 0,3,-1
 31 1577 l 0,0,-1
EndSplineSet
EndChar

StartChar: bracketright
Encoding: 64 93 64
Width: 694
VWidth: 1024
Flags: W
LayerCount: 2
Fore
SplineSet
31 -186 m 0,0,-1
 104 -186 l 0,1,2
 258 -186 258 -186 258 12 c 0,3,-1
 258 1282 l 0,4,5
 258 1388 258 1388 218 1434.5 c 0,6,7
 178 1481 178 1481 104 1481 c 0,8,-1
 31 1481 l 0,9,-1
 31 1724 l 0,10,-1
 195 1724 l 0,11,12
 562 1724 562 1724 561 1327 c 0,13,-1
 561 -2 l 0,14,15
 561 -430 561 -430 195 -430 c 0,16,-1
 31 -430 l 0,17,-1
 31 -186 l 0,0,-1
EndSplineSet
EndChar

StartChar: asciicircum
Encoding: 65 94 65
Width: 790
VWidth: 1024
Flags: W
LayerCount: 2
Fore
SplineSet
301 1368 m 0,0,-1
 510 1368 l 0,1,-1
 711 1087 l 0,2,-1
 535 1087 l 0,3,-1
 399 1227 l 0,4,-1
 256 1087 l 0,5,-1
 80 1087 l 0,6,-1
 301 1368 l 0,0,-1
EndSplineSet
EndChar

StartChar: underscore
Encoding: 66 95 66
Width: 1247
VWidth: 1024
Flags: W
LayerCount: 2
Fore
SplineSet
0 -150 m 0,0,-1
 1247 -150 l 0,1,-1
 1247 -393 l 0,2,-1
 0 -393 l 0,3,-1
 0 -150 l 0,0,-1
EndSplineSet
EndChar

StartChar: grave
Encoding: 67 96 67
Width: 475
VWidth: 1024
Flags: W
LayerCount: 2
Fore
SplineSet
31 1579 m 0,0,-1
 276 1579 l 0,1,-1
 444 1292 l 0,2,-1
 266 1292 l 0,3,-1
 31 1579 l 0,0,-1
EndSplineSet
EndChar

StartChar: a
Encoding: 68 97 68
Width: 1126
VWidth: 1024
Flags: W
LayerCount: 2
Fore
SplineSet
713 252 m 0,0,-1
 713 508 l 0,1,-1
 528 496 l 0,2,3
 372 484 372 484 373 360 c 0,4,-1
 373 315 l 0,5,6
 373 198 373 198 508 199 c 0,7,8
 555 199 555 199 624.5 220.5 c 0,9,10
 694 242 694 242 713 252 c 0,0,-1
70 266 m 0,11,-1
 70 365 l 0,12,13
 70 496 70 496 161 573.5 c 0,14,15
 252 651 252 651 432 651 c 0,16,-1
 713 651 l 0,17,-1
 713 727 l 0,18,19
 713 782 713 782 694.5 814 c 0,20,21
 676 846 676 846 624.5 861.5 c 0,22,23
 573 877 573 877 473 877 c 0,24,-1
 143 877 l 0,25,-1
 143 1053 l 0,26,27
 346 1114 346 1114 584 1114 c 0,28,29
 801 1114 801 1114 908.5 1032 c 0,30,31
 1016 950 1016 950 1016 748 c 0,32,-1
 1016 0 l 0,33,-1
 776 0 l 0,34,-1
 727 117 l 0,35,36
 704 94 704 94 647 63.5 c 0,37,38
 590 33 590 33 511 10.5 c 0,39,40
 432 -12 432 -12 350 -12 c 0,41,42
 223 -12 223 -12 146.5 62.5 c 0,43,44
 70 137 70 137 70 266 c 0,11,-1
EndSplineSet
EndChar

StartChar: b
Encoding: 69 98 69
Width: 1198
VWidth: 1024
Flags: W
LayerCount: 2
Fore
SplineSet
811 553 m 0,0,1
 811 686 811 686 786.5 756.5 c 0,2,3
 762 827 762 827 722 849.5 c 0,4,5
 682 872 682 872 627 872 c 0,6,7
 527 872 527 872 420 811 c 0,8,-1
 420 289 l 0,9,10
 518 236 518 236 627 236 c 0,11,12
 715 236 715 236 763 307.5 c 0,13,14
 811 379 811 379 811 553 c 0,0,1
420 104 m 0,15,-1
 371 0 l 0,16,-1
 117 0 l 0,17,-1
 117 1563 l 0,18,-1
 420 1563 l 0,19,-1
 420 1024 l 0,20,21
 492 1063 492 1063 573.5 1089.5 c 0,22,23
 655 1116 655 1116 725 1116 c 0,24,25
 866 1116 866 1116 951 1057.5 c 0,26,27
 1036 999 1036 999 1075 873.5 c 0,28,29
 1114 748 1114 748 1114 539 c 0,30,31
 1114 260 1114 260 1022 124 c 0,32,33
 930 -12 930 -12 739 -12 c 0,34,35
 639 -12 639 -12 564 18.5 c 0,36,37
 489 49 489 49 420 104 c 0,15,-1
EndSplineSet
EndChar

StartChar: c
Encoding: 70 99 70
Width: 1003
VWidth: 1024
Flags: W
LayerCount: 2
Fore
SplineSet
84 545 m 0,0,1
 84 764 84 764 137 889 c 0,2,3
 190 1014 190 1014 292.5 1065 c 0,4,5
 395 1116 395 1116 553 1116 c 0,6,7
 752 1116 752 1116 936 1065 c 0,8,-1
 936 891 l 0,9,-1
 647 891 l 0,10,11
 549 891 549 891 493.5 862.5 c 0,12,13
 438 834 438 834 412.5 760 c 0,14,15
 387 686 387 686 387 547 c 0,16,17
 387 410 387 410 412.5 339 c 0,18,19
 438 268 438 268 493.5 242.5 c 0,20,21
 549 217 549 217 651 217 c 0,22,-1
 952 217 l 0,23,-1
 952 45 l 0,24,25
 874 20 874 20 761.5 4 c 0,26,27
 649 -12 649 -12 545 -12 c 0,28,29
 326 -12 326 -12 205 113 c 0,30,31
 84 238 84 238 84 545 c 0,0,1
EndSplineSet
EndChar

StartChar: d
Encoding: 71 100 71
Width: 1193
VWidth: 1024
Flags: W
LayerCount: 2
Fore
SplineSet
778 293 m 0,0,-1
 778 846 l 0,1,2
 725 866 725 866 683 877.5 c 0,3,4
 641 889 641 889 596 889 c 0,5,6
 516 889 516 889 472 861.5 c 0,7,8
 428 834 428 834 407.5 761 c 0,9,10
 387 688 387 688 387 553 c 0,11,12
 387 424 387 424 406.5 355.5 c 0,13,14
 426 287 426 287 468 259 c 0,15,16
 510 231 510 231 584 231 c 0,17,18
 682 232 682 232 778 293 c 0,0,-1
84 539 m 0,19,20
 84 748 84 748 122 872.5 c 0,21,22
 160 997 160 997 250 1056.5 c 0,23,24
 340 1116 340 1116 498 1116 c 0,25,26
 633 1116 633 1116 778 1065 c 0,27,-1
 778 1563 l 0,28,-1
 1083 1563 l 0,29,-1
 1083 0 l 0,30,-1
 827 0 l 0,31,-1
 778 104 l 0,32,33
 721 55 721 55 639 21.5 c 0,34,35
 557 -12 557 -12 477 -12 c 0,36,37
 279 -12 279 -12 181.5 117 c 0,38,39
 84 246 84 246 84 539 c 0,19,20
EndSplineSet
EndChar

StartChar: e
Encoding: 72 101 72
Width: 1099
VWidth: 1024
Flags: W
LayerCount: 2
Fore
SplineSet
631 623 m 0,0,1
 694 623 694 623 722 648.5 c 0,2,3
 750 674 750 674 750 735 c 0,4,5
 750 825 750 825 709 861 c 0,6,7
 668 897 668 897 569 897 c 0,8,9
 497 897 497 897 457.5 873.5 c 0,10,11
 418 850 418 850 399.5 790.5 c 0,12,13
 381 731 381 731 381 623 c 0,14,-1
 631 623 l 0,0,1
84 549 m 0,15,16
 84 774 84 774 129 896 c 0,17,18
 174 1018 174 1018 277.5 1067 c 0,19,20
 381 1116 381 1116 569 1116 c 0,21,22
 737 1116 737 1116 833.5 1083.5 c 0,23,24
 930 1051 930 1051 974 969 c 0,25,26
 1018 887 1018 887 1018 737 c 0,27,28
 1018 577 1018 577 927 509.5 c 0,29,30
 836 442 836 442 662 442 c 0,31,-1
 385 442 l 0,32,33
 389 354 389 354 411.5 306 c 0,34,35
 434 258 434 258 491.5 236.5 c 0,36,37
 549 215 549 215 659 215 c 0,38,-1
 981 215 l 0,39,-1
 981 37 l 0,40,41
 872 14 872 14 784 2 c 0,42,43
 696 -10 696 -10 580 -10 c 0,44,45
 393 -10 393 -10 286.5 39 c 0,46,47
 180 88 180 88 132 209 c 0,48,49
 84 330 84 330 84 549 c 0,15,16
EndSplineSet
EndChar

StartChar: f
Encoding: 73 102 73
Width: 804
VWidth: 1024
Flags: W
LayerCount: 2
Fore
SplineSet
193 856 m 0,0,-1
 37 856 l 0,1,-1
 37 1051 l 0,2,-1
 193 1100 l 0,3,-1
 193 1174 l 0,4,5
 193 1385 193 1385 279 1480 c 0,6,7
 365 1575 365 1575 559 1575 c 0,8,9
 676 1575 676 1575 786 1544 c 0,10,-1
 786 1327 l 0,11,-1
 618 1327 l 0,12,13
 548 1327 548 1327 523 1295.5 c 0,14,15
 498 1264 498 1264 498 1190 c 0,16,-1
 498 1100 l 0,17,-1
 776 1100 l 0,18,-1
 776 856 l 0,19,-1
 498 856 l 0,20,-1
 498 0 l 0,21,-1
 193 0 l 0,22,-1
 193 856 l 0,0,-1
EndSplineSet
EndChar

StartChar: g
Encoding: 74 103 74
Width: 1191
VWidth: 1024
Flags: W
LayerCount: 2
Fore
SplineSet
481 -27 m 0,0,1
 411 -27 411 -27 369.5 -59.5 c 0,2,3
 328 -92 328 -92 328 -152 c 0,4,-1
 328 -174 l 0,5,6
 328 -233 328 -233 368 -264 c 0,7,8
 408 -295 408 -295 485 -295 c 0,9,-1
 694 -295 l 0,10,11
 772 -295 772 -295 817 -265.5 c 0,12,13
 862 -236 862 -236 862 -176 c 0,14,-1
 862 -143 l 0,15,16
 862 -88 862 -88 822 -57.5 c 0,17,18
 782 -27 782 -27 702 -27 c 0,19,-1
 481 -27 l 0,0,1
795 717 m 0,20,21
 795 801 795 801 758 836.5 c 0,22,23
 721 872 721 872 645 872 c 0,24,-1
 530 872 l 0,25,26
 450 872 450 872 412.5 837.5 c 0,27,28
 375 803 375 803 375 721 c 0,29,30
 375 641 375 641 410.5 603 c 0,31,32
 446 565 446 565 520 565 c 0,33,-1
 637 565 l 0,34,35
 725 565 725 565 760 604 c 0,36,37
 795 643 795 643 795 717 c 0,20,21
1155 934 m 0,38,-1
 987 903 l 0,39,40
 1024 864 1024 864 1046.5 813 c 0,41,42
 1069 762 1069 762 1069 674 c 0,43,44
 1069 520 1069 520 973 429 c 0,45,46
 877 338 877 338 672 338 c 0,47,-1
 477 338 l 0,48,49
 352 338 352 338 352 262 c 0,50,51
 352 229 352 229 380 215 c 0,52,53
 408 201 408 201 449 201 c 0,54,-1
 752 201 l 0,55,56
 949 201 949 201 1049 122 c 0,57,58
 1149 43 1149 43 1149 -129 c 0,59,-1
 1149 -160 l 0,60,61
 1149 -326 1149 -326 1044.5 -417 c 0,62,63
 940 -508 940 -508 731 -508 c 0,64,-1
 401 -508 l 0,65,66
 241 -508 241 -508 141 -438.5 c 0,67,68
 41 -369 41 -369 41 -244 c 0,69,-1
 41 -211 l 0,70,71
 41 -129 41 -129 86 -67.5 c 0,72,73
 131 -6 131 -6 207 29 c 0,74,75
 96 95 96 95 96 211 c 0,76,77
 96 293 96 293 144.5 349.5 c 0,78,79
 193 406 193 406 279 426 c 0,80,81
 187 475 187 475 144.5 557 c 0,82,83
 102 639 102 639 102 741 c 0,84,85
 102 923 102 923 215 1011.5 c 0,86,87
 328 1100 328 1100 559 1100 c 0,88,-1
 1155 1100 l 0,89,-1
 1155 934 l 0,38,-1
EndSplineSet
EndChar

StartChar: h
Encoding: 75 104 75
Width: 1218
VWidth: 1024
Flags: W
LayerCount: 2
Fore
SplineSet
117 1561 m 0,0,-1
 420 1561 l 0,1,-1
 420 987 l 0,2,3
 481 1040 481 1040 578.5 1079 c 0,4,5
 676 1118 676 1118 770 1118 c 0,6,7
 1108 1118 1108 1118 1108 727 c 0,8,-1
 1108 0 l 0,9,-1
 805 0 l 0,10,-1
 805 688 l 0,11,12
 805 764 805 764 762 805 c 0,13,14
 719 846 719 846 647 846 c 0,15,16
 534 846 534 846 420 764 c 0,17,-1
 420 0 l 0,18,-1
 117 0 l 0,19,-1
 117 1561 l 0,0,-1
EndSplineSet
EndChar

StartChar: i
Encoding: 76 105 76
Width: 536
VWidth: 1024
Flags: W
LayerCount: 2
Fore
SplineSet
117 1100 m 0,0,-1
 420 1100 l 0,1,-1
 420 0 l 0,2,-1
 117 0 l 0,3,-1
 117 1100 l 0,0,-1
111 1303 m 0,4,-1
 111 1503 l 0,5,6
 111 1546 111 1546 154 1546 c 0,7,-1
 387 1546 l 0,8,9
 405 1546 405 1546 415.5 1534 c 0,10,11
 426 1522 426 1522 426 1503 c 0,12,-1
 426 1303 l 0,13,14
 426 1262 426 1262 387 1262 c 0,15,-1
 154 1262 l 0,16,17
 133 1262 133 1262 122 1273 c 0,18,19
 111 1284 111 1284 111 1303 c 0,4,-1
EndSplineSet
EndChar

StartChar: j
Encoding: 77 106 77
Width: 536
VWidth: 1024
Flags: W
LayerCount: 2
Fore
SplineSet
117 1100 m 0,0,-1
 420 1100 l 0,1,-1
 420 8 l 0,2,3
 420 -121 420 -121 399.5 -256 c 0,4,5
 379 -391 379 -391 346 -485 c 0,6,-1
 117 -485 l 0,7,-1
 117 1100 l 0,0,-1
109 1303 m 0,8,-1
 109 1503 l 0,9,10
 109 1546 109 1546 152 1546 c 0,11,-1
 385 1546 l 0,12,13
 403 1546 403 1546 413.5 1534 c 0,14,15
 424 1522 424 1522 424 1503 c 0,16,-1
 424 1303 l 0,17,18
 424 1262 424 1262 385 1262 c 0,19,-1
 152 1262 l 0,20,21
 133 1262 133 1262 121 1273 c 0,22,23
 109 1284 109 1284 109 1303 c 0,8,-1
EndSplineSet
EndChar

StartChar: k
Encoding: 78 107 78
Width: 1134
VWidth: 1024
Flags: W
LayerCount: 2
Fore
SplineSet
117 1563 m 0,0,-1
 420 1563 l 0,1,-1
 420 719 l 0,2,-1
 549 719 l 0,3,-1
 791 1100 l 0,4,-1
 1098 1100 l 0,5,-1
 774 582 l 0,6,-1
 1130 0 l 0,7,-1
 823 0 l 0,8,-1
 545 446 l 0,9,-1
 420 446 l 0,10,-1
 420 0 l 0,11,-1
 117 0 l 0,12,-1
 117 1563 l 0,0,-1
EndSplineSet
EndChar

StartChar: l
Encoding: 79 108 79
Width: 641
VWidth: 1024
Flags: W
LayerCount: 2
Fore
SplineSet
117 354 m 0,0,-1
 117 1563 l 0,1,-1
 420 1563 l 0,2,-1
 420 399 l 0,3,4
 420 311 420 311 446.5 273.5 c 0,5,6
 473 236 473 236 535 227 c 0,7,-1
 618 215 l 0,8,-1
 618 -4 l 0,9,-1
 461 -4 l 0,10,11
 287 -4 287 -4 202 83 c 0,12,13
 117 170 117 170 117 354 c 0,0,-1
EndSplineSet
EndChar

StartChar: m
Encoding: 80 109 80
Width: 1906
VWidth: 1024
Flags: W
LayerCount: 2
Fore
SplineSet
117 1100 m 0,0,-1
 367 1100 l 0,1,-1
 420 987 l 0,2,3
 504 1050 504 1050 588 1084 c 0,4,5
 672 1118 672 1118 786 1118 c 0,6,7
 886 1118 886 1118 956 1076 c 0,8,9
 1026 1034 1026 1034 1063 963 c 0,10,11
 1147 1026 1147 1026 1249.5 1072 c 0,12,13
 1352 1118 1352 1118 1448 1118 c 0,14,15
 1636 1118 1636 1118 1716 1013.5 c 0,16,17
 1796 909 1796 909 1796 713 c 0,18,-1
 1796 0 l 0,19,-1
 1493 0 l 0,20,-1
 1493 686 l 0,21,22
 1493 764 1493 764 1451 805 c 0,23,24
 1409 846 1409 846 1335 846 c 0,25,26
 1276 846 1276 846 1213.5 821.5 c 0,27,28
 1151 797 1151 797 1100 760 c 0,29,30
 1108 707 1108 707 1108 680 c 0,31,-1
 1108 0 l 0,32,-1
 805 0 l 0,33,-1
 805 686 l 0,34,35
 805 764 805 764 763 805 c 0,36,37
 721 846 721 846 647 846 c 0,38,39
 534 846 534 846 420 764 c 0,40,-1
 420 0 l 0,41,-1
 117 0 l 0,42,-1
 117 1100 l 0,0,-1
EndSplineSet
EndChar

StartChar: n
Encoding: 81 110 81
Width: 1218
VWidth: 1024
Flags: W
LayerCount: 2
Fore
SplineSet
117 1100 m 0,0,-1
 367 1100 l 0,1,-1
 420 987 l 0,2,3
 488 1042 488 1042 582 1080 c 0,4,5
 676 1118 676 1118 766 1118 c 0,6,7
 952 1118 952 1118 1030 1011.5 c 0,8,9
 1108 905 1108 905 1108 725 c 0,10,-1
 1108 0 l 0,11,-1
 805 0 l 0,12,-1
 805 686 l 0,13,14
 805 764 805 764 763 805 c 0,15,16
 721 846 721 846 647 846 c 0,17,18
 534 846 534 846 420 764 c 0,19,-1
 420 0 l 0,20,-1
 117 0 l 0,21,-1
 117 1100 l 0,0,-1
EndSplineSet
EndChar

StartChar: o
Encoding: 82 111 82
Width: 1177
VWidth: 1024
Flags: W
LayerCount: 2
Fore
SplineSet
791 553 m 0,0,1
 791 694 791 694 770.5 762.5 c 0,2,3
 750 831 750 831 709 852.5 c 0,4,5
 668 874 668 874 588 874 c 0,6,7
 510 874 510 874 469 852.5 c 0,8,9
 428 831 428 831 407.5 762.5 c 0,10,11
 387 694 387 694 387 553 c 0,12,13
 387 412 387 412 407.5 343 c 0,14,15
 428 274 428 274 469 252.5 c 0,16,17
 510 231 510 231 588 231 c 0,18,19
 668 231 668 231 709 252.5 c 0,20,21
 750 274 750 274 770.5 343 c 0,22,23
 791 412 791 412 791 553 c 0,0,1
84 553 m 0,24,25
 84 776 84 776 134 898 c 0,26,27
 184 1020 184 1020 292.5 1068 c 0,28,29
 401 1116 401 1116 588 1116 c 0,30,31
 776 1116 776 1116 884.5 1066 c 0,32,33
 993 1016 993 1016 1043.5 894 c 0,34,35
 1094 772 1094 772 1094 553 c 0,36,37
 1094 334 1094 334 1044.5 212 c 0,38,39
 995 90 995 90 886.5 40 c 0,40,41
 778 -10 778 -10 588 -10 c 0,42,43
 401 -10 401 -10 292.5 42 c 0,44,45
 184 94 184 94 134 216 c 0,46,47
 84 338 84 338 84 553 c 0,24,25
EndSplineSet
EndChar

StartChar: p
Encoding: 83 112 83
Width: 1198
VWidth: 1024
Flags: W
LayerCount: 2
Fore
SplineSet
811 549 m 0,0,1
 811 725 811 725 762 798.5 c 0,2,3
 713 872 713 872 627 872 c 0,4,5
 525 872 525 872 420 811 c 0,6,-1
 420 289 l 0,7,8
 459 264 459 264 515 250 c 0,9,10
 571 236 571 236 627 236 c 0,11,12
 711 236 711 236 761 304.5 c 0,13,14
 811 373 811 373 811 549 c 0,0,1
117 1100 m 0,15,-1
 371 1100 l 0,16,-1
 420 995 l 0,17,18
 574 1116 574 1116 725 1116 c 0,19,20
 924 1116 924 1116 1019 968.5 c 0,21,22
 1114 821 1114 821 1114 549 c 0,23,24
 1114 266 1114 266 1027 126 c 0,25,26
 940 -14 940 -14 725 -14 c 0,27,28
 647 -14 647 -14 566 4.5 c 0,29,30
 485 23 485 23 420 57 c 0,31,-1
 420 -485 l 0,32,-1
 117 -485 l 0,33,-1
 117 1100 l 0,15,-1
EndSplineSet
EndChar

StartChar: q
Encoding: 84 113 84
Width: 1193
VWidth: 1024
Flags: W
LayerCount: 2
Fore
SplineSet
778 293 m 0,0,-1
 778 889 l 0,1,-1
 596 889 l 0,2,3
 481 889 481 889 434 811 c 0,4,5
 387 733 387 733 387 559 c 0,6,7
 387 428 387 428 405.5 357.5 c 0,8,9
 424 287 424 287 464 259 c 0,10,11
 504 231 504 231 573 231 c 0,12,13
 621 231 621 231 679 249.5 c 0,14,15
 737 268 737 268 778 293 c 0,0,-1
778 104 m 0,16,17
 717 53 717 53 637 20.5 c 0,18,19
 557 -12 557 -12 485 -12 c 0,20,21
 335 -12 335 -12 247.5 47 c 0,22,23
 160 106 160 106 122 228 c 0,24,25
 84 350 84 350 84 549 c 0,26,27
 84 758 84 758 129 883 c 0,28,29
 174 1008 174 1008 265 1062 c 0,30,31
 356 1116 356 1116 504 1116 c 0,32,33
 641 1116 641 1116 801 1103 c 0,34,35
 961 1090 961 1090 1083 1073 c 0,36,-1
 1083 -485 l 0,37,-1
 778 -485 l 0,38,-1
 778 104 l 0,16,17
EndSplineSet
EndChar

StartChar: r
Encoding: 85 114 85
Width: 866
VWidth: 1024
Flags: W
LayerCount: 2
Fore
SplineSet
117 1100 m 0,0,-1
 350 1100 l 0,1,-1
 420 932 l 0,2,3
 486 1018 486 1018 560.5 1066 c 0,4,5
 635 1114 635 1114 731 1114 c 0,6,7
 784 1114 784 1114 821 1104 c 0,8,-1
 821 793 l 0,9,10
 715 803 715 803 692 803 c 0,11,12
 604 803 604 803 540.5 774 c 0,13,14
 477 745 477 745 420 684 c 0,15,-1
 420 0 l 0,16,-1
 117 0 l 0,17,-1
 117 1100 l 0,0,-1
EndSplineSet
EndChar

StartChar: s
Encoding: 86 115 86
Width: 1034
VWidth: 1024
Flags: W
LayerCount: 2
Fore
SplineSet
90 37 m 0,0,-1
 90 215 l 0,1,-1
 578 215 l 0,2,3
 646 215 646 215 674 233.5 c 0,4,5
 702 252 702 252 702 305 c 0,6,-1
 702 340 l 0,7,8
 702 383 702 383 674.5 404.5 c 0,9,10
 647 426 647 426 578 426 c 0,11,-1
 406 426 l 0,12,13
 252 426 252 426 162 496.5 c 0,14,15
 72 567 72 567 72 725 c 0,16,-1
 72 788 l 0,17,18
 72 952 72 952 171 1031 c 0,19,20
 270 1110 270 1110 514 1110 c 0,21,22
 614 1110 614 1110 733 1094.5 c 0,23,24
 852 1079 852 1079 913 1059 c 0,25,-1
 913 881 l 0,26,-1
 453 881 l 0,27,28
 390 881 390 881 361 860.5 c 0,29,30
 332 840 332 840 332 788 c 0,31,-1
 332 756 l 0,32,33
 332 705 332 705 362.5 687.5 c 0,34,35
 393 670 393 670 465 670 c 0,36,-1
 641 670 l 0,37,38
 805 670 805 670 884 595 c 0,39,40
 963 520 963 520 963 381 c 0,41,-1
 963 283 l 0,42,43
 963 121 963 121 852 54.5 c 0,44,45
 741 -12 741 -12 516 -12 c 0,46,47
 403 -12 403 -12 279.5 1 c 0,48,49
 156 14 156 14 90 37 c 0,0,-1
EndSplineSet
EndChar

StartChar: t
Encoding: 87 116 87
Width: 796
VWidth: 1024
Flags: W
LayerCount: 2
Fore
SplineSet
184 391 m 0,0,-1
 195 856 l 0,1,-1
 23 856 l 0,2,-1
 23 1051 l 0,3,-1
 205 1100 l 0,4,-1
 246 1407 l 0,5,-1
 485 1407 l 0,6,-1
 485 1100 l 0,7,-1
 743 1100 l 0,8,-1
 743 856 l 0,9,-1
 485 856 l 0,10,-1
 485 393 l 0,11,12
 485 311 485 311 514 278.5 c 0,13,14
 543 246 543 246 594 238 c 0,15,-1
 733 225 l 0,16,-1
 733 0 l 0,17,-1
 535 0 l 0,18,19
 406 0 406 0 328 37 c 0,20,21
 250 74 250 74 215 160 c 0,22,23
 180 246 180 246 184 391 c 0,0,-1
EndSplineSet
EndChar

StartChar: u
Encoding: 88 117 88
Width: 1218
VWidth: 1024
Flags: W
LayerCount: 2
Fore
SplineSet
113 322 m 0,0,-1
 113 1100 l 0,1,-1
 416 1100 l 0,2,-1
 416 412 l 0,3,4
 416 324 416 324 456 290 c 0,5,6
 496 256 496 256 575 256 c 0,7,8
 632 256 632 256 693 277.5 c 0,9,10
 754 299 754 299 801 336 c 0,11,-1
 801 1100 l 0,12,-1
 1106 1100 l 0,13,-1
 1106 0 l 0,14,-1
 854 0 l 0,15,-1
 801 113 l 0,16,17
 611 -12 611 -12 428 -12 c 0,18,19
 279 -12 279 -12 196 76 c 0,20,21
 113 164 113 164 113 322 c 0,0,-1
EndSplineSet
EndChar

StartChar: v
Encoding: 89 118 89
Width: 1155
VWidth: 1024
Flags: W
LayerCount: 2
Fore
SplineSet
25 1100 m 0,0,-1
 338 1100 l 0,1,-1
 575 281 l 0,2,-1
 819 1100 l 0,3,-1
 1128 1100 l 0,4,-1
 743 0 l 0,5,-1
 393 0 l 0,6,-1
 25 1100 l 0,0,-1
EndSplineSet
EndChar

StartChar: w
Encoding: 90 119 90
Width: 1691
VWidth: 1024
Flags: W
LayerCount: 2
Fore
SplineSet
25 1100 m 0,0,-1
 338 1100 l 0,1,-1
 512 281 l 0,2,-1
 729 1100 l 0,3,-1
 979 1100 l 0,4,-1
 1196 281 l 0,5,-1
 1354 1100 l 0,6,-1
 1667 1100 l 0,7,-1
 1380 0 l 0,8,-1
 1044 0 l 0,9,-1
 848 670 l 0,10,-1
 645 0 l 0,11,-1
 315 0 l 0,12,-1
 25 1100 l 0,0,-1
EndSplineSet
EndChar

StartChar: x
Encoding: 91 120 91
Width: 1107
VWidth: 1024
Flags: W
LayerCount: 2
Fore
SplineSet
719 532 m 0,0,-1
 1092 0 l 0,1,-1
 784 0 l 0,2,-1
 543 346 l 0,3,-1
 326 0 l 0,4,-1
 18 0 l 0,5,-1
 391 565 l 0,6,-1
 18 1100 l 0,7,-1
 324 1100 l 0,8,-1
 567 752 l 0,9,-1
 784 1100 l 0,10,-1
 1092 1100 l 0,11,-1
 719 532 l 0,0,-1
EndSplineSet
EndChar

StartChar: y
Encoding: 92 121 92
Width: 1165
VWidth: 1024
Flags: W
LayerCount: 2
Fore
SplineSet
580 0 m 0,0,1
 308 0 308 0 231 295 c 0,2,-1
 25 1100 l 0,3,-1
 340 1100 l 0,4,-1
 514 356 l 0,5,6
 530 288 530 288 563 270 c 0,7,8
 596 252 596 252 633 248 c 0,9,-1
 831 1100 l 0,10,-1
 1139 1100 l 0,11,-1
 811 -283 l 0,12,-1
 713 -485 l 0,13,-1
 461 -485 l 0,14,-1
 580 0 l 0,0,1
EndSplineSet
EndChar

StartChar: z
Encoding: 93 122 93
Width: 1034
VWidth: 1024
Flags: W
LayerCount: 2
Fore
SplineSet
92 219 m 0,0,-1
 610 856 l 0,1,-1
 72 856 l 0,2,-1
 72 1100 l 0,3,-1
 963 1100 l 0,4,-1
 963 881 l 0,5,-1
 442 244 l 0,6,-1
 963 244 l 0,7,-1
 963 0 l 0,8,-1
 92 0 l 0,9,-1
 92 219 l 0,0,-1
EndSplineSet
EndChar

StartChar: braceleft
Encoding: 94 123 94
Width: 649
VWidth: 1024
Flags: W
LayerCount: 2
Fore
SplineSet
168 -78 m 0,0,-1
 168 424 l 0,1,2
 168 481 168 481 130 514 c 0,3,4
 92 547 92 547 31 543 c 0,5,-1
 31 823 l 0,6,7
 170 835 170 835 170 942 c 0,8,-1
 170 1343 l 0,9,10
 170 1724 170 1724 618 1724 c 0,11,-1
 618 1481 l 0,12,13
 561 1481 561 1481 531.5 1458.5 c 0,14,15
 502 1436 502 1436 488.5 1381.5 c 0,16,17
 475 1327 475 1327 475 1225 c 0,18,-1
 475 891 l 0,19,20
 475 701 475 701 272 684 c 0,21,22
 364 668 364 668 418.5 615.5 c 0,23,24
 473 563 473 563 473 483 c 0,25,-1
 473 27 l 0,26,27
 473 -98 473 -98 502.5 -150.5 c 0,28,29
 532 -203 532 -203 618 -203 c 0,30,-1
 618 -430 l 0,31,32
 369 -430 369 -430 268.5 -344 c 0,33,34
 168 -258 168 -258 168 -78 c 0,0,-1
EndSplineSet
EndChar

StartChar: bar
Encoding: 95 124 95
Width: 514
VWidth: 1024
Flags: W
LayerCount: 2
Fore
SplineSet
135 1577 m 0,0,-1
 379 1577 l 0,1,-1
 379 -147 l 0,2,-1
 135 -147 l 0,3,-1
 135 1577 l 0,0,-1
EndSplineSet
EndChar

StartChar: braceright
Encoding: 96 125 96
Width: 649
VWidth: 1024
Flags: W
LayerCount: 2
Fore
SplineSet
31 -203 m 0,0,1
 117 -203 117 -203 146.5 -150.5 c 0,2,3
 176 -98 176 -98 176 27 c 0,4,-1
 176 483 l 0,5,6
 176 563 176 563 230.5 615.5 c 0,7,8
 285 668 285 668 377 684 c 0,9,10
 174 700 174 700 174 891 c 0,11,-1
 174 1225 l 0,12,13
 174 1329 174 1329 162 1383.5 c 0,14,15
 150 1438 150 1438 119 1459.5 c 0,16,17
 88 1481 88 1481 31 1481 c 0,18,-1
 31 1724 l 0,19,20
 480 1724 480 1724 479 1343 c 0,21,-1
 479 942 l 0,22,23
 479 836 479 836 618 823 c 0,24,-1
 618 543 l 0,25,26
 557 547 557 547 519 514 c 0,27,28
 481 481 481 481 481 424 c 0,29,-1
 481 -78 l 0,30,31
 481 -258 481 -258 381 -344 c 0,32,33
 281 -430 281 -430 31 -430 c 0,34,-1
 31 -203 l 0,0,1
EndSplineSet
EndChar

StartChar: asciitilde
Encoding: 97 126 97
Width: 866
VWidth: 1024
Flags: W
LayerCount: 2
Fore
SplineSet
408 1147 m 0,0,1
 334 1186 334 1186 303 1186 c 0,2,3
 258 1186 258 1186 218 1166.5 c 0,4,5
 178 1147 178 1147 123 1106 c 0,6,-1
 80 1210 l 0,7,8
 195 1353 195 1353 322 1354 c 0,9,10
 355 1354 355 1354 387.5 1340.5 c 0,11,12
 420 1327 420 1327 465 1303 c 0,13,14
 533 1262 533 1262 565 1262 c 0,15,16
 610 1262 610 1262 658.5 1287.5 c 0,17,18
 707 1313 707 1313 743 1350 c 0,19,-1
 786 1235 l 0,20,21
 680 1094 680 1094 561 1094 c 0,22,23
 528 1094 528 1094 494.5 1107 c 0,24,25
 461 1120 461 1120 408 1147 c 0,0,1
EndSplineSet
EndChar

StartChar: inherent
Encoding: 98 -1 98
Width: 352
Flags: W
LayerCount: 2
Fore
SplineSet
375 1505 m 2,0,1
 375 1382 375 1382 262 1294 c 1,2,3
 209 1249 209 1249 143.5 1227.5 c 128,-1,4
 78 1206 78 1206 -16 1206 c 1,5,-1
 -16 1423 l 1,6,7
 43 1423 43 1423 66 1452 c 1,8,9
 99 1477 99 1477 98 1505 c 2,10,-1
 98 1651 l 1,11,-1
 375 1651 l 1,12,-1
 375 1505 l 2,0,1
EndSplineSet
EndChar

StartChar: makewide
Encoding: 99 -1 99
Width: 710
Flags: W
LayerCount: 2
Fore
SplineSet
940 283 m 2,0,1
 940 174 940 174 864 87 c 128,-1,2
 788 0 788 0 684 0 c 2,3,-1
 379 2 l 2,4,5
 326 2 326 2 278.5 15.5 c 128,-1,6
 231 29 231 29 176 57.5 c 128,-1,7
 121 86 121 86 84 121 c 128,-1,8
 47 156 47 156 -6 217 c 1,9,-1
 -6 532 l 1,10,-1
 33 541 l 1,11,12
 103 398 103 398 212.5 312.5 c 128,-1,13
 322 227 322 227 422 227 c 2,14,-1
 612 227 l 2,15,16
 635 227 635 227 643 250 c 1,17,18
 661 283 661 283 662 313 c 2,19,-1
 662 1006 l 2,20,21
 662 1065 662 1065 616 1116 c 1,22,23
 573 1155 573 1155 506 1155 c 2,24,-1
 283 1155 l 1,25,-1
 283 1386 l 1,26,-1
 788 1386 l 1,27,-1
 846 1192 l 1,28,29
 940 1110 940 1110 940 1016 c 2,30,-1
 940 283 l 2,0,1
EndSplineSet
EndChar

StartChar: shortrr
Encoding: 100 -1 100
Width: 1681
Flags: W
LayerCount: 2
Fore
SplineSet
1724 1165 m 1,0,-1
 721 1165 l 2,1,2
 682 1165 682 1165 660.5 1150 c 128,-1,3
 639 1135 639 1135 639 1110 c 2,4,-1
 637 950 l 1,5,6
 641 911 641 911 675 885.5 c 128,-1,7
 709 860 709 860 752 860 c 2,8,-1
 1137 860 l 1,9,-1
 1137 629 l 1,10,-1
 752 629 l 2,11,12
 701 629 701 629 670 606.5 c 128,-1,13
 639 584 639 584 639 545 c 2,14,-1
 637 344 l 1,15,16
 641 299 641 299 663.5 271.5 c 128,-1,17
 686 244 686 244 705 242 c 1,18,-1
 901 242 l 1,19,-1
 901 10 l 1,20,-1
 612 10 l 2,21,22
 512 10 512 10 435 80 c 128,-1,23
 358 150 358 150 358 246 c 2,24,-1
 358 561 l 2,25,26
 358 637 358 637 416 698 c 0,27,28
 430 712 430 712 455.5 726.5 c 128,-1,29
 481 741 481 741 500 752 c 1,30,31
 477 760 477 760 467 768 c 0,32,33
 430 793 430 793 416 801 c 1,34,35
 359 862 359 862 358 934 c 2,36,-1
 358 1178 l 2,37,38
 358 1282 358 1282 440 1335 c 1,39,40
 510 1394 510 1394 629 1395 c 2,41,-1
 1718 1395 l 1,42,-1
 1724 1165 l 1,0,-1
EndSplineSet
EndChar

StartChar: anusvara
Encoding: 101 3202 101
Width: 1609
Flags: W
LayerCount: 2
Fore
SplineSet
1634 319 m 2,0,1
 1634 192 1634 192 1550 97 c 128,-1,2
 1466 2 1466 2 1348 2 c 2,3,-1
 705 2 l 2,4,5
 566 2 566 2 465 106 c 1,6,7
 363 200 363 200 362 346 c 2,8,-1
 362 1096 l 2,9,10
 362 1225 362 1225 465 1311 c 1,11,12
 510 1354 510 1354 569.5 1375.5 c 128,-1,13
 629 1397 629 1397 702 1397 c 2,14,-1
 1288 1397 l 2,15,16
 1431 1397 1431 1397 1532.5 1302.5 c 128,-1,17
 1634 1208 1634 1208 1634 1071 c 2,18,-1
 1634 319 l 2,0,1
1358 365 m 1,19,-1
 1358 1055 l 2,20,21
 1358 1100 1358 1100 1327 1137 c 1,22,23
 1296 1166 1296 1166 1251 1165 c 2,24,-1
 782 1165 l 2,25,26
 723 1165 723 1165 678 1137 c 1,27,28
 641 1108 641 1108 641 1071 c 2,29,-1
 641 365 l 2,30,31
 641 318 641 318 688 277 c 128,-1,32
 735 236 735 236 795 236 c 2,33,-1
 1253 236 l 2,34,35
 1296 236 1296 236 1325 272 c 1,36,37
 1362 312 1362 312 1358 365 c 1,19,-1
EndSplineSet
EndChar

StartChar: u0C83
Encoding: 102 3203 102
Width: 1040
Flags: W
LayerCount: 2
Fore
SplineSet
1120 944 m 2,0,1
 1120 856 1120 856 1053 797 c 1,2,3
 994 736 994 736 897 735 c 2,4,-1
 571 735 l 2,5,6
 462 735 462 735 395 803 c 1,7,8
 321 869 321 869 322 963 c 2,9,-1
 322 1178 l 2,10,11
 322 1274 322 1274 397.5 1335.5 c 128,-1,12
 473 1397 473 1397 573 1397 c 2,13,-1
 868 1397 l 2,14,15
 942 1397 942 1397 993 1366 c 1,16,17
 1022 1356 1022 1356 1043.5 1334.5 c 128,-1,18
 1065 1313 1065 1313 1094.5 1272 c 128,-1,19
 1124 1231 1124 1231 1124 1165 c 2,20,-1
 1120 944 l 2,0,1
1124 240 m 1,21,22
 1124 144 1124 144 1062.5 74 c 128,-1,23
 1001 4 1001 4 915 4 c 2,24,-1
 571 6 l 2,25,26
 475 6 475 6 398.5 71.5 c 128,-1,27
 322 137 322 137 322 231 c 2,28,-1
 322 446 l 2,29,30
 322 542 322 542 398.5 605 c 128,-1,31
 475 668 475 668 571 668 c 2,32,-1
 866 668 l 2,33,34
 977 668 977 668 1044 596 c 1,35,36
 1120 522 1120 522 1120 420 c 1,37,-1
 1124 240 l 1,21,22
844 1001 m 1,38,-1
 844 1124 l 2,39,40
 844 1138 844 1138 839 1146.5 c 128,-1,41
 834 1155 834 1155 828.5 1160 c 128,-1,42
 823 1165 823 1165 799 1165 c 2,43,-1
 666 1165 l 2,44,45
 635 1165 635 1165 616.5 1153 c 128,-1,46
 598 1141 598 1141 598 1124 c 2,47,-1
 596 1020 l 1,48,49
 604 995 604 995 614 985 c 1,50,51
 637 971 637 971 653 971 c 2,52,-1
 799 971 l 1,53,54
 815 975 815 975 829.5 980 c 128,-1,55
 844 985 844 985 845 990 c 128,-1,56
 846 995 846 995 844 1001 c 1,38,-1
846 268 m 1,57,-1
 846 393 l 2,58,59
 846 416 846 416 838 424 c 2,60,-1
 827 432 l 1,61,-1
 653 432 l 2,62,63
 628 432 628 432 619 427 c 128,-1,64
 610 422 610 422 605 415 c 128,-1,65
 600 408 600 408 600 406 c 2,66,-1
 598 289 l 1,67,-1
 614 250 l 2,68,69
 618 240 618 240 623.5 239 c 128,-1,70
 629 238 629 238 633 238 c 2,71,-1
 809 238 l 2,72,73
 823 238 823 238 838 246 c 1,74,-1
 846 268 l 1,57,-1
EndSplineSet
EndChar

StartChar: avowel
Encoding: 103 3205 103
Width: 2091
Flags: W
LayerCount: 2
Fore
SplineSet
2181 295 m 2,0,1
 2181 172 2181 172 2085 90 c 1,2,3
 2003 2 2003 2 1866 2 c 2,4,-1
 731 4 l 2,5,6
 586 4 586 4 484.5 87 c 128,-1,7
 383 170 383 170 383 295 c 2,8,-1
 383 1108 l 2,9,10
 383 1237 383 1237 473 1317 c 128,-1,11
 563 1397 563 1397 692 1397 c 2,12,-1
 1096 1397 l 1,13,-1
 1096 922 l 1,14,-1
 821 922 l 1,15,-1
 821 1165 l 1,16,-1
 750 1165 l 2,17,18
 711 1165 711 1165 688 1133 c 0,19,20
 657 1088 657 1088 657 1028 c 2,21,-1
 657 367 l 2,22,23
 657 324 657 324 700 276 c 1,24,25
 757 237 757 237 811 238 c 2,26,-1
 1761 238 l 2,27,28
 1800 238 1800 238 1833 260 c 0,29,30
 1847 270 1847 270 1884 324 c 1,31,32
 1902 361 1902 361 1903 406 c 2,33,-1
 1903 1081 l 2,34,35
 1903 1112 1903 1112 1874 1145 c 1,36,37
 1851 1163 1851 1163 1806 1163 c 2,38,-1
 1741 1163 l 1,39,-1
 1741 1040 l 2,40,41
 1741 940 1741 940 1886 844 c 1,42,-1
 1886 625 l 1,43,-1
 961 625 l 1,44,-1
 961 856 l 1,45,-1
 1550 856 l 1,46,47
 1462 952 1462 952 1462 1024 c 2,48,-1
 1462 1395 l 1,49,-1
 1831 1395 l 2,50,51
 1925 1395 1925 1395 2006 1358 c 128,-1,52
 2087 1321 2087 1321 2130 1262 c 1,53,54
 2177 1203 2177 1203 2177 1122 c 2,55,-1
 2181 295 l 2,0,1
EndSplineSet
EndChar

StartChar: aavowel
Encoding: 104 3206 104
Width: 2238
Flags: W
LayerCount: 2
Fore
SplineSet
2333 993 m 1,0,1
 2333 870 2333 870 2251 791 c 1,2,3
 2165 701 2165 701 2048 700 c 2,4,-1
 2009 700 l 1,5,6
 2070 628 2070 628 2071 590 c 2,7,-1
 2071 229 l 2,8,9
 2071 133 2071 133 1985 66 c 1,10,11
 1940 33 1940 33 1889.5 17.5 c 128,-1,12
 1839 2 1839 2 1765 2 c 2,13,-1
 680 10 l 2,14,15
 557 10 557 10 471 96 c 1,16,17
 385 172 385 172 385 301 c 2,18,-1
 385 1114 l 2,19,20
 385 1237 385 1237 489 1323 c 1,21,22
 604 1403 604 1403 756 1403 c 2,23,-1
 1069 1403 l 1,24,-1
 1069 928 l 1,25,-1
 795 928 l 1,26,-1
 795 1171 l 1,27,-1
 766 1171 l 2,28,29
 719 1171 719 1171 690 1147 c 1,30,31
 661 1116 661 1116 662 1079 c 2,32,-1
 662 373 l 2,33,34
 662 322 662 322 692 279 c 1,35,36
 737 240 737 240 782 240 c 2,37,-1
 1665 240 l 2,38,39
 1712 240 1712 240 1745 279 c 1,40,41
 1763 297 1763 297 1767 307 c 1,42,43
 1783 332 1783 332 1784 369 c 2,44,-1
 1784 596 l 2,45,46
 1784 639 1784 639 1722 707 c 1,47,-1
 1110 707 l 1,48,-1
 1110 938 l 1,49,-1
 1616 938 l 1,50,51
 1579 995 1579 995 1579 1020 c 2,52,-1
 1579 1182 l 2,53,54
 1579 1276 1579 1276 1662 1333.5 c 128,-1,55
 1745 1391 1745 1391 1862 1391 c 2,56,-1
 2050 1391 l 2,57,58
 2109 1391 2109 1391 2154.5 1375.5 c 128,-1,59
 2200 1360 2200 1360 2238 1323 c 0,60,61
 2320 1249 2320 1249 2320 1147 c 1,62,-1
 2333 993 l 1,0,1
2040 1010 m 1,63,-1
 2040 1104 l 2,64,65
 2040 1163 2040 1163 2007 1163 c 2,66,-1
 1919 1163 l 2,67,68
 1886 1163 1886 1163 1870.5 1144.5 c 128,-1,69
 1855 1126 1855 1126 1855 1104 c 2,70,-1
 1855 1038 l 2,71,72
 1855 985 1855 985 1901 938 c 1,73,-1
 1989 938 l 2,74,75
 2012 938 2012 938 2027 960.5 c 128,-1,76
 2042 983 2042 983 2040 1010 c 1,63,-1
EndSplineSet
EndChar

StartChar: ivowel
Encoding: 105 3207 105
Width: 1687
Flags: W
LayerCount: 2
Fore
SplineSet
1767 0 m 1,0,-1
 1599 0 l 2,1,2
 1488 0 1488 0 1399 68 c 1,3,4
 1317 142 1317 142 1317 236 c 2,5,-1
 1317 350 l 1,6,-1
 1102 350 l 2,7,8
 993 350 993 350 926 410 c 1,9,10
 889 435 889 435 869.5 471.5 c 128,-1,11
 850 508 850 508 850 547 c 2,12,-1
 850 692 l 2,13,14
 850 725 850 725 866.5 753.5 c 128,-1,15
 883 782 883 782 915 807 c 1,16,17
 989 846 989 846 1083 846 c 2,18,-1
 1335 846 l 2,19,20
 1401 846 1401 846 1454 809 c 1,21,-1
 1491 780 l 1,22,-1
 1491 1085 l 2,23,24
 1491 1114 1491 1114 1464.5 1133.5 c 128,-1,25
 1438 1153 1438 1153 1378 1153 c 2,26,-1
 1219 1153 l 2,27,28
 1162 1153 1162 1153 1124 1128 c 1,29,30
 1095 1103 1095 1103 1096 1071 c 2,31,-1
 1096 913 l 1,32,-1
 821 913 l 1,33,-1
 821 1061 l 2,34,35
 821 1098 821 1098 787.5 1126.5 c 128,-1,36
 754 1155 754 1155 694 1155 c 2,37,-1
 500 1155 l 2,38,39
 453 1155 453 1155 424 1132.5 c 128,-1,40
 395 1110 395 1110 395 1071 c 2,41,-1
 393 940 l 1,42,43
 397 893 397 893 420 879 c 1,44,45
 443 850 443 850 471 850 c 2,46,-1
 543 850 l 1,47,-1
 543 618 l 1,48,-1
 414 621 l 2,49,50
 289 621 289 621 207 702 c 1,51,52
 119 782 119 782 119 897 c 2,53,-1
 119 1100 l 2,54,55
 119 1182 119 1182 164 1247 c 1,56,57
 207 1319 207 1319 283 1350 c 1,58,59
 355 1387 355 1387 442 1386 c 2,60,-1
 723 1386 l 2,61,62
 823 1386 823 1386 883 1348 c 1,63,64
 926 1330 926 1330 958 1282 c 1,65,66
 972 1307 972 1307 988 1322 c 128,-1,67
 1004 1337 1004 1337 1022 1346 c 1,68,69
 1079 1389 1079 1389 1159 1389 c 2,70,-1
 1425 1389 l 2,71,72
 1501 1389 1501 1389 1558.5 1370.5 c 128,-1,73
 1616 1352 1616 1352 1663 1307 c 1,74,75
 1765 1225 1765 1225 1765 1092 c 2,76,-1
 1765 752 l 2,77,78
 1765 570 1765 570 1589 410 c 1,79,-1
 1589 281 l 2,80,81
 1589 258 1589 258 1599 248 c 1,82,83
 1624 232 1624 232 1634 231 c 2,84,-1
 1763 231 l 1,85,-1
 1767 0 l 1,0,-1
1309 584 m 1,86,87
 1309 623 1309 623 1272 623 c 2,88,-1
 1139 623 l 2,89,90
 1125 623 1125 623 1122 621 c 2,91,-1
 1120 606 l 1,92,-1
 1122 596 l 1,93,-1
 1139 586 l 1,94,-1
 1309 584 l 1,86,87
EndSplineSet
EndChar

StartChar: iivowel
Encoding: 106 3208 106
Width: 2623
Flags: W
LayerCount: 2
Fore
SplineSet
2712 827 m 2,0,1
 2712 741 2712 741 2644 655 c 1,2,3
 2585 587 2585 587 2490 549 c 1,4,5
 2652 373 2652 373 2652 315 c 2,6,-1
 2652 178 l 2,7,8
 2652 119 2652 119 2607 59 c 1,9,10
 2560 6 2560 6 2494 6 c 2,11,-1
 1993 6 l 1,12,-1
 1993 238 l 1,13,-1
 2322 238 l 2,14,15
 2338 238 2338 238 2357 258.5 c 128,-1,16
 2376 279 2376 279 2376 287 c 2,17,-1
 2376 297 l 2,18,19
 2376 340 2376 340 2322 379 c 1,20,-1
 2185 518 l 1,21,-1
 1745 518 l 1,22,-1
 1745 285 l 2,23,24
 1745 174 1745 174 1657 88 c 128,-1,25
 1569 2 1569 2 1444 2 c 2,26,-1
 709 4 l 2,27,28
 605 4 605 4 524.5 77 c 128,-1,29
 444 150 444 150 444 258 c 2,30,-1
 444 518 l 1,31,-1
 213 518 l 1,32,-1
 213 750 l 1,33,-1
 444 750 l 1,34,-1
 444 907 l 2,35,36
 444 1040 444 1040 578 1167 c 1,37,-1
 416 1167 l 1,38,-1
 416 1399 l 1,39,-1
 1493 1399 l 2,40,41
 1526 1399 1526 1399 1536 1417 c 1,42,43
 1554 1435 1554 1435 1554 1458 c 2,44,-1
 1554 1587 l 1,45,-1
 1835 1587 l 1,46,-1
 1835 1458 l 2,47,48
 1835 1347 1835 1347 1753 1266 c 1,49,50
 1696 1194 1696 1194 1599 1169 c 1,51,52
 1658 1126 1658 1126 1696 1081 c 0,53,54
 1747 1015 1747 1015 1747 963 c 2,55,-1
 1747 748 l 1,56,-1
 1980 748 l 1,57,58
 1935 809 1935 809 1935 891 c 2,59,-1
 1935 1038 l 2,60,61
 1935 1140 1935 1140 2009 1213 c 128,-1,62
 2083 1286 2083 1286 2191 1286 c 2,63,-1
 2437 1286 l 2,64,65
 2554 1286 2554 1286 2628 1210 c 1,66,67
 2714 1134 2714 1134 2714 1024 c 2,68,-1
 2712 827 l 2,0,1
2433 852 m 2,69,-1
 2433 999 l 2,70,71
 2433 1013 2433 1013 2425 1025.5 c 128,-1,72
 2417 1038 2417 1038 2415 1040 c 0,73,74
 2405 1054 2405 1054 2380 1055 c 2,75,-1
 2265 1055 l 2,76,77
 2236 1055 2236 1055 2232 1044 c 0,78,79
 2218 1021 2218 1021 2218 1012 c 2,80,-1
 2216 856 l 1,81,82
 2218 827 2218 827 2236 803 c 1,83,-1
 2333 745 l 1,84,85
 2366 753 2366 753 2394 778 c 1,86,87
 2433 817 2433 817 2433 852 c 2,69,-1
1464 752 m 1,88,-1
 1464 977 l 2,89,90
 1464 1100 1464 1100 1331 1174 c 1,91,-1
 885 1174 l 1,92,93
 717 1059 717 1059 717 920 c 2,94,-1
 717 752 l 1,95,-1
 1464 752 l 1,88,-1
1466 369 m 1,96,-1
 1466 520 l 1,97,-1
 717 520 l 1,98,-1
 717 340 l 2,99,100
 717 303 717 303 747.5 269.5 c 128,-1,101
 778 236 778 236 809 236 c 2,102,-1
 1335 236 l 2,103,104
 1358 236 1358 236 1377.5 245 c 128,-1,105
 1397 254 1397 254 1419 270 c 1,106,107
 1462 318 1462 318 1466 369 c 1,96,-1
EndSplineSet
EndChar

StartChar: uvowel
Encoding: 107 3209 107
Width: 3143
Flags: W
LayerCount: 2
Fore
SplineSet
3236 311 m 2,0,1
 3236 229 3236 229 3197 156 c 1,2,3
 3174 119 3174 119 3147.5 92.5 c 128,-1,4
 3121 66 3121 66 3084 47 c 0,5,6
 3004 4 3004 4 2929 4 c 2,7,-1
 2527 4 l 2,8,9
 2482 4 2482 4 2438 15.5 c 128,-1,10
 2394 27 2394 27 2356 45 c 128,-1,11
 2318 63 2318 63 2284.5 93 c 128,-1,12
 2251 123 2251 123 2226 156 c 1,13,14
 2179 236 2179 236 2179 311 c 2,15,-1
 2179 1096 l 2,16,17
 2179 1112 2179 1112 2161 1145 c 1,18,19
 2132 1161 2132 1161 2095 1161 c 2,20,-1
 1712 1161 l 2,21,22
 1673 1161 1673 1161 1656.5 1142.5 c 128,-1,23
 1640 1124 1640 1124 1640 1094 c 2,24,-1
 1640 293 l 2,25,26
 1640 250 1640 250 1631 220 c 128,-1,27
 1622 190 1622 190 1593 145 c 1,28,29
 1550 84 1550 84 1466 43 c 128,-1,30
 1382 2 1382 2 1296 2 c 2,31,-1
 766 4 l 2,32,33
 614 4 614 4 506 98 c 0,34,35
 453 143 453 143 427 204.5 c 128,-1,36
 401 266 401 266 401 334 c 2,37,-1
 401 1079 l 2,38,39
 401 1167 401 1167 434 1241 c 1,40,41
 479 1321 479 1321 558 1358 c 128,-1,42
 637 1395 637 1395 709 1395 c 2,43,-1
 1171 1395 l 1,44,-1
 1171 985 l 2,45,46
 1171 876 1171 876 1090.5 789 c 128,-1,47
 1010 702 1010 702 899 702 c 2,48,-1
 719 702 l 1,49,-1
 719 934 l 1,50,-1
 838 934 l 2,51,52
 856 934 856 934 874.5 950.5 c 128,-1,53
 893 967 893 967 893 983 c 2,54,-1
 893 1159 l 1,55,-1
 764 1159 l 2,56,57
 719 1159 719 1159 700 1137 c 0,58,59
 671 1104 671 1104 672 1075 c 2,60,-1
 672 330 l 2,61,62
 672 299 672 299 704.5 264 c 128,-1,63
 737 229 737 229 780 229 c 2,64,-1
 1278 229 l 2,65,66
 1317 229 1317 229 1333 254 c 1,67,68
 1362 287 1362 287 1362 315 c 2,69,-1
 1362 1092 l 2,70,71
 1362 1229 1362 1229 1444 1303 c 1,72,73
 1530 1391 1530 1391 1655 1391 c 2,74,-1
 2124 1391 l 2,75,76
 2218 1391 2218 1391 2294 1354 c 128,-1,77
 2370 1317 2370 1317 2413 1251 c 0,78,79
 2438 1212 2438 1212 2447 1181.5 c 128,-1,80
 2456 1151 2456 1151 2456 1106 c 2,81,-1
 2456 332 l 2,82,83
 2456 289 2456 289 2480 260 c 1,84,85
 2517 229 2517 229 2548 229 c 2,86,-1
 2882 229 l 2,87,88
 2921 229 2921 229 2937 254 c 1,89,90
 2966 283 2966 283 2966 315 c 2,91,-1
 2966 1075 l 2,92,93
 2966 1098 2966 1098 2942 1116.5 c 128,-1,94
 2918 1135 2918 1135 2882 1135 c 2,95,-1
 2820 1135 l 1,96,-1
 2820 1393 l 1,97,-1
 2968 1393 l 2,98,99
 3087 1393 3087 1393 3160 1317 c 1,100,101
 3240 1241 3240 1241 3240 1133 c 2,102,-1
 3236 311 l 2,0,1
EndSplineSet
EndChar

StartChar: uuvowel
Encoding: 108 3210 108
Width: 3768
Flags: W
LayerCount: 2
Fore
SplineSet
3854 295 m 2,0,1
 3854 170 3854 170 3768 94 c 1,2,3
 3682 4 3682 4 3570 4 c 2,4,-1
 3451 4 l 2,5,6
 3347 4 3347 4 3252 84 c 0,7,8
 3213 117 3213 117 3193.5 167 c 128,-1,9
 3174 217 3174 217 3174 268 c 2,10,-1
 3174 477 l 1,11,-1
 3451 477 l 1,12,-1
 3451 268 l 2,13,14
 3451 252 3451 252 3455 247 c 128,-1,15
 3459 242 3459 242 3467 241 c 128,-1,16
 3475 240 3475 240 3484 238 c 1,17,-1
 3555 238 l 1,18,19
 3569 246 3569 246 3572 250 c 2,20,-1
 3580 287 l 1,21,-1
 3580 1057 l 2,22,23
 3580 1102 3580 1102 3551.5 1134.5 c 128,-1,24
 3523 1167 3523 1167 3484 1167 c 2,25,-1
 3193 1167 l 2,26,27
 3136 1167 3136 1167 3103 1134.5 c 128,-1,28
 3070 1102 3070 1102 3070 1057 c 2,29,-1
 3070 338 l 2,30,31
 3070 285 3070 285 3054 238 c 0,32,33
 3052 230 3052 230 3027 176 c 1,34,35
 2980 94 2980 94 2918 57 c 0,36,37
 2838 10 2838 10 2759 10 c 2,38,-1
 2333 10 l 2,39,40
 2208 10 2208 10 2122 101.5 c 128,-1,41
 2036 193 2036 193 2036 330 c 2,42,-1
 2036 1090 l 2,43,44
 2036 1129 2036 1129 2009 1151.5 c 128,-1,45
 1982 1174 1982 1174 1939 1174 c 2,46,-1
 1645 1174 l 2,47,48
 1602 1174 1602 1174 1576 1145 c 128,-1,49
 1550 1116 1550 1116 1550 1079 c 2,50,-1
 1550 354 l 2,51,52
 1550 213 1550 213 1442 117 c 1,53,54
 1338 13 1338 13 1190 12 c 2,55,-1
 799 14 l 2,56,57
 639 14 639 14 514 109 c 1,58,59
 457 156 457 156 430 214 c 128,-1,60
 403 272 403 272 403 344 c 2,61,-1
 403 1106 l 2,62,63
 403 1239 403 1239 504 1319 c 1,64,65
 555 1364 555 1364 616.5 1383.5 c 128,-1,66
 678 1403 678 1403 752 1403 c 2,67,-1
 1176 1403 l 1,68,-1
 1176 1032 l 2,69,70
 1176 915 1176 915 1081 829 c 1,71,72
 995 741 995 741 870 741 c 2,73,-1
 752 741 l 1,74,-1
 752 973 l 1,75,-1
 842 973 l 2,76,77
 856 973 856 973 865 978 c 128,-1,78
 874 983 874 983 877 985 c 0,79,80
 895 1001 895 1001 895 1018 c 2,81,-1
 895 1169 l 1,82,-1
 780 1169 l 2,83,84
 733 1169 733 1169 703.5 1143.5 c 128,-1,85
 674 1118 674 1118 674 1085 c 2,86,-1
 674 352 l 2,87,88
 674 307 674 307 714 273.5 c 128,-1,89
 754 240 754 240 811 240 c 2,90,-1
 1180 240 l 2,91,92
 1211 240 1211 240 1247 270 c 1,93,94
 1276 301 1276 301 1276 352 c 2,95,-1
 1276 1085 l 2,96,97
 1276 1179 1276 1179 1327 1247 c 1,98,99
 1378 1327 1378 1327 1459 1364 c 128,-1,100
 1540 1401 1540 1401 1628 1401 c 2,101,-1
 1952 1401 l 2,102,103
 2046 1401 2046 1401 2132 1362 c 0,104,105
 2177 1344 2177 1344 2206.5 1317 c 128,-1,106
 2236 1290 2236 1290 2262 1250 c 128,-1,107
 2288 1210 2288 1210 2302 1172.5 c 128,-1,108
 2316 1135 2316 1135 2316 1090 c 2,109,-1
 2316 330 l 2,110,111
 2316 293 2316 293 2339.5 267.5 c 128,-1,112
 2363 242 2363 242 2406 242 c 2,113,-1
 2681 242 l 2,114,115
 2724 242 2724 242 2761 272 c 1,116,117
 2777 290 2777 290 2786.5 310 c 128,-1,118
 2796 330 2796 330 2796 352 c 2,119,-1
 2796 1059 l 2,120,121
 2796 1149 2796 1149 2839 1231 c 1,122,123
 2890 1313 2890 1313 2969.5 1356 c 128,-1,124
 3049 1399 3049 1399 3146 1399 c 2,125,-1
 3486 1399 l 2,126,127
 3586 1399 3586 1399 3672 1356 c 0,128,129
 3711 1338 3711 1338 3745 1307 c 128,-1,130
 3779 1276 3779 1276 3803 1233 c 0,131,132
 3856 1147 3856 1147 3856 1059 c 2,133,-1
 3854 295 l 2,0,1
EndSplineSet
EndChar

StartChar: rvocalicvowel.part
Encoding: 110 -1 110
Width: 2152
Flags: W
LayerCount: 2
Fore
SplineSet
2232 311 m 2,0,1
 2232 250 2232 250 2217 198.5 c 128,-1,2
 2202 147 2202 147 2169 100 c 1,3,4
 2089 4 2089 4 1995 4 c 2,5,-1
 1556 4 l 2,6,7
 1468 4 1468 4 1378 49 c 1,8,9
 1312 78 1312 78 1268 139 c 1,10,11
 1235 86 1235 86 1192 53 c 0,12,13
 1131 6 1131 6 1077 6 c 2,14,-1
 575 8 l 2,15,16
 464 8 464 8 399 70 c 1,17,18
 319 140 319 140 319 229 c 2,19,-1
 319 612 l 1,20,-1
 694 612 l 2,21,22
 762 612 762 612 805 600 c 128,-1,23
 848 588 848 588 887 555 c 1,24,25
 977 489 977 489 977 395 c 2,26,-1
 977 279 l 1,27,-1
 700 279 l 1,28,-1
 700 369 l 2,29,30
 700 385 700 385 668 385 c 2,31,-1
 600 385 l 1,32,-1
 598 299 l 1,33,34
 600 274 600 274 616 256 c 1,35,36
 641 238 641 238 666 238 c 2,37,-1
 983 238 l 2,38,39
 1012 238 1012 238 1034.5 246 c 128,-1,40
 1057 254 1057 254 1073 266 c 0,41,42
 1110 289 1110 289 1110 322 c 2,43,-1
 1110 1114 l 2,44,45
 1110 1139 1110 1139 1080.5 1154 c 128,-1,46
 1051 1169 1051 1169 1004 1169 c 2,47,-1
 692 1169 l 2,48,49
 649 1169 649 1169 618 1153 c 1,50,51
 600 1151 600 1151 600 1128 c 2,52,-1
 600 997 l 1,53,-1
 668 997 l 2,54,55
 678 997 678 997 689 1002.5 c 128,-1,56
 700 1008 700 1008 709 1012 c 1,57,58
 727 1030 727 1030 727 1053 c 2,59,-1
 727 1128 l 1,60,-1
 1004 1128 l 1,61,-1
 1004 1040 l 2,62,63
 1004 929 1004 929 928 844 c 1,64,65
 846 758 846 758 737 758 c 2,66,-1
 317 758 l 1,67,-1
 317 1161 l 2,68,69
 317 1257 317 1257 403 1333 c 1,70,71
 485 1394 485 1394 602 1395 c 2,72,-1
 1075 1395 l 2,73,74
 1204 1395 1204 1395 1294 1319 c 1,75,76
 1388 1233 1388 1233 1389 1122 c 2,77,-1
 1389 375 l 1,78,79
 1420 314 1420 314 1478 271.5 c 128,-1,80
 1536 229 1536 229 1583 229 c 2,81,-1
 1860 229 l 2,82,83
 1897 229 1897 229 1926.5 262 c 128,-1,84
 1956 295 1956 295 1956 346 c 2,85,-1
 1956 1028 l 2,86,87
 1956 1094 1956 1094 1916 1130.5 c 128,-1,88
 1876 1167 1876 1167 1819 1167 c 2,89,-1
 1487 1167 l 1,90,-1
 1487 1399 l 1,91,-1
 1847 1399 l 2,92,93
 1880 1399 1880 1399 1919 1432 c 1,94,95
 1952 1471 1952 1471 1952 1513 c 2,96,-1
 1952 1642 l 1,97,-1
 2228 1642 l 1,98,-1
 2228 1485 l 2,99,100
 2228 1405 2228 1405 2183 1348 c 1,101,102
 2152 1295 2152 1295 2107 1270 c 1,103,104
 2136 1254 2136 1254 2151.5 1238.5 c 128,-1,105
 2167 1223 2167 1223 2185 1192 c 1,106,107
 2228 1133 2228 1133 2228 1057 c 2,108,-1
 2232 311 l 2,0,1
EndSplineSet
EndChar

StartChar: lvocalicvowel.part
Encoding: 112 -1 112
Width: 1687
Flags: W
LayerCount: 2
Fore
SplineSet
2073 444 m 1,0,-1
 1804 119 l 1,1,2
 1753 37 1753 37 1671 20 c 0,3,4
 1663 18 1663 18 1638 18 c 0,5,6
 1579 18 1579 18 1502 42 c 128,-1,7
 1425 66 1425 66 1372 111 c 1,8,9
 1311 166 1311 166 1286 203 c 0,10,11
 1253 254 1253 254 1253 315 c 0,12,13
 1253 331 1253 331 1370 518 c 0,14,15
 1407 577 1407 577 1489 700 c 1,16,17
 1505 743 1505 743 1510.5 793.5 c 128,-1,18
 1516 844 1516 844 1516 903 c 0,19,20
 1516 964 1516 964 1510.5 1009.5 c 128,-1,21
 1505 1055 1505 1055 1501 1087 c 1,22,23
 1501 1116 1501 1116 1474.5 1135.5 c 128,-1,24
 1448 1155 1448 1155 1389 1155 c 2,25,-1
 1229 1155 l 2,26,27
 1172 1155 1172 1155 1135 1130 c 1,28,29
 1106 1105 1106 1105 1106 1073 c 2,30,-1
 1106 915 l 1,31,-1
 831 915 l 1,32,-1
 831 1063 l 2,33,34
 831 1100 831 1100 797.5 1128.5 c 128,-1,35
 764 1157 764 1157 705 1157 c 2,36,-1
 510 1157 l 2,37,38
 463 1157 463 1157 434.5 1134.5 c 128,-1,39
 406 1112 406 1112 406 1073 c 2,40,-1
 403 942 l 1,41,42
 407 895 407 895 430 881 c 1,43,44
 453 852 453 852 481 852 c 2,45,-1
 553 852 l 1,46,-1
 553 621 l 1,47,-1
 424 623 l 2,48,49
 299 623 299 623 217 705 c 1,50,51
 129 785 129 785 129 899 c 2,52,-1
 129 1102 l 2,53,54
 129 1184 129 1184 174 1249 c 1,55,56
 217 1321 217 1321 293 1352 c 1,57,58
 365 1389 365 1389 453 1389 c 2,59,-1
 733 1389 l 2,60,61
 833 1389 833 1389 893 1350 c 1,62,63
 936 1332 936 1332 969 1284 c 1,64,65
 983 1309 983 1309 998.5 1324 c 128,-1,66
 1014 1339 1014 1339 1032 1348 c 1,67,68
 1089 1391 1089 1391 1169 1391 c 2,69,-1
 1436 1391 l 2,70,71
 1512 1391 1512 1391 1569 1372.5 c 128,-1,72
 1626 1354 1626 1354 1673 1309 c 1,73,74
 1775 1227 1775 1227 1776 1094 c 2,75,-1
 1776 754 l 2,76,77
 1776 695 1776 695 1743 627 c 0,78,79
 1735 613 1735 613 1595 410 c 1,80,81
 1572 381 1572 381 1565 371 c 0,82,83
 1532 326 1532 326 1532 317 c 0,84,85
 1532 280 1532 280 1550.5 272 c 128,-1,86
 1569 264 1569 264 1585 264 c 0,87,88
 1622 264 1622 264 1640 289 c 2,89,-1
 1866 580 l 1,90,-1
 2073 444 l 1,0,-1
EndSplineSet
EndChar

StartChar: evowel
Encoding: 113 3214 113
Width: 2039
Flags: W
LayerCount: 2
Fore
SplineSet
2126 311 m 2,0,1
 2126 182 2126 182 2042 91 c 128,-1,2
 1958 0 1958 0 1841 0 c 2,3,-1
 1395 2 l 2,4,5
 1313 2 1313 2 1247 45 c 1,6,7
 1210 63 1210 63 1192 96 c 1,8,9
 1167 59 1167 59 1139 41 c 0,10,11
 1080 -2 1080 -2 1014 -2 c 2,12,-1
 674 0 l 2,13,14
 533 0 533 0 432.5 83 c 128,-1,15
 332 166 332 166 332 291 c 2,16,-1
 332 852 l 1,17,-1
 702 852 l 2,18,19
 770 852 770 852 827 807 c 0,20,21
 856 784 856 784 882.5 754.5 c 128,-1,22
 909 725 909 725 926 688 c 1,23,24
 971 602 971 602 985 498 c 1,25,-1
 731 430 l 1,26,27
 723 481 723 481 707.5 515 c 128,-1,28
 692 549 692 549 670 580 c 0,29,30
 660 594 660 594 644.5 603 c 128,-1,31
 629 612 629 612 610 616 c 1,32,-1
 608 346 l 1,33,34
 610 301 610 301 643 264 c 1,35,36
 682 231 682 231 729 231 c 2,37,-1
 952 231 l 2,38,39
 997 231 997 231 1022 262 c 0,40,41
 1059 305 1059 305 1059 344 c 2,42,-1
 1059 502 l 1,43,-1
 1339 502 l 1,44,-1
 1339 362 l 2,45,46
 1339 311 1339 311 1383 271 c 128,-1,47
 1427 231 1427 231 1479 231 c 2,48,-1
 1724 231 l 2,49,50
 1777 231 1777 231 1812 272 c 128,-1,51
 1847 313 1847 313 1847 360 c 2,52,-1
 1847 1010 l 2,53,54
 1847 1078 1847 1078 1802 1118.5 c 128,-1,55
 1757 1159 1757 1159 1683 1159 c 2,56,-1
 1468 1159 l 1,57,-1
 1468 1391 l 1,58,-1
 1712 1391 l 2,59,60
 1827 1391 1827 1391 1921 1345.5 c 128,-1,61
 2015 1300 2015 1300 2070.5 1214 c 128,-1,62
 2126 1128 2126 1128 2126 1038 c 2,63,-1
 2126 311 l 2,0,1
EndSplineSet
EndChar

StartChar: eevowel
Encoding: 114 3215 114
Width: 2033
Flags: W
LayerCount: 2
Fore
SplineSet
2122 340 m 2,0,1
 2122 254 2122 254 2064 166 c 1,2,3
 2019 90 2019 90 1925 43 c 1,4,5
 1880 25 1880 25 1828 12.5 c 128,-1,6
 1776 0 1776 0 1714 0 c 2,7,-1
 1399 8 l 2,8,9
 1325 8 1325 8 1260 51 c 1,10,11
 1217 84 1217 84 1194 131 c 1,12,13
 1108 4 1108 4 961 4 c 2,14,-1
 698 4 l 2,15,16
 544 4 544 4 436 97 c 128,-1,17
 328 190 328 190 328 324 c 2,18,-1
 328 858 l 1,19,-1
 700 858 l 2,20,21
 768 858 768 858 822.5 815 c 128,-1,22
 877 772 877 772 924 692 c 1,23,24
 961 624 961 624 985 502 c 1,25,-1
 723 436 l 1,26,27
 705 538 705 538 662 584 c 0,28,29
 633 615 633 615 602 623 c 1,30,-1
 600 352 l 1,31,32
 608 305 608 305 639 272 c 1,33,34
 682 235 682 235 727 236 c 2,35,-1
 946 236 l 2,36,37
 991 236 991 236 1024 273.5 c 128,-1,38
 1057 311 1057 311 1057 350 c 2,39,-1
 1057 508 l 1,40,-1
 1337 508 l 1,41,-1
 1337 369 l 2,42,43
 1337 324 1337 324 1370 276 c 1,44,45
 1415 237 1415 237 1466 238 c 2,46,-1
 1720 238 l 2,47,48
 1767 238 1767 238 1800 276 c 1,49,50
 1818 294 1818 294 1823 305 c 1,51,52
 1839 330 1839 330 1839 367 c 2,53,-1
 1839 1016 l 2,54,55
 1839 1082 1839 1082 1792 1124.5 c 128,-1,56
 1745 1167 1745 1167 1669 1167 c 2,57,-1
 1473 1167 l 1,58,-1
 1473 1124 l 2,59,60
 1473 1036 1473 1036 1386 983 c 1,61,62
 1347 954 1347 954 1303.5 940 c 128,-1,63
 1260 926 1260 926 1200 926 c 2,64,-1
 926 926 l 2,65,66
 801 926 801 926 707 1001 c 1,67,68
 613 1083 613 1083 612 1188 c 2,69,-1
 612 1397 l 1,70,-1
 889 1397 l 1,71,-1
 889 1217 l 2,72,73
 889 1199 889 1199 907 1174 c 1,74,75
 936 1158 936 1158 952 1157 c 2,76,-1
 1141 1157 l 2,77,78
 1155 1157 1155 1157 1178 1180 c 1,79,80
 1194 1203 1194 1203 1194 1235 c 2,81,-1
 1194 1397 l 1,82,-1
 1696 1397 l 2,83,84
 1815 1397 1815 1397 1910 1352 c 128,-1,85
 2005 1307 2005 1307 2056 1225 c 1,86,87
 2115 1143 2115 1143 2116 1047 c 2,88,-1
 2122 340 l 2,0,1
EndSplineSet
EndChar

StartChar: aivowel
Encoding: 115 3216 115
Width: 2158
Flags: W
LayerCount: 2
Fore
SplineSet
2238 315 m 2,0,1
 2238 184 2238 184 2136 94 c 1,2,3
 2034 -2 2034 -2 1874 -2 c 1,4,-1
 1563 6 l 1,5,6
 1469 6 1469 6 1397 49 c 128,-1,7
 1325 92 1325 92 1286 145 c 1,8,9
 1241 86 1241 86 1188 53 c 0,10,11
 1116 6 1116 6 1042 6 c 2,12,-1
 674 8 l 2,13,14
 533 8 533 8 432.5 91 c 128,-1,15
 332 174 332 174 332 299 c 2,16,-1
 332 596 l 2,17,18
 332 733 332 733 432 821 c 1,19,20
 477 866 477 866 541.5 888.5 c 128,-1,21
 606 911 606 911 674 911 c 2,22,-1
 1106 911 l 1,23,-1
 1106 608 l 2,24,25
 1106 549 1106 549 1080.5 496.5 c 128,-1,26
 1055 444 1055 444 1003.5 394 c 128,-1,27
 952 344 952 344 895 320.5 c 128,-1,28
 838 297 838 297 750 297 c 1,29,-1
 678 522 l 1,30,31
 723 522 723 522 744.5 529.5 c 128,-1,32
 766 537 766 537 791 555 c 0,33,34
 828 584 828 584 827 614 c 2,35,-1
 827 674 l 1,36,-1
 748 674 l 2,37,38
 680 674 680 674 644 644 c 128,-1,39
 608 614 608 614 608 578 c 2,40,-1
 606 373 l 2,41,42
 606 322 606 322 643 276.5 c 128,-1,43
 680 231 680 231 731 231 c 2,44,-1
 983 231 l 2,45,46
 1049 231 1049 231 1100 275 c 128,-1,47
 1151 319 1151 319 1151 373 c 2,48,-1
 1151 473 l 1,49,-1
 1432 473 l 1,50,-1
 1432 373 l 2,51,52
 1432 322 1432 322 1475 274 c 1,53,54
 1522 231 1522 231 1579 231 c 2,55,-1
 1862 231 l 2,56,57
 1899 231 1899 231 1934.5 274 c 128,-1,58
 1970 317 1970 317 1970 375 c 2,59,-1
 1970 1053 l 2,60,61
 1970 1082 1970 1082 1956 1110 c 0,62,63
 1954 1114 1954 1114 1934.5 1137.5 c 128,-1,64
 1915 1161 1915 1161 1864 1161 c 2,65,-1
 1612 1161 l 2,66,67
 1569 1161 1569 1161 1540 1137 c 1,68,69
 1517 1112 1517 1112 1518 1069 c 2,70,-1
 1518 975 l 1,71,-1
 1241 975 l 1,72,-1
 1241 1077 l 2,73,74
 1241 1108 1241 1108 1198 1139 c 1,75,76
 1155 1162 1155 1162 1083 1161 c 2,77,-1
 721 1161 l 2,78,79
 698 1161 698 1161 680 1156 c 128,-1,80
 662 1151 662 1151 643 1133 c 1,81,82
 604 1102 604 1102 573 1026 c 1,83,-1
 358 1157 l 1,84,85
 415 1276 415 1276 498.5 1335.5 c 128,-1,86
 582 1395 582 1395 678 1395 c 2,87,-1
 1137 1395 l 2,88,89
 1241 1395 1241 1395 1298 1352 c 1,90,91
 1349 1323 1349 1323 1380 1272 c 1,92,93
 1396 1297 1396 1297 1415 1315 c 128,-1,94
 1434 1333 1434 1333 1462 1350 c 1,95,96
 1523 1393 1523 1393 1606 1393 c 2,97,-1
 1896 1393 l 2,98,99
 1990 1393 1990 1393 2066 1356 c 1,100,101
 2148 1323 2148 1323 2193 1253.5 c 128,-1,102
 2238 1184 2238 1184 2238 1108 c 2,103,-1
 2238 315 l 2,0,1
EndSplineSet
EndChar

StartChar: ovowel
Encoding: 116 3218 116
Width: 1974
Flags: W
LayerCount: 2
Fore
SplineSet
2052 254 m 0,0,1
 2052 152 2052 152 1985.5 76 c 128,-1,2
 1919 0 1919 0 1823 0 c 0,3,-1
 1374 0 l 0,4,5
 1300 0 1300 0 1243 43 c 0,6,7
 1210 61 1210 61 1188 94 c 0,8,9
 1172 61 1172 61 1143 43 c 0,10,11
 1084 0 1084 0 1026 0 c 0,12,-1
 614 0 l 0,13,14
 499 0 499 0 405 68.5 c 128,-1,15
 311 137 311 137 311 238 c 0,16,-1
 311 549 l 0,17,-1
 578 711 l 0,18,19
 644 754 644 754 703 791.5 c 128,-1,20
 762 829 762 829 791 854 c 0,21,22
 838 891 838 891 838 928 c 0,23,-1
 838 1102 l 0,24,25
 838 1120 838 1120 821 1143 c 0,26,27
 805 1157 805 1157 774 1157 c 0,28,-1
 592 1157 l 0,29,-1
 592 1071 l 0,30,31
 592 1055 592 1055 610.5 1033.5 c 128,-1,32
 629 1012 629 1012 657 1012 c 0,33,-1
 709 1012 l 0,34,-1
 709 780 l 0,35,-1
 586 780 l 0,36,37
 471 780 471 780 395 868 c 0,38,39
 313 948 313 948 313 1071 c 0,40,-1
 313 1389 l 0,41,-1
 834 1389 l 0,42,43
 908 1389 908 1389 972 1363 c 128,-1,44
 1036 1337 1036 1337 1077 1285 c 128,-1,45
 1118 1233 1118 1233 1118 1171 c 0,46,-1
 1118 860 l 0,47,48
 1118 807 1118 807 1057 748 c 0,49,50
 1006 701 1006 701 795 571 c 0,51,-1
 594 446 l 0,52,-1
 594 322 l 0,53,54
 594 291 594 291 618 260 c 0,55,56
 649 235 649 235 686 236 c 0,57,-1
 952 236 l 0,58,59
 981 236 981 236 1014 264 c 0,60,61
 1047 303 1047 303 1047 336 c 0,62,-1
 1047 446 l 0,63,-1
 1323 446 l 0,64,-1
 1323 346 l 0,65,66
 1323 303 1323 303 1354 266 c 0,67,68
 1393 233 1393 233 1444 233 c 0,69,-1
 1677 233 l 0,70,71
 1706 233 1706 233 1739 262 c 0,72,73
 1772 295 1772 295 1772 334 c 0,74,-1
 1772 524 l 0,75,76
 1772 561 1772 561 1749 577.5 c 128,-1,77
 1726 594 1726 594 1694 594 c 0,78,-1
 1597 594 l 0,79,-1
 1597 823 l 0,80,-1
 1821 823 l 0,81,82
 1925 823 1925 823 1982 766 c 0,83,84
 2050 707 2050 707 2050 616 c 0,85,-1
 2052 254 l 0,0,1
EndSplineSet
EndChar

StartChar: oovowel
Encoding: 117 3219 117
Width: 1974
Flags: W
LayerCount: 2
Fore
SplineSet
2052 287 m 0,0,1
 2052 211 2052 211 2013 150 c 0,2,3
 1980 82 1980 82 1923 44 c 128,-1,4
 1866 6 1866 6 1798 6 c 0,5,-1
 1374 6 l 0,6,7
 1300 6 1300 6 1243 49 c 0,8,9
 1200 74 1200 74 1182 111 c 0,10,11
 1174 101 1174 101 1151 78 c 0,12,13
 1141 68 1141 68 1118 49 c 0,14,15
 1061 10 1061 10 995 10 c 0,16,-1
 614 10 l 0,17,18
 499 10 499 10 405 78.5 c 128,-1,19
 311 147 311 147 311 250 c 0,20,-1
 311 563 l 0,21,-1
 578 725 l 0,22,23
 646 770 646 770 708 811 c 128,-1,24
 770 852 770 852 788 868 c 0,25,26
 835 905 835 905 836 944 c 0,27,-1
 836 1092 l 0,28,29
 836 1123 836 1123 809 1149.5 c 128,-1,30
 782 1176 782 1176 739 1176 c 0,31,-1
 588 1176 l 0,32,-1
 588 1090 l 0,33,34
 588 1072 588 1072 606.5 1050 c 128,-1,35
 625 1028 625 1028 653 1028 c 0,36,-1
 705 1028 l 0,37,-1
 705 795 l 0,38,-1
 582 795 l 0,39,40
 471 795 471 795 391 883 c 0,41,42
 309 965 309 965 309 1090 c 0,43,-1
 309 1407 l 0,44,-1
 483 1407 l 0,45,46
 309 1522 309 1522 309 1597 c 0,47,-1
 309 1769 l 0,48,49
 309 1851 309 1851 389 1903 c 0,50,51
 457 1954 457 1954 565 1954 c 0,52,-1
 852 1954 l 0,53,-1
 852 1720 l 0,54,-1
 643 1720 l 0,55,-1
 600 1712 l 0,56,57
 590 1704 590 1704 590 1690 c 0,58,-1
 590 1608 l 0,59,60
 590 1540 590 1540 807 1409 c 0,61,-1
 829 1409 l 0,62,63
 903 1409 903 1409 967.5 1383.5 c 128,-1,64
 1032 1358 1032 1358 1073 1302.5 c 128,-1,65
 1114 1247 1114 1247 1114 1190 c 0,66,-1
 1114 872 l 0,67,68
 1114 819 1114 819 1053 760 c 0,69,70
 1002 713 1002 713 791 584 c 0,71,72
 725 539 725 539 659 500 c 0,73,74
 612 471 612 471 594 461 c 0,75,-1
 594 332 l 0,76,77
 594 301 594 301 618 270 c 0,78,79
 651 241 651 241 684 242 c 0,80,-1
 950 242 l 0,81,82
 975 242 975 242 1012 272 c 0,83,84
 1045 311 1045 311 1044 344 c 0,85,-1
 1044 459 l 0,86,-1
 1321 459 l 0,87,-1
 1321 330 l 0,88,89
 1321 293 1321 293 1358 266.5 c 128,-1,90
 1395 240 1395 240 1442 240 c 0,91,-1
 1675 240 l 0,92,93
 1700 240 1700 240 1736 272.5 c 128,-1,94
 1772 305 1772 305 1772 344 c 0,95,-1
 1772 539 l 0,96,97
 1772 576 1772 576 1749 591 c 128,-1,98
 1726 606 1726 606 1694 606 c 0,99,-1
 1597 606 l 0,100,-1
 1597 840 l 0,101,-1
 1794 840 l 0,102,103
 1903 840 1903 840 1976.5 759 c 128,-1,104
 2050 678 2050 678 2050 575 c 0,105,-1
 2052 287 l 0,0,1
EndSplineSet
EndChar

StartChar: auvowel
Encoding: 118 3220 118
Width: 1966
Flags: W
LayerCount: 2
Fore
SplineSet
2103 1040 m 1,0,-1
 1444 1040 l 2,1,2
 1340 1040 1340 1040 1260 1121 c 128,-1,3
 1180 1202 1180 1202 1180 1327 c 2,4,-1
 1180 1573 l 1,5,-1
 1753 1573 l 1,6,-1
 1753 1341 l 1,7,-1
 1430 1341 l 1,8,-1
 1430 1327 l 2,9,10
 1430 1317 1430 1317 1437 1307.5 c 128,-1,11
 1444 1298 1444 1298 1446 1294 c 0,12,13
 1464 1276 1464 1276 1493 1276 c 2,14,-1
 1825 1276 l 1,15,-1
 1825 1630 l 2,16,17
 1825 1669 1825 1669 1792 1697.5 c 128,-1,18
 1759 1726 1759 1726 1712 1726 c 2,19,-1
 1153 1726 l 1,20,21
 1163 1708 1163 1708 1163 1686 c 2,22,-1
 1163 1632 l 2,23,24
 1163 1560 1163 1560 1118 1509 c 1,25,26
 1067 1458 1067 1458 1008 1458 c 2,27,-1
 330 1458 l 1,28,-1
 330 1690 l 1,29,-1
 907 1690 l 2,30,31
 923 1690 923 1690 930.5 1699 c 128,-1,32
 938 1708 938 1708 940 1712 c 128,-1,33
 942 1716 942 1716 944 1720 c 1,34,35
 919 1722 919 1722 903 1726 c 1,36,-1
 328 1724 l 1,37,-1
 328 1958 l 1,38,-1
 1741 1958 l 2,39,40
 1837 1958 1837 1958 1919 1925 c 1,41,42
 2005 1882 2005 1882 2050 1823 c 0,43,44
 2073 1790 2073 1790 2087 1756 c 128,-1,45
 2101 1722 2101 1722 2101 1686 c 2,46,-1
 2103 1040 l 1,0,-1
2044 262 m 2,47,48
 2044 211 2044 211 2028.5 168 c 128,-1,49
 2013 125 2013 125 1982 82 c 1,50,51
 1914 6 1914 6 1819 6 c 2,52,-1
 1360 6 l 2,53,54
 1292 6 1292 6 1235 49 c 1,55,56
 1198 72 1198 72 1174 109 c 1,57,58
 1166 93 1166 93 1149 76 c 0,59,60
 1145 72 1145 72 1120 49 c 1,61,62
 1067 10 1067 10 1016 10 c 2,63,-1
 633 12 l 2,64,65
 506 12 506 12 407.5 99 c 128,-1,66
 309 186 309 186 309 305 c 2,67,-1
 309 561 l 1,68,-1
 578 723 l 1,69,70
 674 789 674 789 707 811 c 0,71,72
 773 854 773 854 786 868 c 1,73,74
 833 905 833 905 834 944 c 2,75,-1
 834 1143 l 2,76,77
 834 1176 834 1176 768 1176 c 2,78,-1
 586 1176 l 1,79,-1
 586 1090 l 2,80,81
 586 1072 586 1072 604.5 1050 c 128,-1,82
 623 1028 623 1028 651 1028 c 2,83,-1
 731 1028 l 1,84,-1
 731 795 l 1,85,-1
 573 795 l 2,86,87
 464 795 464 795 384.5 883 c 128,-1,88
 305 971 305 971 305 1090 c 2,89,-1
 305 1407 l 1,90,-1
 825 1407 l 2,91,92
 899 1407 899 1407 967.5 1378.5 c 128,-1,93
 1036 1350 1036 1350 1067 1303 c 1,94,95
 1110 1246 1110 1246 1110 1188 c 2,96,-1
 1110 870 l 2,97,98
 1110 825 1110 825 1065 782 c 1,99,100
 1028 737 1028 737 969 700 c 1,101,102
 922 663 922 663 768 569 c 1,103,-1
 588 455 l 1,104,-1
 588 326 l 2,105,106
 588 289 588 289 612 266 c 1,107,108
 637 235 637 235 680 236 c 2,109,-1
 975 236 l 2,110,111
 998 236 998 236 1017 266.5 c 128,-1,112
 1036 297 1036 297 1038 306 c 128,-1,113
 1040 315 1040 315 1040 338 c 2,114,-1
 1040 453 l 1,115,-1
 1315 453 l 1,116,-1
 1315 324 l 2,117,118
 1315 295 1315 295 1340.5 264 c 128,-1,119
 1366 233 1366 233 1409 233 c 2,120,-1
 1642 233 l 2,121,122
 1689 233 1689 233 1729 266 c 1,123,124
 1768 311 1768 311 1767 336 c 2,125,-1
 1767 530 l 2,126,127
 1767 561 1767 561 1741.5 579.5 c 128,-1,128
 1716 598 1716 598 1683 598 c 2,129,-1
 1593 598 l 1,130,-1
 1593 831 l 1,131,-1
 1819 831 l 2,132,133
 1876 831 1876 831 1912 819 c 128,-1,134
 1948 807 1948 807 1980 774 c 1,135,136
 2046 715 2046 715 2046 625 c 2,137,-1
 2044 262 l 2,47,48
EndSplineSet
EndChar

StartChar: ka.base
Encoding: 120 -1 120
Width: 1134
Flags: W
AnchorPoint: "s" 569 -127 basechar 0
LayerCount: 2
Fore
SplineSet
1565 788 m 1,0,-1
 1190 788 l 1,1,2
 1235 757 1235 757 1267.5 726.5 c 128,-1,3
 1300 696 1300 696 1337 657 c 1,4,5
 1413 563 1413 563 1413 483 c 2,6,-1
 1413 279 l 2,7,8
 1413 170 1413 170 1337.5 96.5 c 128,-1,9
 1262 23 1262 23 1167 14 c 1,10,-1
 614 12 l 2,11,12
 512 12 512 12 446 72 c 0,13,14
 407 105 407 105 393 137.5 c 128,-1,15
 379 170 379 170 379 217 c 2,16,-1
 379 461 l 2,17,18
 379 592 379 592 612 793 c 1,19,-1
 201 793 l 1,20,-1
 201 1024 l 1,21,-1
 756 1024 l 1,22,-1
 756 1169 l 1,23,-1
 201 1169 l 1,24,-1
 201 1401 l 1,25,-1
 1214 1401 l 1,26,-1
 1214 1169 l 1,27,-1
 1034 1169 l 1,28,-1
 1034 1024 l 1,29,-1
 1565 1024 l 1,30,-1
 1565 788 l 1,0,-1
1139 332 m 1,31,-1
 1139 455 l 2,32,33
 1139 527 1139 527 1073 594 c 0,34,35
 1036 633 1036 633 996 665.5 c 128,-1,36
 956 698 956 698 899 727 c 1,37,38
 653 598 653 598 653 469 c 2,39,-1
 653 324 l 2,40,41
 653 295 653 295 676 264 c 1,42,43
 684 260 684 260 696.5 255 c 128,-1,44
 709 250 709 250 739 250 c 2,45,-1
 1085 242 l 2,46,47
 1097 242 1097 242 1116 260 c 1,48,49
 1133 293 1133 293 1139 332 c 1,31,-1
EndSplineSet
EndChar

StartChar: ka.imathra
Encoding: 121 -1 121
Width: 1333
Flags: W
AnchorPoint: "s" 553 -164 basechar 0
LayerCount: 2
Fore
SplineSet
1423 791 m 1,0,-1
 1147 791 l 1,1,2
 1194 760 1194 760 1237 721 c 0,3,4
 1268 692 1268 692 1311 645 c 1,5,6
 1391 541 1391 541 1391 453 c 2,7,-1
 1391 219 l 2,8,9
 1391 176 1391 176 1375.5 140 c 128,-1,10
 1360 104 1360 104 1327 72 c 1,11,12
 1259 11 1259 11 1165 10 c 2,13,-1
 606 12 l 2,14,15
 504 12 504 12 428 72 c 1,16,17
 354 138 354 138 354 219 c 2,18,-1
 354 485 l 2,19,20
 354 522 354 522 377 559 c 0,21,22
 385 569 385 569 411.5 603 c 128,-1,23
 438 637 438 637 508 699.5 c 128,-1,24
 578 762 578 762 610 793 c 1,25,-1
 293 793 l 1,26,-1
 293 1026 l 1,27,-1
 827 1026 l 1,28,-1
 995 1225 l 1,29,-1
 995 1511 l 2,30,31
 995 1515 995 1515 991 1519.5 c 128,-1,32
 987 1524 987 1524 985 1526 c 1,33,-1
 862 1526 l 1,34,-1
 862 1430 l 1,35,-1
 870 1415 l 1,36,-1
 899 1405 l 1,37,-1
 950 1405 l 1,38,-1
 950 1174 l 1,39,-1
 813 1174 l 2,40,41
 725 1174 725 1174 655.5 1229 c 128,-1,42
 586 1284 586 1284 586 1358 c 2,43,-1
 586 1759 l 1,44,-1
 1047 1759 l 2,45,46
 1143 1759 1143 1759 1208.5 1704 c 128,-1,47
 1274 1649 1274 1649 1274 1552 c 2,48,-1
 1272 1180 l 1,49,-1
 1141 1026 l 1,50,-1
 1423 1026 l 1,51,-1
 1423 791 l 1,0,-1
1114 295 m 1,52,-1
 1114 457 l 2,53,54
 1114 531 1114 531 868 719 c 1,55,56
 628 524 628 524 629 444 c 2,57,-1
 629 268 l 2,58,59
 629 254 629 254 645.5 242.5 c 128,-1,60
 662 231 662 231 680 231 c 2,61,-1
 1071 231 l 2,62,63
 1085 231 1085 231 1097.5 251.5 c 128,-1,64
 1110 272 1110 272 1114 295 c 1,52,-1
EndSplineSet
LCarets2: 1 0
EndChar

StartChar: ka.sub
Encoding: 122 -1 122
Width: 352
Flags: W
AnchorPoint: "Sub" -393 594 mark 0
AnchorPoint: "Sub" 623 -823 basemark 0
LayerCount: 2
Fore
SplineSet
733 -315 m 1,0,-1
 514 -315 l 1,1,2
 627 -403 627 -403 627 -479 c 2,3,-1
 627 -639 l 2,4,5
 627 -719 627 -719 551 -784 c 1,6,7
 467 -841 467 -841 373 -842 c 2,8,-1
 20 -842 l 1,9,10
 -76 -834 -76 -834 -156 -768 c 128,-1,11
 -236 -702 -236 -702 -236 -612 c 2,12,-1
 -236 -522 l 2,13,14
 -236 -428 -236 -428 -111 -311 c 1,15,-1
 -362 -311 l 1,16,-1
 -362 -109 l 1,17,-1
 98 -109 l 1,18,-1
 231 29 l 1,19,-1
 332 133 l 1,20,21
 350 156 350 156 350 178 c 2,22,-1
 350 438 l 2,23,24
 350 491 350 491 211 545 c 1,25,-1
 385 684 l 1,26,27
 598 545 598 545 598 459 c 2,28,-1
 598 143 l 2,29,30
 598 120 598 120 585.5 98 c 128,-1,31
 573 76 573 76 545 43 c 1,32,-1
 379 -117 l 1,33,-1
 733 -117 l 1,34,-1
 733 -315 l 1,0,-1
381 -584 m 2,35,-1
 381 -487 l 2,36,37
 381 -469 381 -469 368.5 -449.5 c 128,-1,38
 356 -430 356 -430 328 -399 c 1,39,40
 281 -360 281 -360 186 -328 c 1,41,42
 106 -353 106 -353 61 -405 c 128,-1,43
 16 -457 16 -457 16 -518 c 2,44,-1
 16 -598 l 2,45,46
 16 -621 16 -621 33 -637 c 1,47,48
 64 -655 64 -655 96 -655 c 2,49,-1
 328 -655 l 2,50,51
 351 -655 351 -655 366 -633 c 128,-1,52
 381 -611 381 -611 381 -584 c 2,35,-1
EndSplineSet
LCarets2: 1 0
EndChar

StartChar: ka_rvocalicmatra.sub
Encoding: 123 -1 123
Width: 698
Flags: W
LayerCount: 2
Fore
SplineSet
1427 -549 m 1,0,1
 1427 -672 1427 -672 1346 -754 c 1,2,3
 1266 -842 1266 -842 1135 -842 c 2,4,-1
 317 -838 l 2,5,6
 215 -838 215 -838 139 -769 c 128,-1,7
 63 -700 63 -700 63 -610 c 2,8,-1
 63 -227 l 1,9,-1
 311 -227 l 1,10,-1
 240 -182 l 1,11,12
 181 -131 181 -131 180 -86 c 2,13,-1
 180 104 l 2,14,15
 180 186 180 186 283 268 c 1,16,-1
 94 268 l 1,17,-1
 94 473 l 1,18,-1
 510 473 l 1,19,-1
 510 690 l 1,20,-1
 784 690 l 1,21,-1
 784 473 l 1,22,-1
 1194 473 l 1,23,-1
 1194 268 l 1,24,-1
 963 268 l 1,25,26
 992 256 992 256 1016 231 c 1,27,28
 1032 208 1032 208 1051 186 c 1,29,30
 1076 147 1076 147 1075 109 c 2,31,-1
 1075 -10 l 2,32,33
 1075 -119 1075 -119 993 -186 c 1,34,35
 913 -266 913 -266 799 -266 c 2,36,-1
 633 -266 l 1,37,-1
 633 -426 l 1,38,-1
 313 -426 l 1,39,-1
 313 -580 l 1,40,41
 321 -603 321 -603 330 -604 c 1,42,43
 363 -627 363 -627 385 -627 c 2,44,-1
 1090 -627 l 2,45,46
 1106 -627 1106 -627 1122 -590 c 1,47,48
 1145 -553 1145 -553 1145 -496 c 2,49,-1
 1145 49 l 2,50,51
 1145 88 1145 88 1051 131 c 1,52,-1
 1237 297 l 1,53,54
 1284 272 1284 272 1315 250.5 c 128,-1,55
 1346 229 1346 229 1370 199 c 1,56,57
 1417 127 1417 127 1417 55 c 2,58,-1
 1427 -549 l 1,0,1
817 18 m 1,59,-1
 817 109 l 2,60,61
 817 132 817 132 809 158 c 128,-1,62
 801 184 801 184 782 203 c 1,63,64
 757 244 757 244 696 266 c 1,65,-1
 539 266 l 1,66,67
 488 235 488 235 457 199 c 1,68,69
 449 185 449 185 439.5 163 c 128,-1,70
 430 141 430 141 430 117 c 2,71,-1
 430 -20 l 2,72,73
 430 -43 430 -43 444 -51 c 2,74,-1
 471 -68 l 1,75,-1
 786 -66 l 2,76,77
 796 -66 796 -66 808.5 -42.5 c 128,-1,78
 821 -19 821 -19 817 18 c 1,59,-1
EndSplineSet
EndChar

StartChar: kha
Encoding: 124 3222 124
Width: 2009
Flags: W
LayerCount: 2
Fore
SplineSet
2087 231 m 2,0,1
 2087 145 2087 145 2040 70 c 1,2,3
 1974 -4 1974 -4 1909 -4 c 2,4,-1
 1595 -4 l 2,5,6
 1515 -4 1515 -4 1411 70 c 1,7,-1
 1260 166 l 1,8,9
 1244 129 1244 129 1222 103.5 c 128,-1,10
 1200 78 1200 78 1163 53 c 0,11,12
 1081 -4 1081 -4 985 -4 c 2,13,-1
 485 -4 l 1,14,15
 448 0 448 0 410.5 12.5 c 128,-1,16
 373 25 373 25 339 48.5 c 128,-1,17
 305 72 305 72 286.5 104.5 c 128,-1,18
 268 137 268 137 268 170 c 2,19,-1
 268 438 l 2,20,21
 268 524 268 524 328 582 c 1,22,23
 396 633 396 633 477 633 c 2,24,-1
 901 633 l 2,25,26
 981 633 981 633 1026 604 c 1,27,-1
 1026 1073 l 2,28,29
 1026 1110 1026 1110 1010 1141 c 1,30,31
 996 1157 996 1157 979 1157 c 2,32,-1
 713 1157 l 1,33,-1
 702 1149 l 1,34,35
 694 1133 694 1133 694 1090 c 2,36,-1
 694 864 l 1,37,-1
 414 864 l 1,38,-1
 414 1169 l 2,39,40
 414 1265 414 1265 487 1327 c 1,41,42
 548 1386 548 1386 668 1386 c 2,43,-1
 1034 1386 l 2,44,45
 1145 1386 1145 1386 1225 1305.5 c 128,-1,46
 1305 1225 1305 1225 1305 1114 c 2,47,-1
 1305 426 l 1,48,-1
 1499 268 l 1,49,50
 1558 217 1558 217 1630 217 c 2,51,-1
 1763 217 l 2,52,53
 1786 217 1786 217 1798 242.5 c 128,-1,54
 1810 268 1810 268 1810 305 c 2,55,-1
 1810 1094 l 2,56,57
 1810 1125 1810 1125 1788.5 1139 c 128,-1,58
 1767 1153 1767 1153 1735 1153 c 2,59,-1
 1462 1153 l 1,60,-1
 1462 1382 l 1,61,-1
 1831 1382 l 2,62,63
 1884 1382 1884 1382 1928 1368 c 128,-1,64
 1972 1354 1972 1354 2009 1317 c 1,65,66
 2089 1245 2089 1245 2089 1149 c 2,67,-1
 2087 231 l 2,0,1
1018 281 m 1,68,-1
 1018 338 l 1,69,70
 971 395 971 395 862 395 c 2,71,-1
 600 395 l 2,72,73
 567 395 567 395 551 387 c 1,74,-1
 537 383 l 1,75,-1
 537 256 l 1,76,77
 545 240 545 240 549 238 c 0,78,79
 567 224 567 224 586 223 c 2,80,-1
 940 223 l 2,81,82
 971 223 971 223 993 246 c 1,83,84
 1016 263 1016 263 1018 281 c 1,68,-1
EndSplineSet
LCarets2: 1 0
EndChar

StartChar: kha.base
Encoding: 125 -1 125
Width: 1662
Flags: W
LayerCount: 2
Fore
SplineSet
2091 231 m 2,0,1
 2091 137 2091 137 2036.5 66.5 c 128,-1,2
 1982 -4 1982 -4 1907 -4 c 1,3,-1
 1903 0 l 1,4,-1
 1593 0 l 2,5,6
 1513 0 1513 0 1409 74 c 1,7,-1
 1276 154 l 1,8,9
 1258 95 1258 95 1178 47.5 c 128,-1,10
 1098 0 1098 0 989 0 c 2,11,-1
 508 0 l 2,12,13
 412 0 412 0 340 47 c 1,14,15
 307 72 307 72 288.5 104.5 c 128,-1,16
 270 137 270 137 270 170 c 2,17,-1
 270 438 l 2,18,19
 270 524 270 524 332.5 578.5 c 128,-1,20
 395 633 395 633 492 633 c 2,21,-1
 903 633 l 2,22,23
 983 633 983 633 1028 604 c 1,24,-1
 1028 1102 l 2,25,26
 1028 1125 1028 1125 1013.5 1141 c 128,-1,27
 999 1157 999 1157 977 1157 c 2,28,-1
 743 1157 l 2,29,30
 720 1157 720 1157 707 1147 c 1,31,32
 693 1124 693 1124 692 1092 c 2,33,-1
 692 866 l 1,34,-1
 416 866 l 1,35,-1
 416 1171 l 2,36,37
 416 1267 416 1267 489 1329 c 1,38,39
 520 1358 520 1358 568 1373.5 c 128,-1,40
 616 1389 616 1389 668 1389 c 2,41,-1
 1036 1389 l 2,42,43
 1147 1389 1147 1389 1226 1309 c 128,-1,44
 1305 1229 1305 1229 1305 1114 c 2,45,-1
 1305 424 l 1,46,-1
 1499 299 l 1,47,48
 1587 219 1587 219 1632 219 c 2,49,-1
 1798 219 l 2,50,51
 1814 219 1814 219 1815 242 c 2,52,-1
 1815 948 l 2,53,54
 1815 1042 1815 1042 1749 1094 c 1,55,56
 1681 1153 1681 1153 1591 1153 c 2,57,-1
 1468 1153 l 1,58,-1
 1468 1382 l 1,59,-1
 1729 1382 l 1,60,61
 1838 1368 1838 1368 1923 1307 c 1,62,63
 2005 1239 2005 1239 2050 1153 c 1,64,65
 2073 1096 2073 1096 2084 1053 c 128,-1,66
 2095 1010 2095 1010 2095 950 c 2,67,-1
 2091 231 l 2,0,1
1024 283 m 1,68,-1
 1024 322 l 1,69,70
 938 396 938 396 827 395 c 2,71,-1
 573 395 l 2,72,73
 557 395 557 395 549 391 c 1,74,-1
 545 383 l 1,75,-1
 545 256 l 1,76,77
 549 240 549 240 553 238 c 0,78,79
 571 224 571 224 590 223 c 2,80,-1
 944 223 l 2,81,82
 969 223 969 223 994.5 241.5 c 128,-1,83
 1020 260 1020 260 1024 283 c 1,68,-1
EndSplineSet
EndChar

StartChar: kha.imathra
Encoding: 126 -1 126
Width: 2009
Flags: W
LayerCount: 2
Fore
SplineSet
2091 233 m 2,0,1
 2091 137 2091 137 2036.5 66.5 c 128,-1,2
 1982 -4 1982 -4 1907 -4 c 1,3,-1
 1903 0 l 1,4,-1
 1593 0 l 2,5,6
 1513 0 1513 0 1409 74 c 1,7,-1
 1257 168 l 1,8,9
 1228 100 1228 100 1171 55 c 1,10,11
 1089 2 1089 2 1008 2 c 2,12,-1
 508 2 l 2,13,14
 412 2 412 2 340 49 c 1,15,16
 307 74 307 74 288.5 106.5 c 128,-1,17
 270 139 270 139 270 172 c 2,18,-1
 270 444 l 2,19,20
 270 530 270 530 336 584 c 1,21,22
 393 637 393 637 494 637 c 2,23,-1
 905 637 l 2,24,25
 966 637 966 637 1028 584 c 1,26,-1
 1028 1081 l 2,27,28
 1028 1114 1028 1114 1006 1143 c 0,29,30
 996 1153 996 1153 983.5 1158 c 128,-1,31
 971 1163 971 1163 954 1163 c 2,32,-1
 745 1163 l 2,33,34
 729 1163 729 1163 711 1149 c 1,35,36
 697 1126 697 1126 696 1096 c 2,37,-1
 696 866 l 1,38,-1
 420 866 l 1,39,-1
 420 1176 l 2,40,41
 420 1276 420 1276 494 1333 c 1,42,43
 527 1366 527 1366 574 1380.5 c 128,-1,44
 621 1395 621 1395 672 1395 c 2,45,-1
 1040 1395 l 2,46,47
 1151 1395 1151 1395 1230 1315 c 128,-1,48
 1309 1235 1309 1235 1309 1118 c 2,49,-1
 1309 432 l 1,50,-1
 1470 301 l 1,51,52
 1599 221 1599 221 1696 221 c 2,53,-1
 1769 221 l 2,54,55
 1787 221 1787 221 1802 236.5 c 128,-1,56
 1817 252 1817 252 1817 270 c 2,57,-1
 1817 1278 l 2,58,59
 1817 1309 1817 1309 1804.5 1327.5 c 128,-1,60
 1792 1346 1792 1346 1769 1346 c 2,61,-1
 1696 1346 l 2,62,63
 1671 1346 1671 1346 1663 1343 c 1,64,-1
 1661 1333 l 1,65,-1
 1659 1294 l 1,66,67
 1663 1257 1663 1257 1671 1248 c 128,-1,68
 1679 1239 1679 1239 1684.5 1235 c 128,-1,69
 1690 1231 1690 1231 1694 1231 c 2,70,-1
 1804 1231 l 1,71,-1
 1804 999 l 1,72,-1
 1589 999 l 2,73,74
 1503 999 1503 999 1442 1065 c 1,75,76
 1381 1124 1381 1124 1380 1212 c 2,77,-1
 1380 1401 l 2,78,79
 1380 1481 1380 1481 1452 1532 c 128,-1,80
 1524 1583 1524 1583 1624 1583 c 2,81,-1
 1858 1583 l 2,82,83
 1958 1583 1958 1583 2027.5 1511.5 c 128,-1,84
 2097 1440 2097 1440 2097 1335 c 2,85,-1
 2091 233 l 2,0,1
1026 285 m 1,86,-1
 1026 315 l 1,87,88
 926 397 926 397 844 397 c 2,89,-1
 596 397 l 2,90,91
 563 397 563 397 553 393 c 1,92,-1
 549 385 l 1,93,-1
 549 274 l 1,94,-1
 557 238 l 1,95,-1
 571 223 l 1,96,-1
 954 223 l 2,97,98
 977 223 977 223 1003.5 242.5 c 128,-1,99
 1030 262 1030 262 1026 285 c 1,86,-1
EndSplineSet
LCarets2: 1 0
EndChar

StartChar: kha.sub
Encoding: 127 -1 127
Width: 333
Flags: W
AnchorPoint: "Sub" -621 592 mark 0
AnchorPoint: "Sub" 674 -821 basemark 0
LayerCount: 2
Fore
SplineSet
682 -475 m 2,0,1
 682 -534 682 -534 658.5 -589.5 c 128,-1,2
 635 -645 635 -645 592 -688 c 0,3,4
 498 -782 498 -782 367 -782 c 2,5,-1
 225 -782 l 2,6,7
 188 -782 188 -782 63 -739 c 1,8,9
 -76 -835 -76 -835 -158 -836 c 2,10,-1
 -467 -836 l 2,11,12
 -506 -836 -506 -836 -546 -821.5 c 128,-1,13
 -586 -807 -586 -807 -616 -784 c 0,14,15
 -677 -737 -677 -737 -678 -664 c 2,16,-1
 -678 -545 l 2,17,18
 -678 -465 -678 -465 -616 -406 c 0,19,20
 -587 -377 -587 -377 -550.5 -364.5 c 128,-1,21
 -514 -352 -514 -352 -467 -352 c 2,22,-1
 -233 -352 l 2,23,24
 -188 -352 -188 -352 -170 -367 c 2,25,-1
 -59 -438 l 1,26,-1
 -59 -313 l 2,27,28
 -59 -276 -59 -276 -84 -246 c 1,29,30
 -115 -221 -115 -221 -147 -221 c 1,31,-1
 -147 -326 l 1,32,-1
 -393 -326 l 1,33,-1
 -393 -27 l 1,34,-1
 -92 -27 l 2,35,36
 33 -27 33 -27 114 -114 c 128,-1,37
 195 -201 195 -201 195 -315 c 2,38,-1
 195 -578 l 1,39,40
 224 -594 224 -594 252 -594 c 2,41,-1
 369 -594 l 2,42,43
 398 -594 398 -594 412 -563 c 1,44,45
 437 -518 437 -518 436 -471 c 2,46,-1
 436 375 l 2,47,48
 436 400 436 400 406.5 423 c 128,-1,49
 377 446 377 446 319 446 c 2,50,-1
 182 446 l 1,51,-1
 182 659 l 1,52,-1
 338 659 l 2,53,54
 475 659 475 659 580 586 c 1,55,56
 682 500 682 500 682 389 c 2,57,-1
 682 -475 l 2,0,1
-145 -633 m 1,58,59
 -225 -576 -225 -576 -299 -575 c 2,60,-1
 -428 -575 l 2,61,62
 -436 -575 -436 -575 -441 -576.5 c 128,-1,63
 -446 -578 -446 -578 -449 -580 c 1,64,-1
 -449 -645 l 1,65,-1
 -426 -649 l 1,66,-1
 -188 -649 l 1,67,-1
 -145 -633 l 1,58,59
EndSplineSet
LCarets2: 1 0
EndChar

StartChar: ga.base
Encoding: 129 -1 129
Width: 1183
Flags: W
LayerCount: 2
Fore
SplineSet
1614 0 m 1,0,-1
 1339 0 l 1,1,-1
 1339 987 l 2,2,3
 1339 1010 1339 1010 1331 1030.5 c 128,-1,4
 1323 1051 1323 1051 1309 1073 c 0,5,6
 1278 1116 1278 1116 1227 1141 c 0,7,8
 1198 1155 1198 1155 1175.5 1157 c 128,-1,9
 1153 1159 1153 1159 1114 1159 c 2,10,-1
 895 1159 l 2,11,12
 805 1159 805 1159 746.5 1109 c 128,-1,13
 688 1059 688 1059 688 983 c 2,14,-1
 688 -4 l 1,15,-1
 408 -4 l 1,16,-1
 408 995 l 2,17,18
 408 1085 408 1085 483 1159 c 1,19,-1
 408 1159 l 1,20,-1
 408 1391 l 1,21,-1
 1251 1391 l 1,22,23
 1413 1358 1413 1358 1518 1243 c 1,24,25
 1618 1120 1618 1120 1618 983 c 2,26,-1
 1614 0 l 1,0,-1
EndSplineSet
EndChar

StartChar: ga.imathra
Encoding: 130 -1 130
Width: 1566
Flags: W
LayerCount: 2
Fore
SplineSet
1645 0 m 1,0,-1
 1368 0 l 1,1,-1
 1368 997 l 2,2,3
 1368 1071 1368 1071 1324 1122.5 c 128,-1,4
 1280 1174 1280 1174 1212 1174 c 2,5,-1
 831 1174 l 2,6,7
 763 1174 763 1174 727 1128 c 1,8,9
 684 1083 684 1083 684 1010 c 2,10,-1
 684 2 l 1,11,-1
 403 2 l 1,12,-1
 403 999 l 2,13,14
 403 1112 403 1112 455 1186 c 1,15,16
 488 1247 488 1247 547 1290 c 1,17,18
 494 1308 494 1308 455 1354 c 1,19,20
 430 1379 430 1379 418 1411.5 c 128,-1,21
 406 1444 406 1444 406 1481 c 2,22,-1
 406 1618 l 2,23,24
 406 1698 406 1698 477 1757 c 1,25,26
 547 1810 547 1810 647 1810 c 2,27,-1
 1038 1810 l 2,28,29
 1206 1810 1206 1810 1343.5 1726 c 128,-1,30
 1481 1642 1481 1642 1567 1491 c 1,31,32
 1647 1331 1647 1331 1647 1163 c 2,33,-1
 1645 0 l 1,0,-1
1346 1358 m 1,34,35
 1313 1438 1313 1438 1237 1497 c 1,36,37
 1122 1577 1122 1577 971 1577 c 2,38,-1
 766 1577 l 2,39,40
 715 1577 715 1577 700.5 1573 c 128,-1,41
 686 1569 686 1569 686 1546 c 2,42,-1
 686 1481 l 2,43,44
 686 1444 686 1444 697.5 1424.5 c 128,-1,45
 709 1405 709 1405 717 1403 c 1,46,-1
 1214 1403 l 2,47,48
 1295 1403 1295 1403 1346 1358 c 1,34,35
EndSplineSet
LCarets2: 1 0
EndChar

StartChar: ga.sub
Encoding: 131 -1 131
Width: 202
Flags: W
AnchorPoint: "Sub" -434 -119 mark 0
AnchorPoint: "Sub" 422 -856 basemark 0
LayerCount: 2
Fore
SplineSet
440 -840 m 1,0,-1
 193 -840 l 1,1,-1
 193 -395 l 2,2,3
 193 -379 193 -379 184.5 -364.5 c 128,-1,4
 176 -350 176 -350 162 -336 c 1,5,6
 133 -313 133 -313 96 -313 c 2,7,-1
 -78 -313 l 2,8,9
 -121 -313 -121 -313 -147 -332 c 1,10,11
 -170 -357 -170 -357 -170 -393 c 2,12,-1
 -170 -838 l 1,13,-1
 -422 -838 l 1,14,-1
 -422 -393 l 2,15,16
 -422 -270 -422 -270 -334 -190 c 1,17,18
 -254 -110 -254 -110 -127 -111 c 2,19,-1
 125 -111 l 2,20,21
 252 -111 252 -111 348 -182 c 0,22,23
 393 -215 393 -215 415.5 -263 c 128,-1,24
 438 -311 438 -311 438 -365 c 2,25,-1
 440 -840 l 1,0,-1
EndSplineSet
LCarets2: 1 0
EndChar

StartChar: gha.base
Encoding: 133 -1 133
Width: 2086
Flags: W
LayerCount: 2
Fore
SplineSet
2546 1165 m 1,0,-1
 1911 1165 l 1,1,2
 1977 1097 1977 1097 1987 999 c 1,3,4
 2081 856 2081 856 2154 856 c 1,5,6
 2191 858 2191 858 2214 877 c 1,7,8
 2237 906 2237 906 2236 913 c 2,9,-1
 2236 1124 l 1,10,-1
 2511 1124 l 1,11,-1
 2511 942 l 2,12,13
 2511 899 2511 899 2502.5 863 c 128,-1,14
 2494 827 2494 827 2478 782 c 1,15,16
 2441 708 2441 708 2388 666 c 1,17,18
 2363 650 2363 650 2334.5 637.5 c 128,-1,19
 2306 625 2306 625 2261 625 c 2,20,-1
 2144 627 l 2,21,22
 2062 627 2062 627 1995 678 c 1,23,-1
 1993 291 l 2,24,25
 1993 168 1993 168 1917 86 c 1,26,27
 1843 -4 1843 -4 1739 -4 c 2,28,-1
 1386 -4 l 2,29,30
 1296 -4 1296 -4 1235 57 c 0,31,32
 1219 73 1219 73 1193 99 c 128,-1,33
 1167 125 1167 125 1157 150 c 1,34,35
 1132 99 1132 99 1081 57 c 1,36,37
 1022 -4 1022 -4 942 -4 c 2,38,-1
 573 -2 l 2,39,40
 479 -2 479 -2 413.5 74 c 128,-1,41
 348 150 348 150 348 252 c 2,42,-1
 348 856 l 1,43,-1
 690 856 l 2,44,45
 756 856 756 856 801 840.5 c 128,-1,46
 846 825 846 825 889 782 c 1,47,48
 977 706 977 706 977 592 c 2,49,-1
 977 518 l 1,50,-1
 696 518 l 1,51,-1
 696 580 l 2,52,53
 696 596 696 596 685 610.5 c 128,-1,54
 674 625 674 625 645 625 c 2,55,-1
 623 625 l 1,56,-1
 623 311 l 2,57,58
 623 278 623 278 639 256 c 1,59,60
 664 231 664 231 674 231 c 2,61,-1
 907 231 l 2,62,63
 946 231 946 231 975 285 c 1,64,65
 1014 346 1014 346 1014 420 c 2,66,-1
 1014 582 l 1,67,-1
 1290 582 l 1,68,-1
 1290 420 l 2,69,70
 1290 361 1290 361 1334 295 c 128,-1,71
 1378 229 1378 229 1411 229 c 2,72,-1
 1645 229 l 2,73,74
 1663 229 1663 229 1692 252 c 1,75,76
 1710 275 1710 275 1710 311 c 2,77,-1
 1710 965 l 2,78,79
 1710 1047 1710 1047 1634.5 1108 c 128,-1,80
 1559 1169 1559 1169 1454 1169 c 2,81,-1
 332 1169 l 1,82,-1
 332 1401 l 1,83,-1
 2550 1401 l 1,84,-1
 2546 1165 l 1,0,-1
1286 815 m 1,85,-1
 1010 815 l 1,86,-1
 1010 1075 l 1,87,-1
 1286 1075 l 1,88,-1
 1286 815 l 1,85,-1
1286 -289 m 1,89,-1
 1010 -289 l 1,90,-1
 1010 25 l 1,91,-1
 1286 25 l 1,92,-1
 1286 -289 l 1,89,-1
EndSplineSet
EndChar

StartChar: gha.imathra
Encoding: 134 -1 134
Width: 2484
Flags: W
LayerCount: 2
Fore
SplineSet
1286 1223 m 2,0,1
 1286 1119 1286 1119 1219 1053 c 1,2,3
 1153 985 1153 985 1063 985 c 2,4,-1
 659 985 l 1,5,-1
 659 1217 l 1,6,-1
 969 1217 l 1,7,8
 987 1221 987 1221 997 1235 c 1,9,10
 1007 1258 1007 1258 1008 1276 c 2,11,-1
 1008 1509 l 2,12,13
 1008 1542 1008 1542 997 1565 c 1,14,15
 987 1579 987 1579 971 1579 c 2,16,-1
 866 1579 l 2,17,18
 850 1579 850 1579 850 1565 c 2,19,-1
 850 1507 l 1,20,-1
 852 1493 l 1,21,-1
 866 1485 l 1,22,-1
 995 1485 l 1,23,-1
 995 1251 l 1,24,-1
 780 1251 l 2,25,26
 700 1251 700 1251 635 1311 c 1,27,28
 574 1362 574 1362 573 1442 c 2,29,-1
 573 1593 l 2,30,31
 573 1644 573 1644 588.5 1681 c 128,-1,32
 604 1718 604 1718 643 1749 c 1,33,34
 704 1810 704 1810 807 1810 c 2,35,-1
 1087 1810 l 2,36,37
 1175 1810 1175 1810 1229 1749 c 1,38,39
 1286 1692 1286 1692 1286 1597 c 2,40,-1
 1286 1223 l 2,0,1
2572 942 m 1,41,42
 2572 825 2572 825 2506.5 749.5 c 128,-1,43
 2441 674 2441 674 2345 674 c 2,44,-1
 2142 674 l 2,45,46
 2062 674 2062 674 1991 731 c 1,47,-1
 1989 289 l 2,48,49
 1989 166 1989 166 1913 80 c 1,50,51
 1841 -8 1841 -8 1733 -8 c 1,52,-1
 1733 31 l 1,53,-1
 1737 -8 l 1,54,-1
 1384 -6 l 2,55,56
 1298 -6 1298 -6 1227 41 c 0,57,58
 1176 74 1176 74 1151 121 c 1,59,60
 1122 74 1122 74 1077 37 c 1,61,62
 1005 -10 1005 -10 930 -10 c 2,63,-1
 567 -8 l 2,64,65
 473 -8 473 -8 407.5 57.5 c 128,-1,66
 342 123 342 123 342 217 c 2,67,-1
 342 852 l 1,68,-1
 686 852 l 2,69,70
 809 852 809 852 885 784 c 1,71,72
 973 712 973 712 973 612 c 2,73,-1
 973 510 l 1,74,-1
 692 510 l 1,75,-1
 692 600 l 1,76,-1
 678 610 l 1,77,78
 668 614 668 614 637 614 c 2,79,-1
 621 614 l 1,80,-1
 621 299 l 2,81,82
 621 266 621 266 637 242.5 c 128,-1,83
 653 219 653 219 668 219 c 2,84,-1
 901 219 l 2,85,86
 946 219 946 219 975 272 c 1,87,88
 1014 329 1014 329 1014 410 c 2,89,-1
 1014 575 l 1,90,-1
 1290 575 l 1,91,-1
 1288 410 l 2,92,93
 1288 351 1288 351 1335 285 c 1,94,95
 1378 219 1378 219 1411 219 c 2,96,-1
 1645 219 l 2,97,98
 1670 219 1670 219 1691 245.5 c 128,-1,99
 1712 272 1712 272 1712 301 c 2,100,-1
 1712 1077 l 2,101,102
 1712 1108 1712 1108 1683 1141 c 1,103,104
 1660 1159 1660 1159 1616 1159 c 2,105,-1
 1430 1159 l 1,106,-1
 1430 1393 l 1,107,-1
 1688 1393 l 2,108,109
 1776 1393 1776 1393 1842.5 1342.5 c 128,-1,110
 1909 1292 1909 1292 1948 1219 c 1,111,112
 1987 1133 1987 1133 1987 1047 c 1,113,114
 2089 902 2089 902 2144 901 c 2,115,-1
 2249 901 l 2,116,117
 2259 901 2259 901 2273.5 924.5 c 128,-1,118
 2288 948 2288 948 2288 991 c 2,119,-1
 2288 1393 l 1,120,-1
 2562 1393 l 1,121,-1
 2572 942 l 1,41,42
1276 -350 m 1,122,-1
 999 -350 l 1,123,-1
 999 -37 l 1,124,-1
 1276 -37 l 1,125,-1
 1276 -350 l 1,122,-1
EndSplineSet
LCarets2: 1 0
EndChar

StartChar: gha.sub
Encoding: 135 -1 135
Width: 430
Flags: W
AnchorPoint: "Sub" -799 248 mark 0
AnchorPoint: "Sub" 803 -803 basemark 0
LayerCount: 2
Fore
SplineSet
879 -76 m 2,0,1
 879 -223 879 -223 733 -311 c 1,2,-1
 733 -477 l 2,3,4
 733 -522 733 -522 717.5 -562 c 128,-1,5
 702 -602 702 -602 672 -639 c 1,6,7
 604 -711 604 -711 508 -711 c 2,8,-1
 197 -711 l 2,9,10
 121 -711 121 -711 49 -664 c 0,11,12
 -8 -627 -8 -627 -51 -567 c 1,13,14
 -74 -598 -74 -598 -101.5 -626.5 c 128,-1,15
 -129 -655 -129 -655 -160 -672 c 1,16,17
 -242 -729 -242 -729 -324 -729 c 2,18,-1
 -629 -729 l 2,19,20
 -723 -729 -723 -729 -782 -670 c 1,21,22
 -850 -611 -850 -611 -850 -530 c 2,23,-1
 -850 -344 l 2,24,25
 -850 -246 -850 -246 -784 -193 c 1,26,27
 -723 -132 -723 -132 -629 -131 c 2,28,-1
 -311 -131 l 1,29,-1
 -311 -332 l 1,30,-1
 -555 -332 l 2,31,32
 -578 -332 -578 -332 -592 -344 c 128,-1,33
 -606 -356 -606 -356 -606 -375 c 2,34,-1
 -606 -494 l 1,35,-1
 -598 -516 l 1,36,37
 -575 -526 -575 -526 -571 -526 c 2,38,-1
 -305 -526 l 2,39,40
 -274 -526 -274 -526 -223 -467 c 128,-1,41
 -172 -408 -172 -408 -172 -360 c 2,42,-1
 -172 -264 l 1,43,-1
 80 -264 l 1,44,-1
 80 -375 l 2,45,46
 80 -414 80 -414 125 -457 c 1,47,48
 148 -473 148 -473 171.5 -487.5 c 128,-1,49
 195 -502 195 -502 217 -502 c 2,50,-1
 463 -502 l 2,51,52
 488 -502 488 -502 487 -469 c 2,53,-1
 487 -383 l 1,54,-1
 256 -383 l 1,55,-1
 256 -180 l 1,56,-1
 539 -180 l 2,57,58
 578 -180 578 -180 607.5 -145.5 c 128,-1,59
 637 -111 637 -111 637 -72 c 2,60,-1
 637 80 l 2,61,62
 637 94 637 94 518 168 c 1,63,-1
 662 330 l 1,64,65
 881 197 881 197 881 92 c 2,66,-1
 879 -76 l 2,0,1
74 -842 m 1,67,-1
 -178 -842 l 1,68,-1
 -178 -688 l 1,69,-1
 -53 -549 l 1,70,-1
 70 -688 l 1,71,-1
 74 -842 l 1,67,-1
EndSplineSet
LCarets2: 1 0
EndChar

StartChar: nga
Encoding: 136 3225 136
Width: 1873
Flags: W
LayerCount: 2
Fore
SplineSet
1962 238 m 1,0,1
 1962 142 1962 142 1895.5 72 c 128,-1,2
 1829 2 1829 2 1735 2 c 2,3,-1
 1323 4 l 2,4,5
 1251 4 1251 4 1186 47 c 1,6,7
 1147 76 1147 76 1122 119 c 1,8,9
 1118 105 1118 105 1102.5 83 c 128,-1,10
 1087 61 1087 61 1071 47 c 0,11,12
 1018 2 1018 2 952 2 c 2,13,-1
 557 4 l 2,14,15
 467 4 467 4 385 63 c 1,16,17
 313 124 313 124 313 211 c 2,18,-1
 313 512 l 1,19,-1
 752 852 l 2,20,21
 785 877 785 877 784 942 c 2,22,-1
 784 1104 l 2,23,24
 784 1127 784 1127 760 1145 c 1,25,26
 735 1159 735 1159 690 1159 c 2,27,-1
 596 1159 l 1,28,-1
 596 1102 l 2,29,30
 596 1071 596 1071 608.5 1060 c 128,-1,31
 621 1049 621 1049 623 1046.5 c 128,-1,32
 625 1044 625 1044 627 1042 c 1,33,-1
 680 1042 l 1,34,-1
 680 811 l 1,35,-1
 510 813 l 2,36,37
 430 813 430 813 371.5 878.5 c 128,-1,38
 313 944 313 944 313 1038 c 2,39,-1
 313 1393 l 1,40,-1
 733 1393 l 2,41,42
 837 1393 837 1393 918 1354 c 0,43,44
 979 1325 979 1325 1001 1268 c 1,45,46
 1134 1393 1134 1393 1286 1393 c 2,47,-1
 1726 1393 l 2,48,49
 1806 1393 1806 1393 1853 1346 c 1,50,51
 1878 1315 1878 1315 1890.5 1284 c 128,-1,52
 1903 1253 1903 1253 1903 1217 c 2,53,-1
 1903 1030 l 1,54,-1
 1626 1030 l 1,55,-1
 1626 1120 l 2,56,57
 1626 1136 1626 1136 1617 1148.5 c 128,-1,58
 1608 1161 1608 1161 1577 1161 c 2,59,-1
 1354 1161 l 2,60,61
 1295 1161 1295 1161 1251.5 1152 c 128,-1,62
 1208 1143 1208 1143 1165 1118 c 0,63,64
 1071 1067 1071 1067 1028 993 c 1,65,-1
 1028 883 l 2,66,67
 1028 738 1028 738 928 676 c 1,68,-1
 588 387 l 1,69,-1
 588 287 l 2,70,71
 588 271 588 271 610.5 254.5 c 128,-1,72
 633 238 633 238 670 238 c 2,73,-1
 856 238 l 2,74,75
 903 238 903 238 943 265.5 c 128,-1,76
 983 293 983 293 983 324 c 2,77,-1
 983 449 l 1,78,-1
 1260 449 l 1,79,-1
 1260 324 l 2,80,81
 1260 291 1260 291 1288 266 c 1,82,83
 1327 237 1327 237 1380 238 c 2,84,-1
 1642 238 l 2,85,86
 1660 238 1660 238 1664.5 243 c 128,-1,87
 1669 248 1669 248 1673 253 c 128,-1,88
 1677 258 1677 258 1677 268 c 2,89,-1
 1677 541 l 2,90,91
 1677 600 1677 600 1661 600 c 2,92,-1
 1475 600 l 1,93,-1
 1475 829 l 1,94,-1
 1729 829 l 2,95,96
 1797 829 1797 829 1843 799 c 1,97,98
 1896 774 1896 774 1925 727 c 1,99,100
 1954 670 1954 670 1954 612 c 2,101,-1
 1962 238 l 1,0,1
1249 522 m 1,102,-1
 973 522 l 1,103,-1
 973 782 l 1,104,-1
 1249 782 l 1,105,-1
 1249 522 l 1,102,-1
EndSplineSet
LCarets2: 1 0
EndChar

StartChar: nga.sub
Encoding: 137 -1 137
Width: 401
Flags: W
AnchorPoint: "Sub" -786 -61 mark 0
AnchorPoint: "Sub" 823 -821 basemark 0
LayerCount: 2
Fore
SplineSet
158 -467 m 1,0,-1
 -88 -467 l 1,1,-1
 -88 -295 l 1,2,-1
 158 -295 l 1,3,-1
 158 -467 l 1,0,-1
821 -643 m 2,4,5
 821 -725 821 -725 762 -776 c 1,6,7
 703 -835 703 -835 623 -836 c 2,8,-1
 213 -836 l 2,9,10
 180 -836 180 -836 151.5 -826.5 c 128,-1,11
 123 -817 123 -817 94.5 -797.5 c 128,-1,12
 66 -778 66 -778 41 -745 c 1,13,14
 27 -770 27 -770 -16 -799 c 0,15,16
 -75 -838 -75 -838 -135 -838 c 2,17,-1
 -575 -838 l 2,18,19
 -620 -838 -620 -838 -657 -825.5 c 128,-1,20
 -694 -813 -694 -813 -731 -788 c 1,21,22
 -799 -737 -799 -737 -799 -662 c 2,23,-1
 -799 -516 l 2,24,25
 -799 -444 -799 -444 -743.5 -399 c 128,-1,26
 -688 -354 -688 -354 -602 -354 c 2,27,-1
 -457 -354 l 1,28,-1
 -449 -346 l 1,29,-1
 -449 -299 l 1,30,-1
 -457 -291 l 1,31,-1
 -770 -291 l 1,32,-1
 -770 -94 l 1,33,-1
 -367 -94 l 2,34,35
 -306 -94 -306 -94 -268 -119 c 0,36,37
 -250 -129 -250 -129 -236 -154 c 1,38,39
 -177 -93 -177 -93 -78 -92 c 2,40,-1
 274 -92 l 2,41,42
 368 -92 368 -92 434 -139 c 128,-1,43
 500 -186 500 -186 500 -266 c 2,44,-1
 500 -393 l 1,45,-1
 254 -393 l 1,46,-1
 254 -293 l 2,47,48
 254 -270 254 -270 195 -270 c 2,49,-1
 -39 -270 l 2,50,51
 -90 -270 -90 -270 -131 -303 c 1,52,53
 -154 -317 -154 -317 -170 -336.5 c 128,-1,54
 -186 -356 -186 -356 -197 -381 c 1,55,-1
 -197 -446 l 2,56,57
 -197 -483 -197 -483 -245 -516 c 128,-1,58
 -293 -549 -293 -549 -352 -549 c 2,59,-1
 -514 -549 l 2,60,61
 -545 -549 -545 -549 -545 -563 c 2,62,-1
 -545 -614 l 1,63,-1
 -537 -625 l 1,64,-1
 -514 -635 l 1,65,-1
 -176 -635 l 2,66,67
 -137 -635 -137 -635 -107.5 -615.5 c 128,-1,68
 -78 -596 -78 -596 -78 -578 c 2,69,-1
 -78 -481 l 1,70,-1
 168 -481 l 1,71,-1
 168 -563 l 2,72,73
 168 -600 168 -600 193 -616 c 1,74,75
 230 -647 230 -647 260 -647 c 2,76,-1
 543 -647 l 2,77,78
 566 -647 566 -647 575 -631.5 c 128,-1,79
 584 -616 584 -616 585 -612 c 128,-1,80
 586 -608 586 -608 588 -606 c 1,81,-1
 588 -455 l 1,82,-1
 825 -455 l 1,83,-1
 821 -643 l 2,4,5
EndSplineSet
LCarets2: 1 0
EndChar

StartChar: ca.base
Encoding: 139 -1 139
Width: 1677
Flags: W
LayerCount: 2
Fore
SplineSet
2116 678 m 1,0,-1
 1913 678 l 1,1,2
 1942 641 1942 641 1942 594 c 2,3,-1
 1942 240 l 2,4,5
 1942 140 1942 140 1868 74 c 1,6,7
 1796 2 1796 2 1696 2 c 2,8,-1
 1272 4 l 2,9,10
 1206 4 1206 4 1155 37 c 0,11,12
 1130 53 1130 53 1114 78 c 1,13,14
 1098 53 1098 53 1067 37 c 1,15,16
 1010 0 1010 0 936 0 c 2,17,-1
 573 2 l 2,18,19
 464 2 464 2 397 76 c 1,20,21
 317 152 317 152 317 252 c 2,22,-1
 317 561 l 1,23,-1
 760 834 l 1,24,-1
 760 1094 l 2,25,26
 760 1125 760 1125 737.5 1143 c 128,-1,27
 715 1161 715 1161 676 1161 c 2,28,-1
 600 1161 l 1,29,-1
 598 1096 l 1,30,31
 600 1073 600 1073 618.5 1057.5 c 128,-1,32
 637 1042 637 1042 647 1042 c 2,33,-1
 715 1042 l 1,34,-1
 715 811 l 1,35,-1
 528 813 l 2,36,37
 442 813 442 813 379.5 874.5 c 128,-1,38
 317 936 317 936 317 1022 c 2,39,-1
 317 1393 l 1,40,-1
 793 1393 l 2,41,42
 895 1393 895 1393 966.5 1320 c 128,-1,43
 1038 1247 1038 1247 1038 1147 c 2,44,-1
 1038 702 l 1,45,-1
 598 414 l 1,46,-1
 596 319 l 1,47,48
 598 280 598 280 616.5 254.5 c 128,-1,49
 635 229 635 229 666 229 c 2,50,-1
 909 229 l 2,51,52
 946 229 946 229 969.5 248.5 c 128,-1,53
 993 268 993 268 993 291 c 2,54,-1
 993 442 l 1,55,-1
 1270 442 l 1,56,-1
 1270 317 l 2,57,58
 1270 280 1270 280 1288.5 254.5 c 128,-1,59
 1307 229 1307 229 1331 229 c 2,60,-1
 1577 229 l 2,61,62
 1616 229 1616 229 1639.5 248.5 c 128,-1,63
 1663 268 1663 268 1663 291 c 2,64,-1
 1663 578 l 2,65,66
 1663 623 1663 623 1632 645 c 1,67,68
 1607 674 1607 674 1569 674 c 2,69,-1
 1257 674 l 1,70,-1
 1257 905 l 1,71,-1
 1618 905 l 1,72,-1
 1618 1159 l 1,73,-1
 1257 1159 l 1,74,-1
 1257 1391 l 1,75,-1
 1755 1391 l 1,76,-1
 1892 1188 l 1,77,-1
 1894 905 l 1,78,-1
 2118 905 l 1,79,-1
 2116 678 l 1,0,-1
EndSplineSet
EndChar

StartChar: ca.imathra
Encoding: 140 -1 140
Width: 2039
Flags: W
LayerCount: 2
Fore
SplineSet
2126 682 m 1,0,-1
 1923 682 l 1,1,2
 1952 645 1952 645 1952 594 c 2,3,-1
 1952 242 l 2,4,5
 1952 148 1952 148 1896.5 75 c 128,-1,6
 1841 2 1841 2 1765 2 c 2,7,-1
 1282 4 l 2,8,9
 1221 4 1221 4 1174 41 c 1,10,-1
 1130 80 l 1,11,12
 1116 62 1116 62 1083 43 c 0,13,14
 1022 4 1022 4 954 4 c 2,15,-1
 559 4 l 2,16,17
 469 4 469 4 402.5 63.5 c 128,-1,18
 336 123 336 123 336 203 c 2,19,-1
 336 598 l 1,20,-1
 776 844 l 1,21,-1
 776 1104 l 2,22,23
 776 1135 776 1135 750.5 1153 c 128,-1,24
 725 1171 725 1171 692 1171 c 2,25,-1
 616 1171 l 1,26,-1
 616 1104 l 2,27,28
 616 1081 616 1081 627 1067 c 1,29,30
 650 1051 650 1051 664 1051 c 2,31,-1
 760 1051 l 1,32,-1
 760 819 l 1,33,-1
 545 819 l 2,34,35
 459 819 459 819 401 879 c 1,36,37
 335 932 335 932 336 1006 c 2,38,-1
 336 1403 l 1,39,-1
 827 1403 l 2,40,41
 927 1403 927 1403 990 1329 c 128,-1,42
 1053 1255 1053 1255 1053 1167 c 2,43,-1
 1053 709 l 1,44,-1
 612 449 l 1,45,-1
 610 301 l 1,46,47
 614 272 614 272 632.5 254 c 128,-1,48
 651 236 651 236 676 236 c 2,49,-1
 893 236 l 2,50,51
 938 236 938 236 972 255 c 128,-1,52
 1006 274 1006 274 1006 297 c 2,53,-1
 1006 506 l 1,54,-1
 1282 506 l 1,55,-1
 1282 324 l 2,56,57
 1282 287 1282 287 1303.5 261.5 c 128,-1,58
 1325 236 1325 236 1343 236 c 2,59,-1
 1620 236 l 2,60,61
 1643 236 1643 236 1657 254 c 1,62,63
 1675 272 1675 272 1675 295 c 2,64,-1
 1675 584 l 2,65,66
 1675 615 1675 615 1653 643 c 1,67,68
 1622 674 1622 674 1585 682 c 1,69,-1
 1266 680 l 1,70,-1
 1266 911 l 1,71,-1
 1599 911 l 1,72,73
 1675 948 1675 948 1675 1001 c 2,74,-1
 1675 1354 l 2,75,76
 1675 1358 1675 1358 1656.5 1357 c 128,-1,77
 1638 1356 1638 1356 1620 1356 c 2,78,-1
 1534 1356 l 1,79,80
 1542 1338 1542 1338 1542 1321 c 2,81,-1
 1542 1274 l 1,82,83
 1546 1258 1546 1258 1550 1255 c 0,84,85
 1573 1241 1573 1241 1583 1241 c 2,86,-1
 1686 1241 l 1,87,-1
 1686 1010 l 1,88,-1
 1454 1010 l 2,89,90
 1380 1010 1380 1010 1321 1065 c 128,-1,91
 1262 1120 1262 1120 1262 1194 c 2,92,-1
 1262 1411 l 2,93,94
 1262 1493 1262 1493 1317 1543 c 128,-1,95
 1372 1593 1372 1593 1454 1593 c 2,96,-1
 1731 1593 l 2,97,98
 1825 1593 1825 1593 1882 1528 c 1,99,100
 1948 1467 1948 1467 1948 1372 c 2,101,-1
 1948 1030 l 2,102,103
 1948 969 1948 969 1915 918 c 1,104,-1
 2124 918 l 1,105,-1
 2126 682 l 1,0,-1
EndSplineSet
LCarets2: 1 0
EndChar

StartChar: ca.sub
Encoding: 141 -1 141
Width: 401
Flags: W
AnchorPoint: "Sub" -795 438 mark 0
AnchorPoint: "Sub" 725 -821 basemark 0
LayerCount: 2
Fore
SplineSet
821 -324 m 1,0,-1
 692 -324 l 1,1,2
 731 -371 731 -371 731 -442 c 2,3,-1
 731 -631 l 2,4,5
 731 -713 731 -713 671.5 -771 c 128,-1,6
 612 -829 612 -829 537 -829 c 2,7,-1
 242 -829 l 2,8,9
 154 -829 154 -829 78 -784 c 1,10,11
 33 -753 33 -753 8 -709 c 1,12,13
 -21 -760 -21 -760 -66 -788 c 1,14,15
 -99 -804 -99 -804 -141.5 -816.5 c 128,-1,16
 -184 -829 -184 -829 -221 -829 c 2,17,-1
 -537 -829 l 1,18,19
 -603 -833 -603 -833 -639.5 -824 c 128,-1,20
 -676 -815 -676 -815 -727 -793 c 1,21,22
 -760 -775 -760 -775 -778.5 -744 c 128,-1,23
 -797 -713 -797 -713 -797 -682 c 2,24,-1
 -797 -506 l 2,25,26
 -797 -432 -797 -432 -745 -385 c 1,27,28
 -684 -342 -684 -342 -618 -342 c 2,29,-1
 -473 -342 l 2,30,31
 -455 -342 -455 -342 -432 -328 c 1,32,-1
 -422 -317 l 1,33,-1
 -422 -281 l 1,34,35
 -445 -277 -445 -277 -459 -276 c 2,36,-1
 -772 -276 l 1,37,-1
 -772 -76 l 1,38,-1
 -391 -76 l 2,39,40
 -305 -76 -305 -76 -238 -106 c 1,41,42
 -207 -131 -207 -131 -188.5 -156.5 c 128,-1,43
 -170 -182 -170 -182 -170 -211 c 2,44,-1
 -170 -387 l 2,45,46
 -170 -455 -170 -455 -236 -514 c 1,47,48
 -304 -567 -304 -567 -391 -567 c 2,49,-1
 -518 -567 l 1,50,-1
 -543 -571 l 1,51,-1
 -547 -582 l 1,52,-1
 -547 -610 l 1,53,-1
 -539 -618 l 1,54,-1
 -516 -629 l 1,55,-1
 -248 -629 l 2,56,57
 -197 -629 -197 -629 -154 -592 c 128,-1,58
 -111 -555 -111 -555 -111 -502 c 2,59,-1
 -111 -387 l 1,60,-1
 137 -387 l 1,61,-1
 137 -518 l 2,62,63
 137 -549 137 -549 175 -589 c 128,-1,64
 213 -629 213 -629 246 -629 c 2,65,-1
 434 -629 l 2,66,67
 442 -629 442 -629 471 -614 c 1,68,69
 487 -598 487 -598 487 -569 c 2,70,-1
 487 -408 l 2,71,72
 487 -375 487 -375 461.5 -349.5 c 128,-1,73
 436 -324 436 -324 391 -324 c 2,74,-1
 109 -324 l 1,75,-1
 109 -121 l 1,76,-1
 293 -121 l 1,77,78
 426 2 426 2 426 90 c 2,79,-1
 426 473 l 1,80,-1
 680 473 l 1,81,-1
 678 90 l 2,82,83
 678 -19 678 -19 584 -121 c 1,84,-1
 823 -121 l 1,85,-1
 821 -324 l 1,0,-1
EndSplineSet
LCarets2: 1 0
EndChar

StartChar: cha.base
Encoding: 143 -1 143
Width: 1492
Flags: W
LayerCount: 2
Fore
SplineSet
1929 248 m 2,0,1
 1929 144 1929 144 1853 70 c 1,2,3
 1779 -6 1779 -6 1675 -6 c 2,4,-1
 1380 -6 l 2,5,6
 1304 -6 1304 -6 1243 39 c 1,7,8
 1206 62 1206 62 1178 98 c 1,9,10
 1160 65 1160 65 1120 41 c 1,11,12
 1059 -4 1059 -4 993 -4 c 2,13,-1
 674 -2 l 2,14,15
 570 -2 570 -2 486.5 63.5 c 128,-1,16
 403 129 403 129 403 233 c 2,17,-1
 403 1122 l 2,18,19
 403 1202 403 1202 440 1268.5 c 128,-1,20
 477 1335 477 1335 539 1360 c 1,21,22
 596 1397 596 1397 672 1397 c 2,23,-1
 1116 1397 l 1,24,-1
 1116 1022 l 2,25,26
 1116 922 1116 922 1053.5 852 c 128,-1,27
 991 782 991 782 909 782 c 2,28,-1
 723 782 l 1,29,-1
 723 1016 l 1,30,-1
 799 1016 l 1,31,32
 815 1020 815 1020 826.5 1035.5 c 128,-1,33
 838 1051 838 1051 838 1075 c 2,34,-1
 838 1161 l 1,35,-1
 758 1161 l 2,36,37
 719 1161 719 1161 700 1145 c 1,38,39
 682 1122 682 1122 682 1094 c 2,40,-1
 682 301 l 2,41,42
 682 270 682 270 701.5 246.5 c 128,-1,43
 721 223 721 223 743 223 c 2,44,-1
 938 223 l 2,45,46
 961 223 961 223 977 230.5 c 128,-1,47
 993 238 993 238 1018 254 c 1,48,49
 1047 293 1047 293 1047 309 c 2,50,-1
 1047 467 l 1,51,-1
 1321 467 l 1,52,-1
 1321 309 l 2,53,54
 1321 284 1321 284 1346.5 253.5 c 128,-1,55
 1372 223 1372 223 1415 223 c 2,56,-1
 1589 223 l 2,57,58
 1618 223 1618 223 1639.5 252 c 128,-1,59
 1661 281 1661 281 1661 311 c 2,60,-1
 1661 1079 l 2,61,62
 1661 1138 1661 1138 1561 1161 c 1,63,-1
 1249 1159 l 1,64,-1
 1249 1391 l 1,65,-1
 1589 1391 l 1,66,67
 1736 1375 1736 1375 1837 1288 c 1,68,69
 1937 1194 1937 1194 1937 1079 c 2,70,-1
 1929 248 l 2,0,1
1319 -336 m 1,71,-1
 1044 -336 l 1,72,-1
 1044 -25 l 1,73,-1
 1319 -25 l 1,74,-1
 1319 -336 l 1,71,-1
EndSplineSet
EndChar

StartChar: cha.imathra
Encoding: 144 -1 144
Width: 1845
Flags: W
LayerCount: 2
Fore
SplineSet
1929 252 m 2,0,1
 1929 148 1929 148 1862.5 71 c 128,-1,2
 1796 -6 1796 -6 1700 -6 c 2,3,-1
 1380 -6 l 2,4,5
 1304 -6 1304 -6 1243 39 c 1,6,7
 1200 64 1200 64 1178 102 c 1,8,9
 1168 79 1168 79 1156.5 68 c 128,-1,10
 1145 57 1145 57 1120 35 c 1,11,12
 1063 -6 1063 -6 991 -6 c 2,13,-1
 672 -4 l 2,14,15
 568 -4 568 -4 484.5 64.5 c 128,-1,16
 401 133 401 133 401 236 c 2,17,-1
 401 1126 l 2,18,19
 401 1200 401 1200 434 1266 c 0,20,21
 452 1299 452 1299 476 1322.5 c 128,-1,22
 500 1346 500 1346 532 1362 c 1,23,24
 589 1399 589 1399 666 1399 c 2,25,-1
 1110 1399 l 1,26,-1
 1110 1024 l 2,27,28
 1110 922 1110 922 1047.5 852 c 128,-1,29
 985 782 985 782 903 782 c 2,30,-1
 717 782 l 1,31,-1
 717 1020 l 1,32,-1
 793 1020 l 1,33,-1
 821 1028 l 1,34,35
 825 1032 825 1032 826 1036 c 128,-1,36
 827 1040 827 1040 829 1049 c 1,37,-1
 829 1163 l 1,38,-1
 750 1163 l 2,39,40
 713 1163 713 1163 690 1149 c 1,41,42
 672 1126 672 1126 672 1096 c 2,43,-1
 672 303 l 2,44,45
 672 266 672 266 697.5 244.5 c 128,-1,46
 723 223 723 223 752 223 c 2,47,-1
 928 223 l 2,48,49
 946 223 946 223 962.5 230.5 c 128,-1,50
 979 238 979 238 1008 252 c 1,51,52
 1037 291 1037 291 1036 309 c 2,53,-1
 1036 465 l 1,54,-1
 1311 465 l 1,55,-1
 1311 309 l 2,56,57
 1311 280 1311 280 1337.5 250.5 c 128,-1,58
 1364 221 1364 221 1403 221 c 2,59,-1
 1577 221 l 2,60,61
 1606 221 1606 221 1627.5 247.5 c 128,-1,62
 1649 274 1649 274 1649 307 c 2,63,-1
 1649 1313 l 2,64,65
 1649 1338 1649 1338 1632.5 1359 c 128,-1,66
 1616 1380 1616 1380 1599 1380 c 2,67,-1
 1511 1380 l 2,68,69
 1486 1380 1486 1380 1473 1370 c 1,70,71
 1463 1354 1463 1354 1462 1339 c 2,72,-1
 1462 1257 l 2,73,74
 1462 1241 1462 1241 1473 1225 c 1,75,76
 1496 1209 1496 1209 1511 1208 c 2,77,-1
 1602 1208 l 1,78,-1
 1602 977 l 1,79,-1
 1436 979 l 2,80,81
 1332 979 1332 979 1257 1038 c 1,82,83
 1181 1106 1181 1106 1182 1202 c 2,84,-1
 1182 1393 l 2,85,86
 1182 1489 1182 1489 1247 1546 c 1,87,88
 1313 1612 1313 1612 1407 1612 c 2,89,-1
 1690 1612 l 2,90,91
 1756 1612 1756 1612 1812 1575 c 1,92,93
 1843 1550 1843 1550 1862.5 1527.5 c 128,-1,94
 1882 1505 1882 1505 1896.5 1474.5 c 128,-1,95
 1911 1444 1911 1444 1919 1411 c 128,-1,96
 1927 1378 1927 1378 1927 1341 c 2,97,-1
 1929 252 l 2,0,1
1309 -340 m 1,98,-1
 1034 -340 l 1,99,-1
 1034 -27 l 1,100,-1
 1309 -27 l 1,101,-1
 1309 -340 l 1,98,-1
EndSplineSet
LCarets2: 1 0
EndChar

StartChar: cha.sub
Encoding: 145 -1 145
Width: 319
Flags: W
AnchorPoint: "Sub" -635 299 mark 0
AnchorPoint: "Sub" 666 -762 basemark 0
LayerCount: 2
Fore
SplineSet
682 -475 m 2,0,1
 682 -600 682 -600 626.5 -688 c 128,-1,2
 571 -776 571 -776 496 -776 c 2,3,-1
 240 -776 l 2,4,5
 158 -776 158 -776 102 -733 c 1,6,7
 61 -708 61 -708 43 -672 c 1,8,9
 25 -705 25 -705 -12 -733 c 0,10,11
 -67 -776 -67 -776 -139 -776 c 2,12,-1
 -434 -774 l 1,13,-1
 -444 -772 l 1,14,15
 -526 -772 -526 -772 -588 -705 c 1,16,17
 -647 -631 -647 -631 -647 -551 c 2,18,-1
 -647 -334 l 2,19,20
 -647 -244 -647 -244 -588 -176 c 1,21,22
 -527 -115 -527 -115 -426 -115 c 2,23,-1
 -158 -115 l 1,24,-1
 -158 -344 l 1,25,-1
 -369 -344 l 1,26,27
 -392 -348 -392 -348 -396.5 -356.5 c 128,-1,28
 -401 -365 -401 -365 -401 -393 c 2,29,-1
 -401 -510 l 2,30,31
 -401 -539 -401 -539 -389 -548 c 128,-1,32
 -377 -557 -377 -557 -369 -557 c 2,33,-1
 -160 -557 l 2,34,35
 -127 -557 -127 -557 -109 -528 c 1,36,37
 -80 -497 -80 -497 -80 -444 c 2,38,-1
 -80 -358 l 1,39,-1
 154 -358 l 1,40,-1
 154 -455 l 2,41,42
 154 -502 154 -502 177.5 -528.5 c 128,-1,43
 201 -555 201 -555 233 -555 c 2,44,-1
 379 -555 l 2,45,46
 410 -555 410 -555 438 -532 c 1,47,48
 463 -501 463 -501 463 -471 c 2,49,-1
 463 -51 l 2,50,51
 463 49 463 49 407.5 118.5 c 128,-1,52
 352 188 352 188 238 211 c 1,53,-1
 324 412 l 1,54,55
 461 381 461 381 520 322 c 1,56,57
 602 256 602 256 645 153.5 c 128,-1,58
 688 51 688 51 688 -53 c 2,59,-1
 682 -475 l 2,0,1
162 -903 m 1,60,-1
 -86 -903 l 1,61,-1
 -86 -784 l 1,62,-1
 41 -639 l 1,63,-1
 158 -784 l 1,64,-1
 162 -903 l 1,60,-1
EndSplineSet
LCarets2: 1 0
EndChar

StartChar: ja
Encoding: 146 3228 146
Width: 1900
Flags: W
LayerCount: 2
Fore
SplineSet
1989 553 m 1,0,-1
 1987 238 l 2,1,2
 1987 179 1987 179 1956 121 c 1,3,4
 1946 96 1946 96 1920 73.5 c 128,-1,5
 1894 51 1894 51 1876 37 c 1,6,7
 1845 25 1845 25 1818.5 15.5 c 128,-1,8
 1792 6 1792 6 1763 6 c 2,9,-1
 1315 6 l 2,10,11
 1256 6 1256 6 1198 49 c 1,12,13
 1169 67 1169 67 1153 96 c 1,14,15
 1143 71 1143 71 1114 53 c 1,16,17
 1071 8 1071 8 1006 8 c 2,18,-1
 553 10 l 2,19,20
 463 10 463 10 381 70 c 1,21,22
 309 131 309 131 309 217 c 2,23,-1
 309 571 l 1,24,-1
 778 805 l 1,25,26
 837 852 837 852 838 895 c 2,27,-1
 838 1083 l 2,28,29
 838 1116 838 1116 807 1141.5 c 128,-1,30
 776 1167 776 1167 731 1167 c 2,31,-1
 621 1167 l 1,32,-1
 621 1071 l 2,33,34
 621 1063 621 1063 686 1063 c 2,35,-1
 766 1063 l 1,36,-1
 766 815 l 1,37,-1
 569 817 l 2,38,39
 473 817 473 817 412 879 c 1,40,41
 346 936 346 936 346 1024 c 2,42,-1
 346 1395 l 1,43,-1
 823 1395 l 2,44,45
 899 1395 899 1395 967 1372 c 1,46,47
 1043 1335 1043 1335 1071 1292 c 1,48,49
 1116 1247 1116 1247 1116 1188 c 1,50,51
 1188 1100 1188 1100 1260 1100 c 2,52,-1
 1554 1100 l 2,53,54
 1564 1100 1564 1100 1572.5 1105 c 128,-1,55
 1581 1110 1581 1110 1588 1115 c 128,-1,56
 1595 1120 1595 1120 1596 1124 c 128,-1,57
 1597 1128 1597 1128 1599 1130 c 1,58,-1
 1599 1176 l 1,59,60
 1585 1190 1585 1190 1577 1190 c 2,61,-1
 1511 1190 l 1,62,-1
 1511 1421 l 1,63,-1
 1636 1421 l 2,64,65
 1702 1421 1702 1421 1759.5 1392.5 c 128,-1,66
 1817 1364 1817 1364 1839 1317 c 1,67,68
 1876 1270 1876 1270 1876 1204 c 2,69,-1
 1876 1081 l 2,70,71
 1876 1040 1876 1040 1860.5 1004.5 c 128,-1,72
 1845 969 1845 969 1812 936 c 1,73,74
 1744 875 1744 875 1651 874 c 2,75,-1
 1288 874 l 2,76,77
 1206 874 1206 874 1118 932 c 1,78,-1
 1118 829 l 2,79,80
 1118 778 1118 778 1092.5 733 c 128,-1,81
 1067 688 1067 688 1022 651 c 1,82,-1
 592 440 l 1,83,-1
 592 322 l 2,84,85
 592 285 592 285 618.5 264.5 c 128,-1,86
 645 244 645 244 674 244 c 2,87,-1
 936 244 l 2,88,89
 959 244 959 244 987.5 269.5 c 128,-1,90
 1016 295 1016 295 1016 332 c 2,91,-1
 1016 434 l 1,92,-1
 1292 434 l 1,93,-1
 1292 346 l 2,94,95
 1292 315 1292 315 1323 279 c 1,96,97
 1362 246 1362 246 1401 246 c 2,98,-1
 1618 246 l 2,99,100
 1657 246 1657 246 1679 274 c 1,101,102
 1712 307 1712 307 1712 346 c 2,103,-1
 1712 522 l 2,104,105
 1712 545 1712 545 1689.5 561.5 c 128,-1,106
 1667 578 1667 578 1634 578 c 2,107,-1
 1481 578 l 1,108,-1
 1481 809 l 1,109,-1
 1784 809 l 2,110,111
 1868 809 1868 809 1930.5 733 c 128,-1,112
 1993 657 1993 657 1989 553 c 1,0,-1
EndSplineSet
LCarets2: 1 0
EndChar

StartChar: ja.base
Encoding: 147 -1 147
Width: 1548
Flags: W
LayerCount: 2
Fore
SplineSet
1991 266 m 2,0,1
 1991 166 1991 166 1915 83 c 128,-1,2
 1839 0 1839 0 1735 0 c 2,3,-1
 1305 2 l 2,4,5
 1248 2 1248 2 1196 41 c 0,6,7
 1165 66 1165 66 1151 90 c 1,8,9
 1135 61 1135 61 1104 39 c 0,10,11
 1049 -4 1049 -4 975 -4 c 2,12,-1
 549 -2 l 2,13,14
 455 -2 455 -2 382 59.5 c 128,-1,15
 309 121 309 121 309 207 c 2,16,-1
 309 561 l 1,17,-1
 739 793 l 1,18,19
 839 875 839 875 840 936 c 2,20,-1
 840 1069 l 2,21,22
 840 1102 840 1102 815 1133 c 1,23,24
 792 1151 792 1151 756 1151 c 2,25,-1
 623 1151 l 1,26,-1
 623 1108 l 2,27,28
 623 1085 623 1085 633 1067 c 1,29,30
 643 1059 643 1059 647 1055 c 128,-1,31
 651 1051 651 1051 655 1051 c 2,32,-1
 735 1051 l 1,33,-1
 735 803 l 1,34,-1
 567 805 l 2,35,36
 479 805 479 805 410.5 864.5 c 128,-1,37
 342 924 342 924 342 1012 c 2,38,-1
 342 1382 l 1,39,-1
 815 1382 l 2,40,41
 891 1382 891 1382 959.5 1352.5 c 128,-1,42
 1028 1323 1028 1323 1073 1262 c 1,43,44
 1116 1211 1116 1211 1116 1145 c 1,45,46
 1177 1088 1177 1088 1221 1087 c 2,47,-1
 1503 1087 l 2,48,49
 1507 1087 1507 1087 1523.5 1101.5 c 128,-1,50
 1540 1116 1540 1116 1540 1139 c 2,51,-1
 1540 1153 l 1,52,-1
 1217 1153 l 1,53,-1
 1217 1384 l 1,54,-1
 1565 1384 l 2,55,56
 1676 1384 1676 1384 1745.5 1325 c 128,-1,57
 1815 1266 1815 1266 1815 1178 c 2,58,-1
 1815 1069 l 2,59,60
 1815 987 1815 987 1745 924.5 c 128,-1,61
 1675 862 1675 862 1585 862 c 2,62,-1
 1276 862 l 2,63,64
 1194 862 1194 862 1112 920 c 1,65,-1
 1112 846 l 2,66,67
 1112 770 1112 770 983 668 c 1,68,-1
 586 428 l 1,69,-1
 586 309 l 2,70,71
 586 280 586 280 605.5 254.5 c 128,-1,72
 625 229 625 229 662 229 c 2,73,-1
 924 229 l 2,74,75
 953 229 953 229 983 254 c 1,76,77
 1008 285 1008 285 1008 315 c 2,78,-1
 1008 416 l 1,79,-1
 1284 416 l 1,80,-1
 1284 330 l 2,81,82
 1284 287 1284 287 1307.5 257 c 128,-1,83
 1331 227 1331 227 1360 227 c 2,84,-1
 1612 227 l 2,85,86
 1649 227 1649 227 1679 252 c 1,87,88
 1708 285 1708 285 1708 313 c 2,89,-1
 1708 518 l 2,90,91
 1708 532 1708 532 1686.5 546.5 c 128,-1,92
 1665 561 1665 561 1622 561 c 2,93,-1
 1475 561 l 1,94,-1
 1475 791 l 1,95,-1
 1757 791 l 2,96,97
 1859 791 1859 791 1919 729 c 1,98,99
 1985 672 1985 672 1985 575 c 2,100,-1
 1991 266 l 2,0,1
EndSplineSet
EndChar

StartChar: ja.imathra
Encoding: 148 -1 148
Width: 1923
Flags: W
LayerCount: 2
Fore
SplineSet
2009 240 m 2,0,1
 2009 140 2009 140 1932 70 c 128,-1,2
 1855 0 1855 0 1753 0 c 2,3,-1
 1294 2 l 2,4,5
 1228 2 1228 2 1186 41 c 1,6,7
 1161 55 1161 55 1143 88 c 1,8,9
 1127 57 1127 57 1104 41 c 1,10,11
 1057 -2 1057 -2 995 -2 c 2,12,-1
 569 -2 l 2,13,14
 518 -2 518 -2 470 16.5 c 128,-1,15
 422 35 422 35 383 68 c 0,16,17
 307 136 307 136 307 236 c 2,18,-1
 307 535 l 1,19,-1
 793 821 l 1,20,21
 832 864 832 864 831 911 c 2,22,-1
 831 1094 l 2,23,24
 831 1123 831 1123 815 1145 c 1,25,26
 792 1161 792 1161 768 1161 c 2,27,-1
 614 1161 l 1,28,-1
 612 1096 l 1,29,30
 620 1071 620 1071 624.5 1067 c 128,-1,31
 629 1063 629 1063 634 1061 c 128,-1,32
 639 1059 639 1059 649 1059 c 2,33,-1
 729 1059 l 1,34,-1
 729 811 l 1,35,-1
 561 813 l 2,36,37
 467 813 467 813 406 874 c 1,38,39
 338 931 338 931 338 1020 c 2,40,-1
 338 1395 l 1,41,-1
 809 1395 l 2,42,43
 934 1395 934 1395 1018 1343.5 c 128,-1,44
 1102 1292 1102 1292 1110 1219 c 1,45,46
 1219 1168 1219 1168 1323 1167 c 2,47,-1
 1391 1167 l 1,48,-1
 1391 1405 l 2,49,50
 1391 1495 1391 1495 1452 1554 c 0,51,52
 1481 1583 1481 1583 1525 1597.5 c 128,-1,53
 1569 1612 1569 1612 1612 1612 c 2,54,-1
 1757 1612 l 2,55,56
 1857 1612 1857 1612 1922 1542.5 c 128,-1,57
 1987 1473 1987 1473 1987 1376 c 2,58,-1
 1987 1159 l 2,59,60
 1987 1059 1987 1059 1907 993 c 1,61,62
 1839 919 1839 919 1731 920 c 2,63,-1
 1358 920 l 2,64,65
 1227 920 1227 920 1108 965 c 1,66,-1
 1108 834 l 2,67,68
 1108 740 1108 740 1040 696 c 1,69,-1
 582 430 l 1,70,-1
 582 291 l 2,71,72
 582 268 582 268 600 252 c 1,73,74
 614 229 614 229 645 229 c 2,75,-1
 920 229 l 2,76,77
 936 229 936 229 950.5 237.5 c 128,-1,78
 965 246 965 246 984.5 259 c 128,-1,79
 1004 272 1004 272 1004 305 c 2,80,-1
 1004 416 l 1,81,-1
 1280 416 l 1,82,-1
 1280 330 l 2,83,84
 1280 283 1280 283 1305.5 255 c 128,-1,85
 1331 227 1331 227 1354 227 c 2,86,-1
 1649 227 l 2,87,88
 1674 227 1674 227 1706 256 c 1,89,90
 1731 287 1731 287 1731 315 c 2,91,-1
 1731 496 l 2,92,93
 1731 527 1731 527 1702 546 c 128,-1,94
 1673 565 1673 565 1634 565 c 2,95,-1
 1468 565 l 1,96,-1
 1468 797 l 1,97,-1
 1751 797 l 2,98,99
 1827 797 1827 797 1870 774.5 c 128,-1,100
 1913 752 1913 752 1931.5 736.5 c 128,-1,101
 1950 721 1950 721 1966 690 c 1,102,103
 2005 639 2005 639 2005 580 c 2,104,-1
 2009 240 l 2,0,1
1729 1219 m 2,105,-1
 1729 1352 l 2,106,107
 1729 1383 1729 1383 1700 1382 c 2,108,-1
 1663 1382 l 1,109,-1
 1634 1374 l 2,110,111
 1630 1372 1630 1372 1628 1354 c 1,112,-1
 1628 1153 l 1,113,-1
 1694 1153 l 2,114,115
 1702 1153 1702 1153 1718 1169 c 1,116,117
 1729 1188 1729 1188 1729 1219 c 2,105,-1
EndSplineSet
LCarets2: 1 0
EndChar

StartChar: ja.sub
Encoding: 149 -1 149
Width: 387
Flags: W
AnchorPoint: "Sub" -729 66 mark 0
AnchorPoint: "Sub" 774 -840 basemark 0
LayerCount: 2
Fore
SplineSet
788 -246 m 1,0,1
 788 -328 788 -328 729 -379 c 1,2,3
 670 -438 670 -438 590 -438 c 2,4,-1
 150 -438 l 2,5,6
 -10 -438 -10 -438 -201 -276 c 1,7,-1
 -96 -131 l 1,8,9
 119 -242 119 -242 131 -242 c 2,10,-1
 483 -242 l 2,11,12
 501 -242 501 -242 524 -225 c 1,13,14
 532 -223 532 -223 534.5 -216 c 128,-1,15
 537 -209 537 -209 537 -207 c 2,16,-1
 537 -131 l 2,17,18
 537 -106 537 -106 465 -55 c 1,19,-1
 612 82 l 1,20,21
 784 -29 784 -29 784 -131 c 1,22,-1
 788 -246 l 1,0,1
807 -618 m 1,23,24
 807 -706 807 -706 750 -768 c 1,25,26
 699 -840 699 -840 608 -840 c 2,27,-1
 256 -840 l 2,28,29
 186 -840 186 -840 115 -797 c 1,30,31
 92 -781 92 -781 77.5 -766.5 c 128,-1,32
 63 -752 63 -752 53 -733 c 1,33,34
 -21 -842 -21 -842 -143 -842 c 2,35,-1
 -555 -842 l 2,36,37
 -643 -842 -643 -842 -717 -795 c 0,38,39
 -746 -779 -746 -779 -760 -756 c 0,40,41
 -785 -719 -785 -719 -784 -674 c 2,42,-1
 -784 -535 l 2,43,44
 -784 -453 -784 -453 -733 -410 c 1,45,46
 -686 -359 -686 -359 -606 -358 c 2,47,-1
 -461 -358 l 2,48,49
 -447 -358 -447 -358 -436 -348 c 1,50,-1
 -426 -334 l 1,51,-1
 -426 -301 l 1,52,-1
 -442 -297 l 1,53,-1
 -758 -297 l 1,54,-1
 -758 -80 l 1,55,-1
 -385 -80 l 2,56,57
 -303 -80 -303 -80 -238 -125 c 1,58,59
 -177 -182 -177 -182 -176 -248 c 2,60,-1
 -176 -416 l 2,61,62
 -176 -473 -176 -473 -232.5 -517 c 128,-1,63
 -289 -561 -289 -561 -356 -561 c 2,64,-1
 -502 -561 l 2,65,66
 -539 -561 -539 -561 -539 -571 c 2,67,-1
 -539 -625 l 1,68,-1
 -530 -635 l 2,69,70
 -520 -645 -520 -645 -504 -645 c 2,71,-1
 -184 -645 l 2,72,73
 -153 -645 -153 -645 -113 -614 c 1,74,75
 -80 -583 -80 -583 -80 -545 c 2,76,-1
 -80 -463 l 1,77,-1
 172 -463 l 1,78,-1
 172 -545 l 2,79,80
 172 -584 172 -584 209 -614.5 c 128,-1,81
 246 -645 246 -645 283 -645 c 2,82,-1
 520 -645 l 1,83,84
 536 -635 536 -635 541.5 -633 c 128,-1,85
 547 -631 547 -631 551 -616 c 1,86,-1
 551 -463 l 1,87,-1
 799 -463 l 1,88,-1
 807 -618 l 1,23,24
EndSplineSet
LCarets2: 1 0
EndChar

StartChar: jha.sub
Encoding: 154 -1 154
Width: 423
Flags: W
AnchorPoint: "Sub" -836 -72 mark 0
AnchorPoint: "Sub" 866 -762 basemark 0
LayerCount: 2
Fore
SplineSet
879 -535 m 2,0,1
 879 -639 879 -639 803 -707 c 1,2,3
 731 -781 731 -781 623 -780 c 2,4,-1
 420 -780 l 2,5,6
 352 -780 352 -780 309 -727 c 1,7,8
 256 -780 256 -780 166 -780 c 2,9,-1
 -10 -780 l 2,10,11
 -76 -780 -76 -780 -127 -737 c 1,12,13
 -188 -780 -188 -780 -262 -780 c 2,14,-1
 -582 -780 l 2,15,16
 -701 -780 -701 -780 -774 -707 c 1,17,18
 -850 -639 -850 -639 -850 -535 c 2,19,-1
 -850 -289 l 2,20,21
 -850 -193 -850 -193 -768 -127 c 1,22,23
 -725 -96 -725 -96 -677 -79.5 c 128,-1,24
 -629 -63 -629 -63 -569 -63 c 2,25,-1
 -303 -63 l 2,26,27
 -188 -63 -188 -63 -104 -135 c 128,-1,28
 -20 -207 -20 -207 -20 -303 c 2,29,-1
 -20 -528 l 2,30,31
 -20 -551 -20 -551 -2 -567 c 1,32,33
 31 -585 31 -585 45 -586 c 2,34,-1
 131 -586 l 2,35,36
 139 -586 139 -586 158.5 -571.5 c 128,-1,37
 178 -557 178 -557 178 -535 c 2,38,-1
 178 -326 l 2,39,40
 178 -295 178 -295 147.5 -264 c 128,-1,41
 117 -233 117 -233 14 -209 c 1,42,-1
 186 -61 l 1,43,44
 299 -92 299 -92 365 -162 c 1,45,46
 431 -248 431 -248 430 -315 c 2,47,-1
 430 -553 l 2,48,49
 430 -567 430 -567 438 -575 c 1,50,-1
 463 -586 l 1,51,-1
 567 -586 l 2,52,53
 590 -586 590 -586 613.5 -567.5 c 128,-1,54
 637 -549 637 -549 637 -526 c 2,55,-1
 637 -344 l 1,56,57
 635 -307 635 -307 595 -267 c 128,-1,58
 555 -227 555 -227 436 -197 c 1,59,-1
 602 -59 l 1,60,61
 668 -75 668 -75 716 -101 c 128,-1,62
 764 -127 764 -127 803 -164 c 0,63,64
 879 -232 879 -232 879 -313 c 2,65,-1
 879 -535 l 2,0,1
430 -838 m 1,66,-1
 178 -838 l 1,67,-1
 178 -776 l 1,68,-1
 309 -717 l 1,69,-1
 428 -776 l 1,70,-1
 430 -838 l 1,66,-1
-274 -514 m 2,71,-1
 -274 -342 l 2,72,73
 -274 -309 -274 -309 -307 -285 c 1,74,75
 -330 -262 -330 -262 -369 -262 c 2,76,-1
 -535 -262 l 2,77,78
 -572 -262 -572 -262 -588 -281 c 1,79,80
 -611 -295 -611 -295 -610 -328 c 2,81,-1
 -610 -514 l 2,82,83
 -610 -541 -610 -541 -579.5 -563.5 c 128,-1,84
 -549 -586 -549 -586 -518 -586 c 2,85,-1
 -358 -586 l 2,86,87
 -335 -586 -335 -586 -304.5 -563.5 c 128,-1,88
 -274 -541 -274 -541 -274 -514 c 2,71,-1
EndSplineSet
LCarets2: 1 0
EndChar

StartChar: jha.part
Encoding: 155 -1 155
Width: 882
Flags: W
LayerCount: 2
Fore
SplineSet
965 274 m 2,0,1
 965 221 965 221 946.5 174 c 128,-1,2
 928 127 928 127 891 80 c 1,3,4
 809 -6 809 -6 707 -6 c 2,5,-1
 354 -6 l 2,6,7
 180 -6 180 -6 14 217 c 1,8,-1
 14 535 l 1,9,-1
 53 543 l 1,10,11
 119 404 119 404 231.5 315.5 c 128,-1,12
 344 227 344 227 438 227 c 2,13,-1
 567 227 l 2,14,15
 620 227 620 227 645 260 c 1,16,17
 682 297 682 297 682 342 c 2,18,-1
 682 1069 l 2,19,20
 682 1087 682 1087 675 1101.5 c 128,-1,21
 668 1116 668 1116 651 1135 c 0,22,23
 626 1164 626 1164 588 1163 c 2,24,-1
 301 1163 l 1,25,-1
 301 1395 l 1,26,-1
 659 1395 l 2,27,28
 784 1395 784 1395 874 1300 c 1,29,30
 962 1198 962 1198 963 1067 c 2,31,-1
 965 274 l 2,0,1
963 -393 m 1,32,-1
 682 -393 l 1,33,-1
 682 -78 l 1,34,-1
 963 -78 l 1,35,-1
 963 -393 l 1,32,-1
EndSplineSet
EndChar

StartChar: nya
Encoding: 157 3230 157
Width: 2373
Flags: W
LayerCount: 2
Fore
SplineSet
2470 987 m 1,0,1
 2470 907 2470 907 2413 831 c 1,2,3
 2352 759 2352 759 2271 760 c 2,4,-1
 2103 760 l 1,5,-1
 2103 991 l 1,6,-1
 2154 991 l 2,7,8
 2191 991 2191 991 2191 1053 c 2,9,-1
 2191 1133 l 2,10,11
 2191 1164 2191 1164 2124 1163 c 2,12,-1
 2021 1163 l 2,13,14
 1974 1163 1974 1163 1950 1135 c 0,15,16
 1917 1096 1917 1096 1917 1053 c 2,17,-1
 1917 756 l 2,18,19
 1917 576 1917 576 1772 438 c 1,20,-1
 1772 295 l 2,21,22
 1772 277 1772 277 1790 256.5 c 128,-1,23
 1808 236 1808 236 1833 236 c 2,24,-1
 1948 236 l 1,25,-1
 1948 4 l 1,26,-1
 1747 6 l 2,27,28
 1643 6 1643 6 1569 72.5 c 128,-1,29
 1495 139 1495 139 1495 240 c 2,30,-1
 1495 354 l 1,31,-1
 1284 354 l 2,32,33
 1188 354 1188 354 1126 416 c 1,34,35
 1060 469 1060 469 1061 551 c 2,36,-1
 1061 696 l 2,37,38
 1061 725 1061 725 1069 751.5 c 128,-1,39
 1077 778 1077 778 1120 809 c 0,40,41
 1179 852 1179 852 1266 852 c 2,42,-1
 1518 852 l 2,43,44
 1565 852 1565 852 1610 815 c 1,45,-1
 1640 786 l 1,46,-1
 1640 1092 l 2,47,48
 1640 1123 1640 1123 1610.5 1141 c 128,-1,49
 1581 1159 1581 1159 1528 1159 c 2,50,-1
 1399 1159 l 2,51,52
 1342 1159 1342 1159 1305 1135 c 1,53,54
 1276 1110 1276 1110 1276 1077 c 2,55,-1
 1276 920 l 1,56,-1
 999 920 l 1,57,-1
 999 1067 l 2,58,59
 999 1083 999 1083 988 1101.5 c 128,-1,60
 977 1120 977 1120 963 1135 c 0,61,62
 934 1160 934 1160 872 1159 c 2,63,-1
 682 1159 l 2,64,65
 659 1159 659 1159 647 1148 c 128,-1,66
 635 1137 635 1137 635 1104 c 2,67,-1
 635 971 l 2,68,69
 635 942 635 942 651 926 c 1,70,71
 659 910 659 910 682 909 c 2,72,-1
 778 909 l 1,73,-1
 778 649 l 1,74,-1
 592 651 l 2,75,76
 492 651 492 651 423 728 c 128,-1,77
 354 805 354 805 354 901 c 2,78,-1
 354 1159 l 2,79,80
 354 1212 354 1212 369.5 1249 c 128,-1,81
 385 1286 385 1286 424 1323 c 1,82,83
 490 1391 490 1391 590 1391 c 2,84,-1
 930 1391 l 2,85,86
 1014 1391 1014 1391 1079 1348 c 1,87,88
 1118 1330 1118 1330 1137 1290 c 1,89,90
 1153 1315 1153 1315 1164.5 1327 c 128,-1,91
 1176 1339 1176 1339 1198 1348 c 1,92,93
 1255 1391 1255 1391 1331 1391 c 2,94,-1
 1608 1391 l 2,95,96
 1676 1391 1676 1391 1722 1354 c 1,97,98
 1755 1336 1755 1336 1780 1296 c 1,99,100
 1805 1339 1805 1339 1841 1356 c 1,101,102
 1888 1393 1888 1393 1968 1393 c 2,103,-1
 2243 1393 l 2,104,105
 2333 1393 2333 1393 2397.5 1328.5 c 128,-1,106
 2462 1264 2462 1264 2462 1174 c 1,107,-1
 2470 987 l 1,0,1
1473 600 m 1,108,-1
 1456 608 l 2,109,110
 1438 618 1438 618 1395 618 c 2,111,-1
 1307 618 l 2,112,113
 1299 618 1299 618 1290 629 c 1,114,-1
 1290 600 l 1,115,-1
 1300 592 l 1,116,117
 1314 578 1314 578 1331 578 c 2,118,-1
 1421 578 l 2,119,120
 1432 577 1432 577 1473 600 c 1,108,-1
EndSplineSet
LCarets2: 1 0
EndChar

StartChar: nya.sub
Encoding: 158 -1 158
Width: 481
Flags: W
AnchorPoint: "Sub" -885 -25 mark 0
AnchorPoint: "Sub" 750 -827 basemark 0
LayerCount: 2
Fore
SplineSet
903 -446 m 2,0,1
 903 -485 903 -485 892 -511 c 128,-1,2
 881 -537 881 -537 850 -575 c 1,3,4
 793 -634 793 -634 721 -635 c 2,5,-1
 573 -635 l 1,6,-1
 573 -449 l 1,7,-1
 653 -449 l 1,8,-1
 664 -446 l 1,9,10
 666 -442 666 -442 670 -437 c 128,-1,11
 674 -432 674 -432 674 -422 c 2,12,-1
 674 -268 l 2,13,14
 674 -211 674 -211 651 -211 c 2,15,-1
 496 -211 l 2,16,17
 471 -211 471 -211 455.5 -229.5 c 128,-1,18
 440 -248 440 -248 426 -285 c 1,19,-1
 428 -526 l 2,20,21
 428 -614 428 -614 341 -673.5 c 128,-1,22
 254 -733 254 -733 166 -733 c 1,23,24
 166 -723 166 -723 174 -725 c 1,25,-1
 193 -739 l 1,26,-1
 297 -739 l 1,27,-1
 297 -899 l 1,28,-1
 139 -899 l 2,29,30
 108 -899 108 -899 77.5 -888 c 128,-1,31
 47 -877 47 -877 17.5 -857.5 c 128,-1,32
 -12 -838 -12 -838 -23.5 -815.5 c 128,-1,33
 -35 -793 -35 -793 -35 -760 c 2,34,-1
 -35 -737 l 1,35,-1
 -111 -737 l 2,36,37
 -170 -737 -170 -737 -219 -703.5 c 128,-1,38
 -268 -670 -268 -670 -268 -623 c 2,39,-1
 -268 -512 l 2,40,41
 -268 -455 -268 -455 -229 -418 c 1,42,43
 -184 -389 -184 -389 -119 -389 c 2,44,-1
 12 -389 l 2,45,46
 73 -389 73 -389 119 -418 c 1,47,48
 164 -457 164 -457 164 -510 c 2,49,-1
 164 -551 l 1,50,51
 201 -543 201 -543 201 -524 c 2,52,-1
 201 -244 l 2,53,54
 201 -240 201 -240 182.5 -227.5 c 128,-1,55
 164 -215 164 -215 117 -215 c 2,56,-1
 -98 -215 l 2,57,58
 -139 -215 -139 -215 -164 -231 c 1,59,60
 -193 -256 -193 -256 -193 -285 c 2,61,-1
 -193 -342 l 1,62,-1
 -418 -342 l 1,63,-1
 -418 -270 l 2,64,65
 -418 -241 -418 -241 -441.5 -227 c 128,-1,66
 -465 -213 -465 -213 -502 -213 c 2,67,-1
 -614 -213 l 1,68,-1
 -637 -221 l 1,69,70
 -645 -235 -645 -235 -645 -258 c 2,71,-1
 -645 -412 l 1,72,73
 -635 -422 -635 -422 -620.5 -427 c 128,-1,74
 -606 -432 -606 -432 -595 -434 c 128,-1,75
 -584 -436 -584 -436 -545 -436 c 1,76,-1
 -545 -637 l 1,77,78
 -596 -637 -596 -637 -639 -629 c 128,-1,79
 -682 -621 -682 -621 -719 -606 c 1,80,81
 -764 -583 -764 -583 -783.5 -569 c 128,-1,82
 -803 -555 -803 -555 -831 -524 c 1,83,84
 -849 -495 -849 -495 -858.5 -468.5 c 128,-1,85
 -868 -442 -868 -442 -868 -412 c 2,86,-1
 -868 -211 l 2,87,88
 -868 -131 -868 -131 -821 -76 c 1,89,90
 -762 -25 -762 -25 -688 -25 c 2,91,-1
 -459 -25 l 2,92,93
 -393 -25 -393 -25 -336 -61 c 1,94,95
 -311 -84 -311 -84 -295 -113 c 1,96,97
 -277 -80 -277 -80 -254 -61 c 1,98,99
 -207 -28 -207 -28 -164 -29 c 2,100,-1
 197 -29 l 2,101,102
 306 -29 306 -29 356 -86 c 1,103,104
 417 -29 417 -29 485 -29 c 2,105,-1
 723 -29 l 2,106,107
 799 -29 799 -29 851 -79 c 128,-1,108
 903 -129 903 -129 903 -203 c 2,109,-1
 903 -446 l 2,0,1
-39 -561 m 1,110,-1
 -39 -537 l 1,111,112
 -55 -533 -55 -533 -59 -532 c 256,113,114
 -63 -532 -63 -532 -74 -532 c 1,115,-1
 -74 -580 l 1,116,117
 -56 -584 -56 -584 -47 -584 c 1,118,119
 -37 -567 -37 -567 -39 -561 c 1,110,-1
EndSplineSet
LCarets2: 1 0
EndChar

StartChar: tta
Encoding: 159 3231 159
Width: 1886
Flags: W
LayerCount: 2
Fore
SplineSet
1980 240 m 2,0,1
 1980 144 1980 144 1914.5 72 c 128,-1,2
 1849 0 1849 0 1753 0 c 2,3,-1
 1395 0 l 2,4,5
 1319 0 1319 0 1247 53 c 1,6,7
 1208 78 1208 78 1184 125 c 1,8,9
 1159 74 1159 74 1126 51 c 1,10,11
 1065 -2 1065 -2 981 -2 c 2,12,-1
 678 -2 l 2,13,14
 567 -2 567 -2 481 71.5 c 128,-1,15
 395 145 395 145 395 254 c 2,16,-1
 395 780 l 2,17,18
 395 866 395 866 520 942 c 1,19,20
 395 1024 395 1024 395 1096 c 2,21,-1
 395 1339 l 2,22,23
 395 1448 395 1448 471 1517.5 c 128,-1,24
 547 1587 547 1587 662 1587 c 2,25,-1
 905 1587 l 1,26,-1
 905 1354 l 1,27,-1
 719 1354 l 2,28,29
 694 1354 694 1354 687 1346.5 c 128,-1,30
 680 1339 680 1339 678 1330 c 128,-1,31
 676 1321 676 1321 676 1319 c 2,32,-1
 676 1133 l 2,33,34
 676 1115 676 1115 692 1083 c 1,35,36
 710 1058 710 1058 739 1049 c 1,37,-1
 1081 1049 l 1,38,-1
 1079 719 l 2,39,40
 1079 619 1079 619 1009.5 542 c 128,-1,41
 940 465 940 465 838 465 c 2,42,-1
 690 465 l 1,43,-1
 690 692 l 1,44,-1
 780 692 l 1,45,-1
 797 700 l 1,46,-1
 807 729 l 1,47,-1
 807 815 l 1,48,-1
 713 815 l 1,49,50
 674 797 674 797 674 760 c 2,51,-1
 674 313 l 2,52,53
 674 280 674 280 693.5 258 c 128,-1,54
 713 236 713 236 735 236 c 2,55,-1
 924 236 l 2,56,57
 975 236 975 236 1018 268 c 0,58,59
 1041 284 1041 284 1050 304 c 128,-1,60
 1059 324 1059 324 1063 352 c 1,61,-1
 1063 477 l 1,62,-1
 1343 477 l 1,63,-1
 1341 352 l 1,64,65
 1355 295 1355 295 1389 266 c 0,66,67
 1407 252 1407 252 1423.5 242.5 c 128,-1,68
 1440 233 1440 233 1458 233 c 2,69,-1
 1677 233 l 2,70,71
 1691 233 1691 233 1711 261 c 128,-1,72
 1731 289 1731 289 1731 319 c 2,73,-1
 1731 647 l 2,74,75
 1731 672 1731 672 1714.5 687 c 128,-1,76
 1698 702 1698 702 1667 702 c 2,77,-1
 1470 702 l 1,78,-1
 1470 934 l 1,79,-1
 1608 934 l 2,80,81
 1645 934 1645 934 1669 965 c 1,82,83
 1702 990 1702 990 1702 1020 c 2,84,-1
 1702 1282 l 2,85,86
 1702 1292 1702 1292 1683 1317 c 1,87,88
 1673 1321 1673 1321 1636 1321 c 2,89,-1
 1470 1321 l 1,90,-1
 1470 1552 l 1,91,-1
 1753 1552 l 2,92,93
 1798 1552 1798 1552 1834 1538 c 128,-1,94
 1870 1524 1870 1524 1894 1487 c 1,95,96
 1951 1413 1951 1413 1952 1317 c 2,97,-1
 1952 983 l 2,98,99
 1952 917 1952 917 1909 874 c 1,100,-1
 1864 836 l 1,101,102
 1901 826 1901 826 1929 793 c 0,103,104
 1980 734 1980 734 1980 659 c 2,105,-1
 1980 240 l 2,0,1
EndSplineSet
LCarets2: 1 0
EndChar

StartChar: tta.base
Encoding: 160 -1 160
Width: 1572
Flags: W
LayerCount: 2
Fore
SplineSet
2009 248 m 1,0,1
 2009 146 2009 146 1943.5 77 c 128,-1,2
 1878 8 1878 8 1794 8 c 1,3,-1
 1786 0 l 1,4,-1
 1397 4 l 2,5,6
 1323 4 1323 4 1251 51 c 1,7,8
 1218 76 1218 76 1190 123 c 1,9,10
 1167 78 1167 78 1130 51 c 0,11,12
 1056 0 1056 0 983 0 c 2,13,-1
 674 2 l 2,14,15
 557 2 557 2 471 61 c 1,16,17
 391 129 391 129 391 225 c 2,18,-1
 391 778 l 2,19,20
 391 860 391 860 516 942 c 1,21,22
 487 958 487 958 476 967.5 c 128,-1,23
 465 977 465 977 434 1010 c 1,24,25
 391 1069 391 1069 391 1114 c 2,26,-1
 391 1358 l 2,27,28
 391 1467 391 1467 459.5 1536.5 c 128,-1,29
 528 1606 528 1606 631 1606 c 2,30,-1
 899 1606 l 1,31,-1
 899 1374 l 1,32,-1
 719 1374 l 2,33,34
 682 1374 682 1374 659 1356 c 1,35,36
 636 1342 636 1342 637 1311 c 2,37,-1
 637 1128 l 2,38,39
 637 1105 637 1105 663.5 1080 c 128,-1,40
 690 1055 690 1055 733 1047 c 1,41,-1
 1075 1047 l 1,42,-1
 1075 717 l 2,43,44
 1075 608 1075 608 995 541 c 1,45,46
 919 461 919 461 809 461 c 2,47,-1
 684 461 l 1,48,-1
 684 692 l 1,49,-1
 780 692 l 1,50,-1
 788 702 l 1,51,52
 802 731 802 731 803 754 c 2,53,-1
 803 813 l 1,54,-1
 709 813 l 1,55,56
 670 795 670 795 670 756 c 2,57,-1
 670 309 l 2,58,59
 670 276 670 276 691.5 254.5 c 128,-1,60
 713 233 713 233 731 233 c 2,61,-1
 926 233 l 2,62,63
 973 233 973 233 1012 266 c 0,64,65
 1035 282 1035 282 1046 308 c 128,-1,66
 1057 334 1057 334 1059 348 c 1,67,-1
 1059 530 l 1,68,-1
 1339 530 l 1,69,-1
 1337 348 l 1,70,71
 1347 311 1347 311 1352.5 299 c 128,-1,72
 1358 287 1358 287 1382 268 c 0,73,74
 1421 235 1421 235 1454 236 c 2,75,-1
 1649 236 l 2,76,77
 1665 236 1665 236 1704 254 c 1,78,79
 1727 291 1727 291 1726 322 c 2,80,-1
 1726 651 l 2,81,82
 1726 674 1726 674 1700.5 690.5 c 128,-1,83
 1675 707 1675 707 1630 707 c 2,84,-1
 1464 707 l 1,85,-1
 1464 938 l 1,86,-1
 1602 938 l 2,87,88
 1641 938 1641 938 1663 969 c 1,89,90
 1696 1008 1696 1008 1696 1051 c 2,91,-1
 1696 1096 l 2,92,93
 1696 1121 1696 1121 1673 1149 c 1,94,95
 1644 1165 1644 1165 1616 1165 c 2,96,-1
 1405 1165 l 1,97,-1
 1405 1395 l 1,98,-1
 1710 1395 l 2,99,100
 1763 1395 1763 1395 1808 1371.5 c 128,-1,101
 1853 1348 1853 1348 1890 1305 c 1,102,103
 1970 1229 1970 1229 1970 1110 c 2,104,-1
 1970 991 l 2,105,106
 1970 966 1970 966 1959 938.5 c 128,-1,107
 1948 911 1948 911 1928.5 885.5 c 128,-1,108
 1909 860 1909 860 1886 850 c 1,109,110
 1923 834 1923 834 1948 805 c 0,111,112
 1999 748 1999 748 1999 668 c 2,113,-1
 2009 248 l 1,0,1
EndSplineSet
EndChar

StartChar: tta.imathra
Encoding: 161 -1 161
Width: 1923
Flags: W
LayerCount: 2
Fore
SplineSet
2009 248 m 2,0,1
 2009 146 2009 146 1943.5 77 c 128,-1,2
 1878 8 1878 8 1794 8 c 1,3,-1
 1786 0 l 1,4,-1
 1397 4 l 2,5,6
 1321 4 1321 4 1260 51 c 0,7,8
 1221 82 1221 82 1198 127 c 1,9,10
 1169 80 1169 80 1133 53 c 0,11,12
 1065 2 1065 2 981 2 c 2,13,-1
 678 2 l 2,14,15
 569 2 569 2 475 82 c 0,16,17
 436 115 436 115 416.5 164 c 128,-1,18
 397 213 397 213 397 264 c 2,19,-1
 397 778 l 2,20,21
 397 860 397 860 522 942 c 1,22,23
 497 956 497 956 475 982 c 128,-1,24
 453 1008 453 1008 442 1018 c 1,25,26
 399 1077 399 1077 399 1128 c 2,27,-1
 399 1337 l 2,28,29
 399 1441 399 1441 467 1509 c 1,30,31
 528 1581 528 1581 631 1581 c 2,32,-1
 905 1581 l 1,33,-1
 905 1350 l 1,34,-1
 690 1350 l 2,35,36
 672 1350 672 1350 657.5 1335.5 c 128,-1,37
 643 1321 643 1321 643 1290 c 2,38,-1
 643 1157 l 2,39,40
 643 1114 643 1114 672 1085 c 1,41,42
 697 1052 697 1052 739 1042 c 1,43,-1
 1081 1042 l 1,44,-1
 1079 713 l 2,45,46
 1079 604 1079 604 1004 537 c 0,47,48
 965 504 965 504 914.5 481.5 c 128,-1,49
 864 459 864 459 811 459 c 2,50,-1
 692 459 l 1,51,-1
 692 690 l 1,52,-1
 750 690 l 1,53,54
 781 694 781 694 788 709 c 1,55,56
 811 732 811 732 811 754 c 2,57,-1
 811 811 l 1,58,-1
 739 811 l 2,59,60
 710 811 710 811 694 797 c 1,61,62
 678 774 678 774 678 758 c 2,63,-1
 678 324 l 2,64,65
 678 285 678 285 701.5 261.5 c 128,-1,66
 725 238 725 238 750 238 c 2,67,-1
 958 238 l 2,68,69
 987 238 987 238 1030 268 c 1,70,71
 1044 284 1044 284 1053.5 306 c 128,-1,72
 1063 328 1063 328 1067 352 c 1,73,-1
 1067 535 l 1,74,-1
 1348 535 l 1,75,-1
 1346 352 l 1,76,77
 1356 315 1356 315 1361 303 c 128,-1,78
 1366 291 1366 291 1391 272 c 0,79,80
 1430 239 1430 239 1462 240 c 2,81,-1
 1622 240 l 2,82,83
 1665 240 1665 240 1702 264 c 1,84,85
 1735 295 1735 295 1735 326 c 2,86,-1
 1735 655 l 2,87,88
 1735 665 1735 665 1729.5 676.5 c 128,-1,89
 1724 688 1724 688 1715 699.5 c 128,-1,90
 1706 711 1706 711 1673 711 c 2,91,-1
 1477 711 l 1,92,-1
 1477 942 l 1,93,-1
 1614 942 l 2,94,95
 1630 942 1630 942 1644.5 947 c 128,-1,96
 1659 952 1659 952 1677 967 c 0,97,98
 1708 990 1708 990 1708 1018 c 2,99,-1
 1708 1346 l 2,100,101
 1708 1364 1708 1364 1698 1374 c 1,102,-1
 1683 1382 l 1,103,-1
 1567 1382 l 2,104,105
 1557 1382 1557 1382 1552.5 1380 c 128,-1,106
 1548 1378 1548 1378 1548 1354 c 1,107,108
 1552 1338 1552 1338 1560.5 1330.5 c 128,-1,109
 1569 1323 1569 1323 1573 1322 c 128,-1,110
 1577 1321 1577 1321 1579 1321 c 2,111,-1
 1694 1321 l 1,112,-1
 1694 1090 l 1,113,-1
 1475 1092 l 2,114,115
 1389 1092 1389 1092 1329.5 1146 c 128,-1,116
 1270 1200 1270 1200 1270 1272 c 2,117,-1
 1270 1425 l 2,118,119
 1270 1505 1270 1505 1335 1565 c 1,120,121
 1411 1618 1411 1618 1493 1618 c 2,122,-1
 1739 1618 l 2,123,124
 1835 1618 1835 1618 1907 1561 c 1,125,126
 1983 1493 1983 1493 1982 1407 c 2,127,-1
 1982 1081 l 2,128,129
 1982 1038 1982 1038 1970 997 c 128,-1,130
 1958 956 1958 956 1934.5 912 c 128,-1,131
 1911 868 1911 868 1907 864 c 128,-1,132
 1903 860 1903 860 1884 850 c 1,133,134
 1931 832 1931 832 1956 803 c 1,135,136
 2013 750 2013 750 2013 668 c 2,137,-1
 2009 248 l 2,0,1
EndSplineSet
LCarets2: 1 0
EndChar

StartChar: tta.sub
Encoding: 162 -1 162
Width: 346
Flags: W
AnchorPoint: "Sub" -668 346 mark 0
AnchorPoint: "Sub" 700 -817 basemark 0
LayerCount: 2
Fore
SplineSet
721 -676 m 2,0,1
 721 -707 721 -707 705.5 -735.5 c 128,-1,2
 690 -764 690 -764 662 -788 c 1,3,4
 637 -804 637 -804 604 -816.5 c 128,-1,5
 571 -829 571 -829 539 -829 c 2,6,-1
 233 -829 l 2,7,8
 161 -829 161 -829 102 -791 c 0,9,10
 86 -781 86 -781 79 -773.5 c 128,-1,11
 72 -766 72 -766 55 -741 c 1,12,13
 41 -759 41 -759 25.5 -771.5 c 128,-1,14
 10 -784 10 -784 2 -793 c 1,15,16
 -57 -830 -57 -830 -115 -829 c 2,17,-1
 -387 -829 l 1,18,-1
 -418 -829 l 2,19,20
 -527 -829 -527 -829 -609.5 -771 c 128,-1,21
 -692 -713 -692 -713 -692 -610 c 2,22,-1
 -692 -397 l 2,23,24
 -692 -303 -692 -303 -625 -248 c 1,25,26
 -592 -215 -592 -215 -552 -199.5 c 128,-1,27
 -512 -184 -512 -184 -459 -184 c 2,28,-1
 -96 -184 l 1,29,-1
 -96 -547 l 1,30,-1
 -342 -547 l 1,31,-1
 -342 -414 l 1,32,-1
 -381 -414 l 2,33,34
 -414 -414 -414 -414 -426 -422 c 128,-1,35
 -438 -430 -438 -430 -442 -444 c 1,36,-1
 -442 -561 l 2,37,38
 -442 -598 -442 -598 -418 -612 c 1,39,40
 -387 -637 -387 -637 -350 -637 c 2,41,-1
 -164 -637 l 2,42,43
 -133 -637 -133 -637 -100 -608 c 1,44,45
 -69 -592 -69 -592 -70 -549 c 2,46,-1
 -70 -453 l 1,47,-1
 182 -453 l 1,48,-1
 182 -549 l 2,49,50
 182 -592 182 -592 207.5 -614.5 c 128,-1,51
 233 -637 233 -637 260 -637 c 2,52,-1
 408 -637 l 2,53,54
 431 -637 431 -637 459 -621 c 0,55,56
 463 -619 463 -619 467 -614 c 1,57,58
 467 -610 467 -610 469 -608 c 1,59,-1
 469 -406 l 1,60,61
 453 -390 453 -390 444 -387 c 0,62,63
 411 -377 411 -377 358 -377 c 2,64,-1
 211 -377 l 1,65,-1
 211 -176 l 1,66,-1
 348 -176 l 2,67,68
 387 -176 387 -176 424 -145 c 1,69,70
 455 -129 455 -129 455 -86 c 2,71,-1
 455 137 l 2,72,73
 455 166 455 166 438 182 c 2,74,-1
 387 227 l 2,75,76
 369 243 369 243 354 268 c 0,77,78
 354 270 354 270 350 272 c 1,79,80
 358 290 358 290 367 295 c 1,81,-1
 463 426 l 1,82,83
 514 397 514 397 563 357 c 128,-1,84
 612 317 612 317 641 289 c 1,85,86
 702 215 702 215 702 135 c 2,87,-1
 702 -80 l 2,88,89
 702 -160 702 -160 664 -217 c 0,90,91
 639 -256 639 -256 610 -274 c 1,92,93
 649 -290 649 -290 674 -322 c 0,94,95
 690 -345 690 -345 704.5 -374 c 128,-1,96
 719 -403 719 -403 719 -432 c 2,97,-1
 721 -676 l 2,0,1
EndSplineSet
LCarets2: 1 0
EndChar

StartChar: ttha.base
Encoding: 164 -1 164
Width: 1320
Flags: W
LayerCount: 2
Fore
SplineSet
1706 334 m 2,0,1
 1706 197 1706 197 1591.5 98.5 c 128,-1,2
 1477 0 1477 0 1329 0 c 2,3,-1
 762 2 l 2,4,5
 596 2 596 2 483.5 97.5 c 128,-1,6
 371 193 371 193 371 332 c 2,7,-1
 371 862 l 2,8,9
 371 1034 371 1034 508 1163 c 1,10,-1
 403 1163 l 1,11,-1
 403 1395 l 1,12,-1
 1409 1395 l 1,13,-1
 1409 1358 l 1,14,15
 1546 1272 1546 1272 1627 1139 c 128,-1,16
 1708 1006 1708 1006 1708 862 c 2,17,-1
 1706 334 l 2,0,1
1427 344 m 1,18,-1
 1427 862 l 2,19,20
 1427 942 1427 942 1374 1028 c 1,21,22
 1331 1104 1331 1104 1243 1161 c 1,23,-1
 840 1161 l 1,24,25
 801 1143 801 1143 767 1112 c 128,-1,26
 733 1081 733 1081 705 1042 c 1,27,28
 654 956 654 956 653 866 c 2,29,-1
 651 352 l 1,30,31
 653 309 653 309 690 270 c 1,32,33
 729 237 729 237 776 238 c 2,34,-1
 1305 238 l 2,35,36
 1352 238 1352 238 1389 268 c 1,37,38
 1425 311 1425 311 1427 344 c 1,18,-1
1188 545 m 1,39,-1
 907 545 l 1,40,-1
 907 803 l 1,41,-1
 1188 803 l 1,42,-1
 1188 545 l 1,39,-1
EndSplineSet
EndChar

StartChar: ttha.imathra
Encoding: 165 -1 165
Width: 1615
Flags: W
LayerCount: 2
Fore
SplineSet
1710 348 m 2,0,1
 1710 254 1710 254 1677 180 c 0,2,3
 1654 129 1654 129 1635 102.5 c 128,-1,4
 1616 76 1616 76 1583 53 c 1,5,6
 1517 2 1517 2 1456 2 c 2,7,-1
 752 4 l 2,8,9
 648 4 648 4 571 51 c 1,10,11
 485 92 485 92 434 174 c 0,12,13
 411 207 411 207 400 254 c 128,-1,14
 389 301 389 301 389 344 c 2,15,-1
 389 975 l 2,16,17
 389 1129 389 1129 537 1260 c 1,18,19
 498 1285 498 1285 483 1294 c 0,20,21
 458 1312 458 1312 436 1341 c 0,22,23
 391 1400 391 1400 391 1475 c 2,24,-1
 391 1593 l 2,25,26
 391 1697 391 1697 478 1764 c 128,-1,27
 565 1831 565 1831 682 1831 c 2,28,-1
 887 1831 l 2,29,30
 1034 1831 1034 1831 1130 1735 c 1,31,32
 1411 1516 1411 1516 1563.5 1320 c 128,-1,33
 1716 1124 1716 1124 1716 985 c 2,34,-1
 1710 348 l 2,0,1
1155 1397 m 1,35,-1
 1016 1526 l 1,36,37
 942 1600 942 1600 877 1599 c 2,38,-1
 731 1599 l 2,39,40
 700 1599 700 1599 685 1585 c 128,-1,41
 670 1571 670 1571 670 1556 c 2,42,-1
 670 1475 l 2,43,44
 670 1422 670 1422 737 1399 c 1,45,-1
 733 1356 l 1,46,-1
 729 1399 l 1,47,-1
 1155 1397 l 1,35,-1
1442 338 m 1,48,-1
 1442 969 l 2,49,50
 1442 1063 1442 1063 1352 1163 c 1,51,-1
 797 1163 l 1,52,53
 666 1038 666 1038 666 971 c 2,54,-1
 666 369 l 2,55,56
 666 316 666 316 703.5 270.5 c 128,-1,57
 741 225 741 225 788 225 c 2,58,-1
 1329 225 l 2,59,60
 1374 225 1374 225 1403 258 c 0,61,62
 1419 274 1419 274 1428.5 296 c 128,-1,63
 1438 318 1438 318 1442 338 c 1,48,-1
1198 537 m 1,64,-1
 918 537 l 1,65,-1
 918 795 l 1,66,-1
 1198 795 l 1,67,-1
 1198 537 l 1,64,-1
EndSplineSet
LCarets2: 1 0
EndChar

StartChar: ttha.sub
Encoding: 166 -1 166
Width: 210
Flags: W
AnchorPoint: "Sub" -471 -72 mark 0
AnchorPoint: "Sub" 432 -823 basemark 0
LayerCount: 2
Fore
SplineSet
459 -578 m 2,0,1
 459 -687 459 -687 375 -762.5 c 128,-1,2
 291 -838 291 -838 174 -838 c 2,3,-1
 -121 -838 l 2,4,5
 -252 -838 -252 -838 -343 -762 c 128,-1,6
 -434 -686 -434 -686 -434 -590 c 2,7,-1
 -434 -324 l 2,8,9
 -434 -213 -434 -213 -339 -136 c 128,-1,10
 -244 -59 -244 -59 -111 -59 c 2,11,-1
 113 -59 l 2,12,13
 258 -59 258 -59 358 -135 c 1,14,15
 458 -217 458 -217 459 -340 c 2,16,-1
 459 -578 l 2,0,1
211 -535 m 1,17,-1
 211 -367 l 2,18,19
 211 -322 211 -322 166 -291 c 1,20,21
 129 -258 129 -258 57 -258 c 2,22,-1
 -76 -258 l 2,23,24
 -119 -258 -119 -258 -151.5 -292 c 128,-1,25
 -184 -326 -184 -326 -184 -369 c 2,26,-1
 -184 -537 l 2,27,28
 -184 -576 -184 -576 -146.5 -606.5 c 128,-1,29
 -109 -637 -109 -637 -61 -637 c 2,30,-1
 82 -637 l 2,31,32
 133 -637 133 -637 171 -606.5 c 128,-1,33
 209 -576 209 -576 211 -535 c 1,17,-1
147 -551 m 1,34,-1
 -129 -551 l 1,35,-1
 -129 -348 l 1,36,-1
 147 -348 l 1,37,-1
 147 -551 l 1,34,-1
EndSplineSet
LCarets2: 1 0
EndChar

StartChar: dda.base
Encoding: 168 -1 168
Width: 1609
Flags: W
LayerCount: 2
Fore
SplineSet
1989 539 m 1,0,-1
 1987 256 l 2,1,2
 1987 154 1987 154 1905 80 c 1,3,4
 1829 4 1829 4 1720 4 c 2,5,-1
 1380 4 l 2,6,7
 1300 4 1300 4 1235 51 c 0,8,9
 1198 76 1198 76 1176 119 c 1,10,11
 1153 76 1153 76 1120 51 c 0,12,13
 1063 4 1063 4 989 4 c 2,14,-1
 670 6 l 2,15,16
 568 6 568 6 479 72 c 1,17,18
 399 140 399 140 399 240 c 2,19,-1
 399 907 l 2,20,21
 399 997 399 997 457 1071 c 1,22,23
 473 1096 473 1096 494.5 1119.5 c 128,-1,24
 516 1143 516 1143 545 1161 c 1,25,-1
 399 1161 l 1,26,-1
 399 1393 l 1,27,-1
 1706 1393 l 1,28,-1
 1706 1350 l 1,29,30
 1782 1325 1782 1325 1843 1268 c 1,31,32
 1911 1215 1911 1215 1954 1133 c 1,33,34
 1968 1096 1968 1096 1982.5 1052 c 128,-1,35
 1997 1008 1997 1008 1997 975 c 2,36,-1
 1995 885 l 1,37,38
 1995 789 1995 789 1919 721 c 1,39,40
 1999 656 1999 656 1989 539 c 1,0,-1
1702 729 m 1,41,42
 1673 790 1673 790 1612 791 c 2,43,-1
 1554 791 l 2,44,45
 1544 791 1544 791 1539 789.5 c 128,-1,46
 1534 788 1534 788 1532 786 c 2,47,-1
 1530 707 l 1,48,49
 1532 699 1532 699 1577 698 c 2,50,-1
 1614 698 l 2,51,52
 1645 698 1645 698 1702 729 c 1,41,42
1720 328 m 1,53,-1
 1720 510 l 1,54,-1
 1716 506 l 2,55,56
 1693 483 1693 483 1677 479 c 2,57,-1
 1655 471 l 1,58,-1
 1497 471 l 2,59,60
 1415 471 1415 471 1349.5 522 c 128,-1,61
 1284 573 1284 573 1284 645 c 2,62,-1
 1284 817 l 2,63,64
 1284 891 1284 891 1335 945 c 128,-1,65
 1386 999 1386 999 1466 999 c 2,66,-1
 1614 999 l 2,67,68
 1673 999 1673 999 1720 967 c 1,69,-1
 1720 983 l 2,70,71
 1720 1040 1720 1040 1663 1097.5 c 128,-1,72
 1606 1155 1606 1155 1503 1178 c 1,73,-1
 922 1176 l 1,74,75
 813 1131 813 1131 746.5 1058 c 128,-1,76
 680 985 680 985 680 903 c 2,77,-1
 680 334 l 2,78,79
 680 297 680 297 705.5 271.5 c 128,-1,80
 731 246 731 246 774 246 c 2,81,-1
 936 246 l 2,82,83
 975 246 975 246 1012 276 c 1,84,85
 1045 315 1045 315 1044 346 c 2,86,-1
 1044 432 l 1,87,-1
 1319 432 l 1,88,-1
 1319 332 l 2,89,90
 1319 303 1319 303 1344.5 273.5 c 128,-1,91
 1370 244 1370 244 1413 244 c 2,92,-1
 1618 244 l 2,93,94
 1649 244 1649 244 1681.5 270.5 c 128,-1,95
 1714 297 1714 297 1720 328 c 1,53,-1
EndSplineSet
EndChar

StartChar: dda.imathra
Encoding: 169 -1 169
Width: 1933
Flags: W
LayerCount: 2
Fore
SplineSet
2015 229 m 1,0,1
 2015 133 2015 133 1950 68 c 1,2,3
 1891 2 1891 2 1802 2 c 2,4,-1
 1327 4 l 2,5,6
 1268 4 1268 4 1217 43 c 1,7,8
 1188 68 1188 68 1178 86 c 1,9,10
 1168 63 1168 63 1135 41 c 0,11,12
 1076 -2 1076 -2 1016 -2 c 2,13,-1
 682 -2 l 2,14,15
 567 -2 567 -2 483 75 c 128,-1,16
 399 152 399 152 399 266 c 2,17,-1
 399 911 l 2,18,19
 399 997 399 997 457 1079 c 1,20,21
 498 1151 498 1151 578 1208 c 1,22,23
 506 1251 506 1251 459 1311 c 0,24,25
 400 1387 400 1387 399 1466 c 2,26,-1
 399 1591 l 2,27,28
 399 1693 399 1693 473 1765 c 1,29,30
 545 1839 545 1839 653 1839 c 2,31,-1
 1194 1839 l 2,32,33
 1266 1839 1266 1839 1366 1788 c 1,34,35
 1460 1735 1460 1735 1563 1632 c 0,36,37
 1678 1517 1678 1517 1765 1395 c 1,38,39
 2023 1055 2023 1055 2023 918 c 2,40,-1
 2023 856 l 2,41,42
 2023 795 2023 795 1958 733 c 1,43,44
 2024 667 2024 667 2023 586 c 2,45,-1
 2015 229 l 1,0,1
1450 1415 m 1,46,47
 1425 1444 1425 1444 1371 1491 c 128,-1,48
 1317 1538 1317 1538 1288 1556 c 0,49,50
 1198 1615 1198 1615 1147 1616 c 2,51,-1
 766 1616 l 2,52,53
 719 1616 719 1616 696.5 1604.5 c 128,-1,54
 674 1593 674 1593 674 1575 c 2,55,-1
 674 1503 l 2,56,57
 674 1450 674 1450 727 1417 c 1,58,-1
 1450 1415 l 1,46,47
1749 739 m 1,59,60
 1698 800 1698 800 1679 801 c 2,61,-1
 1575 801 l 2,62,63
 1557 801 1557 801 1556 784 c 2,64,-1
 1556 713 l 2,65,66
 1556 680 1556 680 1575 680 c 2,67,-1
 1655 680 l 2,68,69
 1720 680 1720 680 1749 739 c 1,59,60
1751 303 m 1,70,-1
 1751 518 l 1,71,72
 1690 471 1690 471 1667 471 c 2,73,-1
 1522 471 l 2,74,75
 1436 471 1436 471 1378 530 c 1,76,77
 1317 581 1317 581 1317 657 c 2,78,-1
 1317 817 l 2,79,80
 1317 899 1317 899 1364 946 c 1,81,82
 1409 999 1409 999 1491 999 c 2,83,-1
 1665 999 l 2,84,85
 1681 999 1681 999 1712 981 c 1,86,-1
 1749 944 l 1,87,88
 1733 1046 1733 1046 1618 1176 c 1,89,-1
 922 1176 l 1,90,91
 807 1104 807 1104 742.5 1031 c 128,-1,92
 678 958 678 958 678 905 c 2,93,-1
 678 346 l 2,94,95
 678 301 678 301 703.5 271.5 c 128,-1,96
 729 242 729 242 774 242 c 2,97,-1
 948 238 l 2,98,99
 985 238 985 238 1014.5 261.5 c 128,-1,100
 1044 285 1044 285 1044 301 c 2,101,-1
 1044 481 l 1,102,-1
 1319 481 l 1,103,-1
 1319 315 l 2,104,105
 1319 278 1319 278 1341 266 c 1,106,107
 1374 237 1374 237 1393 238 c 2,108,-1
 1702 238 l 2,109,110
 1720 238 1720 238 1724 254 c 1,111,112
 1739 272 1739 272 1751 303 c 1,70,-1
EndSplineSet
LCarets2: 1 0
EndChar

StartChar: dda.sub
Encoding: 170 -1 170
Width: 380
Flags: W
AnchorPoint: "Sub" -754 -135 mark 0
AnchorPoint: "Sub" 786 -786 basemark 0
LayerCount: 2
Fore
SplineSet
799 -616 m 2,0,1
 799 -698 799 -698 739 -750 c 1,2,3
 680 -809 680 -809 600 -809 c 2,4,-1
 248 -809 l 2,5,6
 111 -809 111 -809 -33 -627 c 1,7,8
 -92 -709 -92 -709 -166 -748 c 1,9,10
 -256 -807 -256 -807 -352 -807 c 2,11,-1
 -541 -807 l 2,12,13
 -635 -807 -635 -807 -702 -739 c 1,14,15
 -763 -663 -763 -663 -764 -578 c 2,16,-1
 -764 -408 l 2,17,18
 -764 -375 -764 -375 -745.5 -342 c 128,-1,19
 -727 -309 -727 -309 -688 -276 c 1,20,21
 -622 -208 -622 -208 -522 -162 c 1,22,23
 -465 -139 -465 -139 -423 -130 c 128,-1,24
 -381 -121 -381 -121 -336 -121 c 2,25,-1
 252 -121 l 2,26,27
 399 -121 399 -121 510 -188 c 1,28,29
 612 -262 612 -262 623 -356 c 1,30,31
 703 -364 703 -364 741 -397 c 0,32,33
 798 -442 798 -442 799 -514 c 2,34,-1
 799 -616 l 2,0,1
547 -594 m 1,35,-1
 547 -541 l 2,36,37
 547 -527 547 -527 528 -526 c 2,38,-1
 172 -526 l 1,39,-1
 172 -354 l 1,40,-1
 373 -354 l 1,41,-1
 340 -332 l 1,42,43
 309 -318 309 -318 242 -317 c 2,44,-1
 -299 -317 l 2,45,46
 -338 -317 -338 -317 -388 -336.5 c 128,-1,47
 -438 -356 -438 -356 -474 -389 c 128,-1,48
 -510 -422 -510 -422 -510 -432 c 2,49,-1
 -510 -555 l 1,50,51
 -506 -578 -506 -578 -502 -582 c 0,52,53
 -479 -598 -479 -598 -465 -598 c 2,54,-1
 -360 -598 l 1,55,-1
 -360 -637 l 1,56,-1
 -365 -598 l 1,57,58
 -332 -598 -332 -598 -303 -589 c 128,-1,59
 -274 -580 -274 -580 -243.5 -561.5 c 128,-1,60
 -213 -543 -213 -543 -190 -520 c 0,61,62
 -151 -483 -151 -483 -121 -430 c 1,63,-1
 82 -430 l 1,64,65
 107 -475 107 -475 136.5 -512 c 128,-1,66
 166 -549 166 -549 190 -565 c 1,67,68
 247 -612 247 -612 301 -612 c 2,69,-1
 487 -612 l 2,70,71
 516 -612 516 -612 526 -602 c 1,72,-1
 547 -594 l 1,35,-1
EndSplineSet
LCarets2: 1 0
EndChar

StartChar: ddha.base
Encoding: 172 -1 172
Width: 1609
Flags: W
LayerCount: 2
Fore
SplineSet
1989 535 m 1,0,-1
 1987 248 l 2,1,2
 1987 139 1987 139 1905 72 c 1,3,4
 1829 -8 1829 -8 1720 -8 c 2,5,-1
 1380 -8 l 2,6,7
 1300 -8 1300 -8 1235 43 c 0,8,9
 1231 47 1231 47 1211.5 63.5 c 128,-1,10
 1192 80 1192 80 1178 104 c 1,11,12
 1153 65 1153 65 1122 41 c 1,13,14
 1065 -10 1065 -10 991 -10 c 2,15,-1
 672 -8 l 2,16,17
 568 -8 568 -8 484.5 57.5 c 128,-1,18
 401 123 401 123 401 227 c 2,19,-1
 401 897 l 2,20,21
 401 987 401 987 459 1063 c 1,22,23
 469 1081 469 1081 495.5 1110 c 128,-1,24
 522 1139 522 1139 545 1155 c 1,25,-1
 399 1155 l 1,26,-1
 399 1386 l 1,27,-1
 1706 1386 l 1,28,-1
 1706 1343 l 1,29,30
 1782 1318 1782 1318 1843 1262 c 1,31,32
 1917 1203 1917 1203 1954 1122 c 0,33,34
 1970 1085 1970 1085 1982.5 1042 c 128,-1,35
 1995 999 1995 999 1995 963 c 2,36,-1
 1993 872 l 1,37,38
 1993 776 1993 776 1917 709 c 1,39,40
 1997 637 1997 637 1989 535 c 1,0,-1
1319 -297 m 1,41,-1
 1047 -297 l 1,42,-1
 1047 16 l 1,43,-1
 1319 16 l 1,44,-1
 1319 -297 l 1,41,-1
1700 715 m 1,45,46
 1671 774 1671 774 1610 774 c 2,47,-1
 1552 774 l 2,48,49
 1542 774 1542 774 1528 772 c 1,50,-1
 1526 692 l 1,51,52
 1528 682 1528 682 1610 682 c 0,53,54
 1634 682 1634 682 1700 715 c 1,45,46
1716 309 m 1,55,-1
 1716 492 l 1,56,-1
 1712 487 l 2,57,58
 1689 464 1689 464 1673 461 c 2,59,-1
 1651 453 l 1,60,-1
 1493 453 l 2,61,62
 1411 453 1411 453 1343 504 c 1,63,64
 1282 557 1282 557 1282 629 c 2,65,-1
 1282 801 l 2,66,67
 1282 875 1282 875 1333 930 c 128,-1,68
 1384 985 1384 985 1464 985 c 2,69,-1
 1612 985 l 2,70,71
 1673 985 1673 985 1718 948 c 1,72,-1
 1718 965 l 2,73,74
 1718 996 1718 996 1706 1021.5 c 128,-1,75
 1694 1047 1694 1047 1663 1079 c 1,76,77
 1606 1132 1606 1132 1503 1157 c 1,78,-1
 922 1155 l 1,79,80
 805 1102 805 1102 745 1032 c 1,81,82
 679 966 679 966 680 885 c 2,83,-1
 680 309 l 2,84,85
 680 272 680 272 706.5 245.5 c 128,-1,86
 733 219 733 219 772 219 c 2,87,-1
 934 219 l 2,88,89
 957 219 957 219 973 227.5 c 128,-1,90
 989 236 989 236 1008 252 c 1,91,92
 1041 291 1041 291 1040 322 c 2,93,-1
 1040 410 l 1,94,-1
 1315 410 l 1,95,-1
 1315 307 l 2,96,97
 1315 278 1315 278 1340.5 247.5 c 128,-1,98
 1366 217 1366 217 1409 217 c 2,99,-1
 1614 217 l 2,100,101
 1632 217 1632 217 1641.5 222 c 128,-1,102
 1651 227 1651 227 1679.5 249.5 c 128,-1,103
 1708 272 1708 272 1716 309 c 1,55,-1
EndSplineSet
EndChar

StartChar: ddha.imathra
Encoding: 173 -1 173
Width: 1933
Flags: W
LayerCount: 2
Fore
SplineSet
2015 223 m 1,0,1
 2015 127 2015 127 1950 66 c 1,2,3
 1891 -2 1891 -2 1802 -2 c 2,4,-1
 1327 0 l 2,5,6
 1268 0 1268 0 1217 39 c 1,7,8
 1188 64 1188 64 1178 82 c 1,9,10
 1168 59 1168 59 1135 37 c 0,11,12
 1076 -6 1076 -6 1016 -6 c 2,13,-1
 682 -6 l 2,14,15
 567 -6 567 -6 483 70.5 c 128,-1,16
 399 147 399 147 399 260 c 2,17,-1
 399 907 l 2,18,19
 399 993 399 993 457 1075 c 1,20,21
 504 1155 504 1155 578 1202 c 1,22,23
 504 1245 504 1245 459 1307 c 1,24,25
 400 1379 400 1379 399 1464 c 2,26,-1
 399 1589 l 2,27,28
 399 1691 399 1691 473 1763 c 1,29,30
 545 1837 545 1837 653 1837 c 2,31,-1
 1194 1837 l 2,32,33
 1266 1837 1266 1837 1364 1785 c 128,-1,34
 1462 1733 1462 1733 1563.5 1630.5 c 128,-1,35
 1665 1528 1665 1528 1765 1391 c 1,36,37
 2023 1057 2023 1057 2023 913 c 2,38,-1
 2023 852 l 2,39,40
 2023 791 2023 791 1958 729 c 1,41,42
 2024 663 2024 663 2023 582 c 2,43,-1
 2015 223 l 1,0,1
1319 -293 m 1,44,-1
 1047 -293 l 1,45,-1
 1047 25 l 1,46,-1
 1319 25 l 1,47,-1
 1319 -293 l 1,44,-1
1450 1411 m 1,48,49
 1413 1454 1413 1454 1369 1491 c 128,-1,50
 1325 1528 1325 1528 1288 1556 c 1,51,52
 1198 1615 1198 1615 1147 1616 c 2,53,-1
 766 1616 l 2,54,55
 719 1616 719 1616 696.5 1604.5 c 128,-1,56
 674 1593 674 1593 674 1575 c 2,57,-1
 674 1501 l 2,58,59
 674 1450 674 1450 727 1413 c 1,60,-1
 1450 1411 l 1,48,49
1749 735 m 1,61,62
 1702 794 1702 794 1679 795 c 2,63,-1
 1575 795 l 2,64,65
 1557 795 1557 795 1556 778 c 2,66,-1
 1556 711 l 2,67,68
 1556 678 1556 678 1575 678 c 2,69,-1
 1655 678 l 2,70,71
 1720 678 1720 678 1749 735 c 1,61,62
1751 297 m 1,72,-1
 1751 512 l 1,73,74
 1690 467 1690 467 1667 467 c 2,75,-1
 1522 467 l 2,76,77
 1436 467 1436 467 1378 524 c 1,78,79
 1317 577 1317 577 1317 651 c 2,80,-1
 1317 813 l 2,81,82
 1317 895 1317 895 1364 942 c 1,83,84
 1409 995 1409 995 1491 995 c 2,85,-1
 1665 995 l 2,86,87
 1681 995 1681 995 1712 977 c 1,88,-1
 1749 940 l 1,89,90
 1735 1040 1735 1040 1618 1174 c 1,91,-1
 922 1174 l 1,92,93
 803 1094 803 1094 741.5 1024 c 128,-1,94
 680 954 680 954 680 901 c 2,95,-1
 680 342 l 2,96,97
 680 295 680 295 705.5 265.5 c 128,-1,98
 731 236 731 236 776 236 c 2,99,-1
 950 231 l 2,100,101
 987 231 987 231 1017 255 c 128,-1,102
 1047 279 1047 279 1047 295 c 2,103,-1
 1047 477 l 1,104,-1
 1321 477 l 1,105,-1
 1321 311 l 2,106,107
 1321 272 1321 272 1343 258 c 1,108,109
 1376 229 1376 229 1395 229 c 2,110,-1
 1704 229 l 2,111,112
 1722 229 1722 229 1726 246 c 1,113,114
 1741 264 1741 264 1751 297 c 1,72,-1
EndSplineSet
LCarets2: 1 0
EndChar

StartChar: ddha.sub
Encoding: 174 -1 174
Width: 380
Flags: W
AnchorPoint: "Sub" -733 -137 mark 0
AnchorPoint: "Sub" 762 -762 basemark 0
LayerCount: 2
Fore
SplineSet
799 -618 m 2,0,1
 799 -686 799 -686 736.5 -734 c 128,-1,2
 674 -782 674 -782 600 -782 c 2,3,-1
 248 -782 l 2,4,5
 117 -782 117 -782 -35 -623 c 1,6,7
 -94 -703 -94 -703 -176 -750 c 1,8,9
 -266 -809 -266 -809 -352 -809 c 2,10,-1
 -541 -809 l 2,11,12
 -635 -809 -635 -809 -702 -737 c 1,13,14
 -763 -661 -763 -661 -764 -575 c 2,15,-1
 -764 -406 l 2,16,17
 -764 -373 -764 -373 -745.5 -340 c 128,-1,18
 -727 -307 -727 -307 -688 -274 c 1,19,20
 -622 -206 -622 -206 -522 -160 c 1,21,22
 -465 -137 -465 -137 -423 -128 c 128,-1,23
 -381 -119 -381 -119 -336 -119 c 2,24,-1
 252 -119 l 2,25,26
 393 -119 393 -119 510 -190 c 1,27,28
 612 -264 612 -264 623 -354 c 1,29,30
 697 -362 697 -362 741 -395 c 1,31,32
 798 -442 798 -442 799 -514 c 2,33,-1
 799 -618 l 2,0,1
96 -840 m 1,34,-1
 -150 -840 l 1,35,-1
 -150 -729 l 1,36,-1
 -35 -647 l 1,37,-1
 96 -733 l 1,38,-1
 96 -840 l 1,34,-1
545 -594 m 1,39,-1
 545 -541 l 2,40,41
 545 -531 545 -531 526 -530 c 2,42,-1
 170 -530 l 1,43,-1
 170 -356 l 1,44,-1
 371 -356 l 1,45,46
 355 -340 355 -340 338 -338 c 1,47,48
 320 -328 320 -328 298 -326 c 128,-1,49
 276 -324 276 -324 240 -324 c 2,50,-1
 -301 -324 l 2,51,52
 -340 -324 -340 -324 -390 -343 c 128,-1,53
 -440 -362 -440 -362 -476 -395 c 128,-1,54
 -512 -428 -512 -428 -512 -438 c 2,55,-1
 -512 -561 l 2,56,57
 -512 -577 -512 -577 -495.5 -591.5 c 128,-1,58
 -479 -606 -479 -606 -465 -606 c 2,59,-1
 -360 -606 l 1,60,-1
 -360 -645 l 1,61,-1
 -365 -606 l 1,62,63
 -332 -606 -332 -606 -303 -597 c 128,-1,64
 -274 -588 -274 -588 -243.5 -569.5 c 128,-1,65
 -213 -551 -213 -551 -190 -528 c 0,66,67
 -151 -491 -151 -491 -121 -438 c 1,68,-1
 82 -438 l 1,69,70
 107 -481 107 -481 136.5 -521 c 128,-1,71
 166 -561 166 -561 190 -578 c 0,72,73
 251 -625 251 -625 299 -625 c 2,74,-1
 485 -625 l 2,75,76
 514 -625 514 -625 524 -614 c 2,77,-1
 545 -594 l 1,39,-1
EndSplineSet
LCarets2: 1 0
EndChar

StartChar: nna
Encoding: 175 3235 175
Width: 2058
Flags: W
LayerCount: 2
Fore
SplineSet
2138 283 m 2,0,1
 2138 168 2138 168 2054 86 c 1,2,3
 1972 0 1972 0 1855 0 c 2,4,-1
 1395 0 l 1,5,-1
 1395 362 l 2,6,7
 1395 462 1395 462 1456.5 535 c 128,-1,8
 1518 608 1518 608 1608 608 c 2,9,-1
 1788 608 l 1,10,-1
 1788 379 l 1,11,-1
 1726 379 l 2,12,13
 1701 379 1701 379 1687 364.5 c 128,-1,14
 1673 350 1673 350 1673 334 c 2,15,-1
 1673 231 l 1,16,-1
 1788 231 l 2,17,18
 1819 231 1819 231 1841 256 c 1,19,20
 1864 295 1864 295 1864 332 c 2,21,-1
 1864 1094 l 2,22,23
 1864 1125 1864 1125 1837 1143 c 128,-1,24
 1810 1161 1810 1161 1767 1161 c 2,25,-1
 1493 1161 l 2,26,27
 1434 1161 1434 1161 1407 1141.5 c 128,-1,28
 1380 1122 1380 1122 1380 1094 c 2,29,-1
 1380 948 l 1,30,-1
 1106 948 l 1,31,-1
 1106 1094 l 2,32,33
 1106 1123 1106 1123 1080.5 1142 c 128,-1,34
 1055 1161 1055 1161 995 1161 c 2,35,-1
 733 1161 l 2,36,37
 690 1161 690 1161 676 1149 c 128,-1,38
 662 1137 662 1137 656.5 1124.5 c 128,-1,39
 651 1112 651 1112 651 1096 c 2,40,-1
 649 868 l 2,41,42
 649 817 649 817 682 784 c 1,43,44
 711 751 711 751 743 752 c 2,45,-1
 915 752 l 1,46,-1
 915 520 l 1,47,-1
 733 520 l 2,48,49
 696 520 696 520 674 506 c 1,50,51
 664 492 664 492 658.5 480.5 c 128,-1,52
 653 469 653 469 653 451 c 2,53,-1
 651 322 l 1,54,55
 655 279 655 279 674 264 c 0,56,57
 705 239 705 239 733 240 c 2,58,-1
 1063 240 l 1,59,-1
 1063 8 l 1,60,-1
 647 10 l 2,61,62
 530 10 530 10 457 72 c 0,63,64
 375 142 375 142 375 231 c 2,65,-1
 375 473 l 2,66,67
 375 516 375 516 426 582 c 1,68,69
 440 596 440 596 469 617.5 c 128,-1,70
 498 639 498 639 516 647 c 1,71,72
 465 678 465 678 426 721 c 1,73,74
 375 795 375 795 375 862 c 2,75,-1
 375 1149 l 2,76,77
 375 1249 375 1249 461 1325 c 1,78,79
 543 1393 543 1393 659 1393 c 2,80,-1
 1028 1393 l 2,81,82
 1128 1393 1128 1393 1182 1360 c 1,83,84
 1225 1337 1225 1337 1247 1300 c 1,85,86
 1323 1394 1323 1394 1475 1395 c 2,87,-1
 1827 1395 l 2,88,89
 1966 1395 1966 1395 2052 1309 c 1,90,91
 2097 1270 2097 1270 2119.5 1215.5 c 128,-1,92
 2142 1161 2142 1161 2142 1096 c 2,93,-1
 2138 283 l 2,0,1
EndSplineSet
LCarets2: 1 0
EndChar

StartChar: nna.base
Encoding: 176 -1 176
Width: 1542
Flags: W
LayerCount: 2
Fore
SplineSet
1628 1165 m 1,0,-1
 410 1165 l 1,1,-1
 410 1397 l 1,2,-1
 1628 1397 l 1,3,-1
 1628 1165 l 1,0,-1
1923 254 m 2,4,5
 1923 158 1923 158 1862 78 c 1,6,7
 1794 2 1794 2 1698 2 c 2,8,-1
 1237 2 l 1,9,-1
 1237 313 l 2,10,11
 1237 430 1237 430 1316 507 c 128,-1,12
 1395 584 1395 584 1503 584 c 2,13,-1
 1632 584 l 1,14,-1
 1632 352 l 1,15,-1
 1579 352 l 2,16,17
 1548 352 1548 352 1533 337 c 128,-1,18
 1518 322 1518 322 1518 297 c 2,19,-1
 1518 236 l 1,20,-1
 1612 236 l 2,21,22
 1630 236 1630 236 1659 258 c 1,23,24
 1677 291 1677 291 1677 322 c 2,25,-1
 1677 782 l 2,26,27
 1677 813 1677 813 1640 842 c 0,28,29
 1630 852 1630 852 1603.5 860 c 128,-1,30
 1577 868 1577 868 1554 868 c 2,31,-1
 1346 868 l 2,32,33
 1328 868 1328 868 1306 844.5 c 128,-1,34
 1284 821 1284 821 1284 782 c 2,35,-1
 1284 707 l 1,36,-1
 1008 707 l 1,37,-1
 1008 809 l 2,38,39
 1008 834 1008 834 991 856 c 1,40,41
 975 870 975 870 942 870 c 2,42,-1
 737 870 l 2,43,44
 706 870 706 870 691 852 c 128,-1,45
 676 834 676 834 676 809 c 2,46,-1
 676 700 l 1,47,48
 678 696 678 696 680 689 c 128,-1,49
 682 682 682 682 690 678 c 0,50,51
 715 662 715 662 745 662 c 2,52,-1
 848 662 l 1,53,-1
 848 414 l 1,54,-1
 745 414 l 2,55,56
 714 414 714 414 693 397.5 c 128,-1,57
 672 381 672 381 672 344 c 2,58,-1
 672 276 l 2,59,60
 672 251 672 251 694 242 c 1,61,62
 723 219 723 219 766 219 c 2,63,-1
 991 219 l 1,64,-1
 991 14 l 1,65,-1
 616 14 l 2,66,67
 528 14 528 14 461.5 69.5 c 128,-1,68
 395 125 395 125 395 199 c 2,69,-1
 395 375 l 2,70,71
 395 436 395 436 432 483 c 0,72,73
 457 514 457 514 487 530 c 1,74,-1
 434 573 l 1,75,76
 395 610 395 610 395 668 c 2,77,-1
 395 897 l 2,78,79
 395 991 395 991 471 1051 c 1,80,81
 551 1104 551 1104 659 1104 c 2,82,-1
 997 1104 l 2,83,84
 1093 1104 1093 1104 1145 1044 c 1,85,86
 1163 1067 1163 1067 1200 1081 c 1,87,88
 1247 1104 1247 1104 1319 1104 c 2,89,-1
 1591 1104 l 2,90,91
 1738 1104 1738 1104 1827 1014 c 1,92,93
 1927 924 1927 924 1927 791 c 2,94,-1
 1923 254 l 2,4,5
EndSplineSet
EndChar

StartChar: nna.imathra
Encoding: 177 -1 177
Width: 2058
Flags: W
LayerCount: 2
Fore
SplineSet
2138 287 m 2,0,1
 2138 172 2138 172 2054 86 c 128,-1,2
 1970 0 1970 0 1853 0 c 2,3,-1
 1393 0 l 1,4,-1
 1393 367 l 2,5,6
 1393 467 1393 467 1452 543 c 1,7,8
 1520 615 1520 615 1606 614 c 2,9,-1
 1786 614 l 1,10,-1
 1786 383 l 1,11,-1
 1724 383 l 2,12,13
 1708 383 1708 383 1690 369 c 1,14,15
 1674 346 1674 346 1673 324 c 2,16,-1
 1673 233 l 1,17,-1
 1788 233 l 2,18,19
 1819 233 1819 233 1841 262 c 1,20,21
 1864 301 1864 301 1864 338 c 2,22,-1
 1864 1092 l 2,23,24
 1864 1121 1864 1121 1835 1153 c 1,25,26
 1810 1176 1810 1176 1767 1176 c 2,27,-1
 1493 1176 l 2,28,29
 1446 1176 1446 1176 1413 1147 c 128,-1,30
 1380 1118 1380 1118 1380 1090 c 2,31,-1
 1380 958 l 1,32,-1
 1106 958 l 1,33,-1
 1106 1090 l 2,34,35
 1106 1121 1106 1121 1073 1147.5 c 128,-1,36
 1040 1174 1040 1174 995 1174 c 2,37,-1
 764 1174 l 2,38,39
 721 1174 721 1174 685 1145 c 128,-1,40
 649 1116 649 1116 649 1077 c 2,41,-1
 647 872 l 2,42,43
 647 827 647 827 678 790.5 c 128,-1,44
 709 754 709 754 741 754 c 2,45,-1
 913 754 l 1,46,-1
 913 522 l 1,47,-1
 741 522 l 2,48,49
 704 522 704 522 674 498 c 1,50,51
 649 467 649 467 649 436 c 2,52,-1
 647 322 l 1,53,54
 651 279 651 279 670 266 c 1,55,56
 703 237 703 237 727 238 c 2,57,-1
 1057 238 l 1,58,-1
 1057 6 l 1,59,-1
 641 8 l 2,60,61
 524 8 524 8 451 70 c 0,62,63
 369 140 369 140 369 229 c 2,64,-1
 369 475 l 2,65,66
 369 520 369 520 420 586 c 1,67,68
 434 600 434 600 463 621.5 c 128,-1,69
 492 643 492 643 510 651 c 1,70,71
 459 682 459 682 420 725 c 1,72,73
 369 799 369 799 369 866 c 2,74,-1
 369 1155 l 2,75,76
 369 1257 369 1257 455 1333 c 1,77,78
 537 1401 537 1401 653 1401 c 2,79,-1
 1022 1401 l 2,80,81
 1122 1401 1122 1401 1176 1368 c 1,82,83
 1215 1350 1215 1350 1237 1313 c 1,84,85
 1251 1331 1251 1331 1263.5 1343.5 c 128,-1,86
 1276 1356 1276 1356 1292 1364 c 1,87,88
 1339 1401 1339 1401 1407 1401 c 2,89,-1
 1661 1401 l 2,90,91
 1692 1401 1692 1401 1714 1432 c 1,92,93
 1728 1457 1728 1457 1732.5 1469 c 128,-1,94
 1737 1481 1737 1481 1737 1503 c 2,95,-1
 1737 1640 l 2,96,97
 1737 1673 1737 1673 1722.5 1691.5 c 128,-1,98
 1708 1710 1708 1710 1690 1710 c 2,99,-1
 1571 1710 l 2,100,101
 1534 1710 1534 1710 1526 1706 c 2,102,-1
 1518 1702 l 1,103,104
 1520 1692 1520 1692 1527 1686.5 c 128,-1,105
 1534 1681 1534 1681 1556 1677 c 1,106,-1
 1665 1677 l 1,107,-1
 1665 1460 l 1,108,-1
 1464 1462 l 2,109,110
 1390 1462 1390 1462 1329 1509 c 1,111,112
 1276 1560 1276 1560 1276 1626 c 2,113,-1
 1276 1780 l 2,114,115
 1276 1856 1276 1856 1329 1901 c 1,116,117
 1390 1946 1390 1946 1464 1946 c 2,118,-1
 1780 1946 l 2,119,120
 1825 1946 1825 1946 1844.5 1941.5 c 128,-1,121
 1864 1937 1864 1937 1892 1921 c 1,122,123
 1945 1896 1945 1896 1982 1845 c 1,124,125
 1990 1827 1990 1827 2001.5 1798 c 128,-1,126
 2013 1769 2013 1769 2013 1739 c 2,127,-1
 2013 1493 l 2,128,129
 2013 1413 2013 1413 1948 1366 c 1,130,131
 2024 1343 2024 1343 2062 1286 c 1,132,133
 2128 1212 2128 1212 2128 1104 c 2,134,-1
 2138 287 l 2,0,1
EndSplineSet
LCarets2: 1 0
EndChar

StartChar: nna.sub
Encoding: 178 -1 178
Width: 368
Flags: W
AnchorPoint: "Sub" -750 -86 mark 0
AnchorPoint: "Sub" 758 -823 basemark 0
LayerCount: 2
Fore
SplineSet
782 -633 m 2,0,1
 782 -715 782 -715 705.5 -776.5 c 128,-1,2
 629 -838 629 -838 528 -838 c 2,3,-1
 94 -838 l 1,4,-1
 94 -584 l 1,5,6
 117 -541 117 -541 142.5 -508 c 128,-1,7
 168 -475 168 -475 208 -444.5 c 128,-1,8
 248 -414 248 -414 287 -397 c 0,9,10
 340 -372 340 -372 399 -365 c 1,11,-1
 494 -541 l 1,12,13
 455 -551 455 -551 425 -562 c 128,-1,14
 395 -573 395 -573 372.5 -587.5 c 128,-1,15
 350 -602 350 -602 345 -607 c 128,-1,16
 340 -612 340 -612 340 -614 c 2,17,-1
 340 -637 l 1,18,-1
 477 -637 l 2,19,20
 493 -637 493 -637 512.5 -621.5 c 128,-1,21
 532 -606 532 -606 532 -578 c 2,22,-1
 532 -381 l 2,23,24
 532 -342 532 -342 502.5 -313.5 c 128,-1,25
 473 -285 473 -285 420 -285 c 2,26,-1
 231 -283 l 1,27,28
 192 -285 192 -285 156 -322 c 1,29,30
 123 -365 123 -365 123 -440 c 1,31,-1
 -123 -440 l 1,32,33
 -131 -354 -131 -354 -157.5 -318.5 c 128,-1,34
 -184 -283 -184 -283 -221 -283 c 2,35,-1
 -455 -281 l 2,36,37
 -463 -281 -463 -281 -482.5 -281 c 128,-1,38
 -502 -281 -502 -281 -502 -289 c 2,39,-1
 -502 -340 l 1,40,-1
 -498 -350 l 1,41,-1
 -467 -358 l 1,42,-1
 -242 -358 l 1,43,-1
 -242 -555 l 1,44,-1
 -467 -555 l 1,45,-1
 -496 -559 l 1,46,-1
 -504 -573 l 1,47,-1
 -504 -627 l 2,48,49
 -504 -631 -504 -631 -457 -631 c 2,50,-1
 -125 -631 l 1,51,-1
 -125 -831 l 1,52,-1
 -557 -831 l 2,53,54
 -631 -831 -631 -831 -688 -795 c 1,55,56
 -749 -762 -749 -762 -750 -709 c 2,57,-1
 -750 -575 l 2,58,59
 -750 -516 -750 -516 -684 -471 c 1,60,61
 -750 -418 -750 -418 -750 -381 c 2,62,-1
 -750 -262 l 2,63,64
 -750 -176 -750 -176 -684 -137 c 1,65,66
 -627 -90 -627 -90 -528 -90 c 2,67,-1
 -223 -90 l 2,68,69
 -135 -90 -135 -90 -68 -121 c 1,70,71
 -29 -152 -29 -152 -4 -184 c 1,72,73
 21 -141 21 -141 47 -123 c 1,74,75
 106 -90 106 -90 180 -90 c 2,76,-1
 471 -90 l 2,77,78
 604 -90 604 -90 690 -171 c 128,-1,79
 776 -252 776 -252 776 -369 c 1,80,-1
 782 -633 l 2,0,1
EndSplineSet
LCarets2: 1 0
EndChar

StartChar: ta.base
Encoding: 180 -1 180
Width: 1320
Flags: W
LayerCount: 2
Fore
SplineSet
1700 289 m 2,0,1
 1700 176 1700 176 1598.5 92 c 128,-1,2
 1497 8 1497 8 1352 8 c 2,3,-1
 641 8 l 1,4,-1
 645 4 l 1,5,6
 549 4 549 4 486.5 23.5 c 128,-1,7
 424 43 424 43 377 80 c 1,8,9
 287 162 287 162 287 266 c 2,10,-1
 287 748 l 1,11,-1
 563 748 l 1,12,-1
 563 313 l 2,13,14
 563 284 563 284 582 260 c 1,15,16
 607 235 607 235 637 236 c 2,17,-1
 1300 236 l 2,18,19
 1351 236 1351 236 1387 263.5 c 128,-1,20
 1423 291 1423 291 1423 322 c 2,21,-1
 1423 582 l 2,22,23
 1423 619 1423 619 1413 633 c 1,24,25
 1341 588 1341 588 1294 565.5 c 128,-1,26
 1247 543 1247 543 1223 543 c 2,27,-1
 932 543 l 2,28,29
 842 543 842 543 768 604 c 1,30,31
 696 657 696 657 696 743 c 2,32,-1
 696 889 l 2,33,34
 696 971 696 971 764 1018 c 1,35,36
 793 1043 793 1043 832.5 1054 c 128,-1,37
 872 1065 872 1065 920 1065 c 2,38,-1
 1210 1065 l 2,39,40
 1300 1065 1300 1065 1391 971 c 1,41,-1
 1419 1014 l 1,42,-1
 1419 1102 l 2,43,44
 1419 1120 1419 1120 1391 1143 c 1,45,46
 1366 1157 1366 1157 1321 1157 c 2,47,-1
 301 1157 l 1,48,-1
 301 1389 l 1,49,-1
 1321 1389 l 2,50,51
 1423 1389 1423 1389 1510 1351 c 128,-1,52
 1597 1313 1597 1313 1642 1251 c 1,53,54
 1695 1185 1695 1185 1696 1104 c 2,55,-1
 1696 958 l 2,56,57
 1696 876 1696 876 1587 774 c 1,58,59
 1696 680 1696 680 1696 557 c 2,60,-1
 1700 289 l 2,0,1
1264 815 m 1,61,62
 1233 846 1233 846 1157 846 c 2,63,-1
 981 846 l 1,64,-1
 944 838 l 1,65,-1
 936 829 l 1,66,-1
 936 801 l 1,67,-1
 944 791 l 1,68,-1
 969 782 l 1,69,-1
 1174 782 l 1,70,71
 1225 786 1225 786 1264 815 c 1,61,62
EndSplineSet
EndChar

StartChar: ta.imathra
Encoding: 181 -1 181
Width: 1622
Flags: W
LayerCount: 2
Fore
SplineSet
1706 283 m 2,0,1
 1706 172 1706 172 1622 86 c 128,-1,2
 1538 0 1538 0 1421 0 c 2,3,-1
 539 0 l 2,4,5
 435 0 435 0 361 77 c 128,-1,6
 287 154 287 154 287 268 c 2,7,-1
 287 750 l 1,8,-1
 563 750 l 1,9,-1
 563 338 l 2,10,11
 563 293 563 293 589.5 263 c 128,-1,12
 616 233 616 233 645 233 c 2,13,-1
 1303 233 l 2,14,15
 1348 233 1348 233 1385.5 268 c 128,-1,16
 1423 303 1423 303 1423 348 c 2,17,-1
 1423 553 l 2,18,19
 1423 598 1423 598 1391 631 c 1,20,21
 1301 541 1301 541 1229 541 c 2,22,-1
 940 541 l 2,23,24
 846 541 846 541 766 598 c 1,25,26
 729 629 729 629 712.5 665.5 c 128,-1,27
 696 702 696 702 696 741 c 2,28,-1
 696 889 l 2,29,30
 696 928 696 928 711.5 958.5 c 128,-1,31
 727 989 727 989 764 1014 c 1,32,33
 823 1065 823 1065 920 1065 c 2,34,-1
 1210 1065 l 2,35,36
 1310 1065 1310 1065 1405 971 c 1,37,-1
 1423 1008 l 1,38,-1
 1423 1290 l 2,39,40
 1423 1323 1423 1323 1407 1348.5 c 128,-1,41
 1391 1374 1391 1374 1360 1374 c 2,42,-1
 1155 1374 l 1,43,44
 1151 1364 1151 1364 1151 1360 c 2,45,-1
 1151 1337 l 1,46,-1
 1161 1321 l 2,47,48
 1163 1319 1163 1319 1170.5 1318 c 128,-1,49
 1178 1317 1178 1317 1186 1315 c 1,50,-1
 1352 1315 l 1,51,-1
 1352 1110 l 1,52,-1
 1094 1110 l 2,53,54
 1022 1110 1022 1110 960.5 1167.5 c 128,-1,55
 899 1225 899 1225 899 1296 c 2,56,-1
 899 1436 l 2,57,58
 899 1512 899 1512 946 1562 c 128,-1,59
 993 1612 993 1612 1067 1612 c 2,60,-1
 1419 1612 l 2,61,62
 1538 1612 1538 1612 1618 1532 c 1,63,64
 1704 1456 1704 1456 1704 1341 c 2,65,-1
 1704 1038 l 2,66,67
 1704 936 1704 936 1567 799 c 1,68,69
 1704 680 1704 680 1704 551 c 2,70,-1
 1706 283 l 2,0,1
1272 809 m 1,71,72
 1233 840 1233 840 1143 840 c 2,73,-1
 997 840 l 2,74,75
 944 840 944 840 944 823 c 2,76,-1
 944 799 l 1,77,-1
 952 788 l 1,78,-1
 977 778 l 1,79,-1
 1153 778 l 2,80,81
 1221 778 1221 778 1272 809 c 1,71,72
EndSplineSet
LCarets2: 1 0
EndChar

StartChar: ta.sub
Encoding: 182 -1 182
Width: 311
Flags: W
AnchorPoint: "Sub" -602 -160 mark 0
AnchorPoint: "Sub" 651 -723 basemark 0
LayerCount: 2
Fore
SplineSet
664 -481 m 2,0,1
 664 -575 664 -575 580 -651 c 128,-1,2
 496 -727 496 -727 377 -727 c 2,3,-1
 -639 -727 l 1,4,-1
 -639 -514 l 1,5,-1
 303 -514 l 2,6,7
 326 -514 326 -514 347.5 -510 c 128,-1,8
 369 -506 369 -506 391 -496 c 1,9,10
 416 -478 416 -478 416 -461 c 2,11,-1
 416 -328 l 1,12,-1
 377 -326 l 1,13,14
 340 -330 340 -330 330 -340 c 1,15,16
 316 -344 316 -344 315 -381 c 2,17,-1
 315 -467 l 1,18,-1
 63 -467 l 1,19,-1
 63 -328 l 2,20,21
 63 -242 63 -242 139 -176 c 1,22,23
 200 -117 200 -117 315 -117 c 2,24,-1
 664 -117 l 1,25,-1
 664 -481 l 2,0,1
EndSplineSet
LCarets2: 1 0
EndChar

